# Sources:
# -Misc-Fixed-Medium-R-Normal--10-100-75-75-C-60-ISO10646-1 $ucs-fonts: 6x10.bdf,v 1.35 2006-01-05 20:03:17+00 mgk25 Rel $
# -windows-proggytiny-medium-r-normal--10-72-100-100-c-0-iso8859-1

name: Fixed Medium 10
family: Fixed
foundry: Misc
copyright: Public domain terminal emulator font.  Share and enjoy.
point-size: 10
weight: medium
dpi: 75 75
spacing: character-cell
x-height: 5
cap-height: 7
offset: 0 -2
encoding: unicode
default-char: u+0000
converter: monobit v0.12
source-name: 6x10.bdf
source-format: BDF v2.1
bdf.FONTNAME-REGISTRY: ""
bdf.-GBDFED-INFO: "Edited with gbdfed 1.6."

u+0000:
char0:
    ......
    .@.@..
    ....@.
    .@....
    ....@.
    .@....
    ....@.
    .@....
    ..@.@.
    ......

u+0001:
char1:
    ......
    ......
    ..@...
    .@@@..
    @@@@@.
    .@@@..
    ..@...
    ......
    ......
    ......

u+0002:
shade:
    @.@.@.
    .@.@.@
    @.@.@.
    .@.@.@
    @.@.@.
    .@.@.@
    @.@.@.
    .@.@.@
    @.@.@.
    .@.@.@

u+0003:
uni2409:
    ......
    @..@..
    @..@..
    @@@@..
    @..@..
    @..@..
    .@@@@.
    ...@..
    ...@..
    ...@..

u+0004:
uni240C:
    ......
    @@@...
    @.....
    @@....
    @.....
    @.@@@.
    ..@...
    ..@@..
    ..@...
    ..@...

u+0005:
uni240D:
    ......
    .@@@..
    @.....
    @.....
    .@@@..
    .@@@..
    .@..@.
    .@@@..
    .@..@.
    .@..@.

u+0006:
uni240A:
    ......
    @.....
    @.....
    @.....
    @@@@..
    .@@@@.
    .@....
    .@@@..
    .@....
    .@....

u+0007:
char176:
    ......
    ..@...
    .@.@..
    ..@...
    ......
    ......
    ......
    ......
    ......
    ......

u+0008:
char8:
    ......
    ......
    ..@...
    ..@...
    @@@@@.
    ..@...
    ..@...
    ......
    @@@@@.
    ......

u+0009:
uni2424:
    ......
    @..@..
    @@.@..
    @@.@..
    @.@@..
    @..@..
    .@....
    .@....
    .@....
    .@@@@.

u+000a:
uni240B:
    ......
    @..@..
    @..@..
    .@@...
    .@....
    .@@@@.
    ...@..
    ...@..
    ...@..
    ...@..

u+000b:
char11:
    ..@...
    ..@...
    ..@...
    ..@...
    @@@...
    ......
    ......
    ......
    ......
    ......

u+000c:
char12:
    ......
    ......
    ......
    ......
    @@@...
    ..@...
    ..@...
    ..@...
    ..@...
    ..@...

u+000d:
char13:
    ......
    ......
    ......
    ......
    ..@@@@
    ..@...
    ..@...
    ..@...
    ..@...
    ..@...

u+000e:
char14:
    ..@...
    ..@...
    ..@...
    ..@...
    ..@@@@
    ......
    ......
    ......
    ......
    ......

u+000f:
char15:
    ..@...
    ..@...
    ..@...
    ..@...
    @@@@@@
    ..@...
    ..@...
    ..@...
    ..@...
    ..@...

u+0010:
char16:
    @@@@@@
    ......
    ......
    ......
    ......
    ......
    ......
    ......
    ......
    ......

u+0011:
char17:
    ......
    ......
    @@@@@@
    ......
    ......
    ......
    ......
    ......
    ......
    ......

u+0012:
char18:
    ......
    ......
    ......
    ......
    @@@@@@
    ......
    ......
    ......
    ......
    ......

u+0013:
char19:
    ......
    ......
    ......
    ......
    ......
    ......
    @@@@@@
    ......
    ......
    ......

u+0014:
char20:
    ......
    ......
    ......
    ......
    ......
    ......
    ......
    ......
    ......
    @@@@@@

u+0015:
char21:
    ..@...
    ..@...
    ..@...
    ..@...
    ..@@@@
    ..@...
    ..@...
    ..@...
    ..@...
    ..@...

u+0016:
char22:
    ..@...
    ..@...
    ..@...
    ..@...
    @@@...
    ..@...
    ..@...
    ..@...
    ..@...
    ..@...

u+0017:
char23:
    ..@...
    ..@...
    ..@...
    ..@...
    @@@@@@
    ......
    ......
    ......
    ......
    ......

u+0018:
char24:
    ......
    ......
    ......
    ......
    @@@@@@
    ..@...
    ..@...
    ..@...
    ..@...
    ..@...

u+0019:
char26:
    ..@...
    ..@...
    ..@...
    ..@...
    ..@...
    ..@...
    ..@...
    ..@...
    ..@...
    ..@...

u+001a:
lessequal:
    ......
    ...@@.
    .@@...
    @.....
    .@@...
    ...@@.
    ......
    @@@@@.
    ......
    ......

u+001b:
greaterequal:
    ......
    @@....
    ..@@..
    ....@.
    ..@@..
    @@....
    ......
    @@@@@.
    ......
    ......

u+001c:
pi:
    ......
    ......
    ......
    @@@@@.
    .@.@..
    .@.@..
    .@.@..
    .@.@..
    ......
    ......

u+001d:
notequal:
    ......
    ....@.
    ...@..
    @@@@@.
    ..@...
    @@@@@.
    .@....
    @.....
    ......
    ......

u+001e:
char163:
    ..@@..
    .@....
    .@....
    @@@@..
    .@....
    @.....
    @.....
    @@@@@.
    ......
    ......

u+001f:
char31:
    ......
    ......
    ......
    ......
    .@@@..
    ......
    ......
    ......
    ......
    ......

u+0020:
space:
    ......
    ......
    ......
    ......
    ......
    ......
    ......
    ......
    ......
    ......

u+0021:
char33:
    ......
    ..@...
    ..@...
    ..@...
    ..@...
    ..@...
    ......
    ..@...
    ......
    ......

u+0022:
char34:
    .@.@..
    .@.@..
    .@.@..
    ......
    ......
    ......
    ......
    ......
    ......
    ......

u+0023:
char35:
    ......
    ......
    .@.@..
    @@@@@.
    .@.@..
    .@.@..
    @@@@@.
    .@.@..
    ......
    ......

u+0024:
char36:
    ......
    ..@...
    .@@@@.
    @.@...
    .@@@..
    ..@.@.
    @@@@..
    ..@...
    ......
    ......

u+0025:
char37:
    ......
    ......
    .@...@
    @.@.@.
    .@.@..
    ..@.@.
    .@.@.@
    @...@.
    ......
    ......

u+0026:
char38:
    ......
    .@@...
    @..@..
    @..@..
    .@@...
    @..@.@
    @...@.
    .@@@.@
    ......
    ......

u+0027:
char39:
    ..@...
    ..@...
    ..@...
    ......
    ......
    ......
    ......
    ......
    ......
    ......

u+0028:
char40:
    ...@..
    ..@...
    .@....
    .@....
    .@....
    .@....
    .@....
    ..@...
    ...@..
    ......

u+0029:
char41:
    .@....
    ..@...
    ...@..
    ...@..
    ...@..
    ...@..
    ...@..
    ..@...
    .@....
    ......

u+002a:
char42:
    ......
    ......
    ..@...
    @.@.@.
    .@@@..
    @.@.@.
    ..@...
    ......
    ......
    ......

u+002b:
char43:
    ......
    ......
    ..@...
    ..@...
    @@@@@.
    ..@...
    ..@...
    ......
    ......
    ......

u+002c:
char44:
    ......
    ......
    ......
    ......
    ......
    ......
    ......
    ..@...
    .@....
    ......

u+002d:
char45:
    ......
    ......
    ......
    ......
    @@@@@.
    ......
    ......
    ......
    ......
    ......

u+002e:
char46:
    ......
    ......
    ......
    ......
    ......
    ......
    ......
    ..@...
    ......
    ......

u+002f:
char47:
    ....@.
    ....@.
    ...@..
    ...@..
    ..@...
    ..@...
    .@....
    .@....
    @.....
    ......

u+0030:
char48:
    ......
    .@@@..
    @...@.
    @...@.
    @.@.@.
    @...@.
    @...@.
    .@@@..
    ......
    ......

u+0031:
char49:
    ......
    ..@...
    .@@...
    ..@...
    ..@...
    ..@...
    ..@...
    .@@@..
    ......
    ......

u+0032:
char50:
    ......
    .@@@..
    @...@.
    ....@.
    ..@@..
    .@....
    @.....
    @@@@@.
    ......
    ......

u+0033:
char51:
    ......
    .@@@..
    @...@.
    ....@.
    ..@@..
    ....@.
    @...@.
    .@@@..
    ......
    ......

u+0034:
char52:
    ......
    ...@..
    ..@@..
    .@.@..
    @..@..
    @@@@@.
    ...@..
    ...@..
    ......
    ......

u+0035:
char53:
    ......
    @@@@@.
    @.....
    @.....
    @@@@..
    ....@.
    @...@.
    .@@@..
    ......
    ......

u+0036:
char54:
    ......
    ..@@..
    .@....
    @.....
    @@@@..
    @...@.
    @...@.
    .@@@..
    ......
    ......

u+0037:
char55:
    ......
    @@@@@.
    ....@.
    ...@..
    ...@..
    ..@...
    ..@...
    .@....
    ......
    ......

u+0038:
char56:
    ......
    .@@@..
    @...@.
    @...@.
    .@@@..
    @...@.
    @...@.
    .@@@..
    ......
    ......

u+0039:
char57:
    ......
    .@@@..
    @...@.
    @...@.
    .@@@@.
    ....@.
    ...@..
    .@@...
    ......
    ......

u+003a:
char58:
    ......
    ......
    ......
    ..@...
    ......
    ......
    ..@...
    ......
    ......
    ......

u+003b:
char59:
    ......
    ......
    ......
    ..@...
    ......
    ......
    ..@...
    .@....
    ......
    ......

u+003c:
char60:
    ......
    ......
    ....@.
    ..@@..
    @@....
    ..@@..
    ....@.
    ......
    ......
    ......

u+003d:
char61:
    ......
    ......
    ......
    @@@@@.
    ......
    @@@@@.
    ......
    ......
    ......
    ......

u+003e:
char62:
    ......
    ......
    @.....
    .@@...
    ...@@.
    .@@...
    @.....
    ......
    ......
    ......

u+003f:
char63:
    ......
    .@@@..
    @...@.
    ....@.
    ...@..
    ..@...
    ......
    ..@...
    ......
    ......

u+0040:
char64:
    ......
    .@@@@.
    @....@
    @.@@.@
    @.@@.@
    @.@@@@
    @.....
    .@@@@@
    ......
    ......

u+0041:
char65:
    ......
    ..@...
    ..@...
    .@.@..
    .@.@..
    .@@@..
    @...@.
    @...@.
    ......
    ......

u+0042:
char66:
    ......
    @@@@..
    @...@.
    @...@.
    @@@@..
    @...@.
    @...@.
    @@@@..
    ......
    ......

u+0043:
char67:
    ......
    .@@@..
    @...@.
    @.....
    @.....
    @.....
    @...@.
    .@@@..
    ......
    ......

u+0044:
char68:
    ......
    @@@...
    @..@..
    @...@.
    @...@.
    @...@.
    @..@..
    @@@...
    ......
    ......

u+0045:
char69:
    ......
    @@@@@.
    @.....
    @.....
    @@@@..
    @.....
    @.....
    @@@@@.
    ......
    ......

u+0046:
char70:
    ......
    @@@@@.
    @.....
    @.....
    @@@@..
    @.....
    @.....
    @.....
    ......
    ......

u+0047:
char71:
    ......
    .@@@..
    @...@.
    @.....
    @..@@.
    @...@.
    @...@.
    .@@@@.
    ......
    ......

u+0048:
char72:
    ......
    @...@.
    @...@.
    @...@.
    @@@@@.
    @...@.
    @...@.
    @...@.
    ......
    ......

u+0049:
char73:
    ......
    .@@@..
    ..@...
    ..@...
    ..@...
    ..@...
    ..@...
    .@@@..
    ......
    ......

u+004a:
char74:
    ......
    ..@@@.
    ....@.
    ....@.
    ....@.
    ....@.
    ....@.
    @@@@..
    ......
    ......

u+004b:
char75:
    ......
    @...@.
    @..@..
    @.@...
    @@....
    @.@...
    @..@..
    @...@.
    ......
    ......

u+004c:
char76:
    ......
    @.....
    @.....
    @.....
    @.....
    @.....
    @.....
    @@@@@.
    ......
    ......

u+004d:
char77:
    ......
    @...@.
    @...@.
    @@.@@.
    @@.@@.
    @.@.@.
    @.@.@.
    @...@.
    ......
    ......

u+004e:
char78:
    ......
    @@..@.
    @@..@.
    @.@.@.
    @.@.@.
    @.@.@.
    @..@@.
    @..@@.
    ......
    ......

u+004f:
char79:
    ......
    .@@@..
    @...@.
    @...@.
    @...@.
    @...@.
    @...@.
    .@@@..
    ......
    ......

u+0050:
char80:
    ......
    @@@@..
    @...@.
    @...@.
    @@@@..
    @.....
    @.....
    @.....
    ......
    ......

u+0051:
char81:
    ......
    .@@@..
    @...@.
    @...@.
    @...@.
    @...@.
    @..@@.
    .@@@@.
    ......
    ......

u+0052:
char82:
    ......
    @@@@..
    @...@.
    @...@.
    @@@@..
    @...@.
    @...@.
    @...@.
    ......
    ......

u+0053:
char83:
    ......
    .@@@..
    @...@.
    @.....
    .@@@..
    ....@.
    @...@.
    .@@@..
    ......
    ......

u+0054:
char84:
    ......
    @@@@@.
    ..@...
    ..@...
    ..@...
    ..@...
    ..@...
    ..@...
    ......
    ......

u+0055:
char85:
    ......
    @...@.
    @...@.
    @...@.
    @...@.
    @...@.
    @...@.
    .@@@..
    ......
    ......

u+0056:
char86:
    ......
    @...@.
    @...@.
    @...@.
    .@.@..
    .@.@..
    ..@...
    ..@...
    ......
    ......

u+0057:
char87:
    ......
    @...@.
    @.@.@.
    @.@.@.
    @.@.@.
    .@.@..
    .@.@..
    .@.@..
    ......
    ......

u+0058:
char88:
    ......
    @...@.
    @...@.
    .@.@..
    ..@...
    .@.@..
    @...@.
    @...@.
    ......
    ......

u+0059:
char89:
    ......
    @...@.
    @...@.
    @...@.
    .@@@..
    ..@...
    ..@...
    ..@...
    ......
    ......

u+005a:
char90:
    ......
    @@@@@.
    ....@.
    ...@..
    ..@...
    .@....
    @.....
    @@@@@.
    ......
    ......

u+005b:
char91:
    .@@@..
    .@....
    .@....
    .@....
    .@....
    .@....
    .@....
    .@....
    .@@@..
    ......

u+005c:
char92:
    @.....
    @.....
    .@....
    .@....
    ..@...
    ..@...
    ...@..
    ...@..
    ....@.
    ......

u+005d:
char93:
    .@@@..
    ...@..
    ...@..
    ...@..
    ...@..
    ...@..
    ...@..
    ...@..
    .@@@..
    ......

u+005e:
char94:
    ......
    ..@...
    .@.@..
    @...@.
    ......
    ......
    ......
    ......
    ......
    ......

u+005f:
char95:
    ......
    ......
    ......
    ......
    ......
    ......
    ......
    ......
    @@@@@@
    ......

u+0060:
char96:
    ......
    ..@...
    ...@..
    ......
    ......
    ......
    ......
    ......
    ......
    ......

u+0061:
char97:
    ......
    ......
    ......
    .@@@..
    ....@.
    .@@@@.
    @...@.
    .@@@@.
    ......
    ......

u+0062:
char98:
    @.....
    @.....
    @.....
    @@@@..
    @...@.
    @...@.
    @...@.
    @@@@..
    ......
    ......

u+0063:
char99:
    ......
    ......
    ......
    .@@@@.
    @.....
    @.....
    @.....
    .@@@@.
    ......
    ......

u+0064:
char100:
    ....@.
    ....@.
    ....@.
    .@@@@.
    @...@.
    @...@.
    @...@.
    .@@@@.
    ......
    ......

u+0065:
char101:
    ......
    ......
    ......
    .@@@..
    @...@.
    @@@@@.
    @.....
    .@@@@.
    ......
    ......

u+0066:
char102:
    ..@@@.
    .@....
    .@....
    @@@@..
    .@....
    .@....
    .@....
    .@....
    ......
    ......

u+0067:
char103:
    ......
    ......
    ......
    .@@@..
    @...@.
    @...@.
    @...@.
    .@@@@.
    ....@.
    .@@@..

u+0068:
char104:
    @.....
    @.....
    @.....
    @@@@..
    @...@.
    @...@.
    @...@.
    @...@.
    ......
    ......

u+0069:
char105:
    ......
    ..@...
    ......
    .@@...
    ..@...
    ..@...
    ..@...
    ..@...
    ......
    ......

u+006a:
char106:
    ......
    ...@..
    ......
    ..@@..
    ...@..
    ...@..
    ...@..
    ...@..
    ...@..
    @@@...

u+006b:
char107:
    .@....
    .@....
    .@....
    .@..@.
    .@.@..
    .@@...
    .@.@..
    .@..@.
    ......
    ......

u+006c:
char108:
    .@@...
    ..@...
    ..@...
    ..@...
    ..@...
    ..@...
    ..@...
    ..@...
    ......
    ......

u+006d:
char109:
    ......
    ......
    ......
    @@.@..
    @.@.@.
    @.@.@.
    @.@.@.
    @.@.@.
    ......
    ......

u+006e:
char110:
    ......
    ......
    ......
    @@@@..
    @...@.
    @...@.
    @...@.
    @...@.
    ......
    ......

u+006f:
char111:
    ......
    ......
    ......
    .@@@..
    @...@.
    @...@.
    @...@.
    .@@@..
    ......
    ......

u+0070:
char112:
    ......
    ......
    ......
    @@@@..
    @...@.
    @...@.
    @...@.
    @@@@..
    @.....
    @.....

u+0071:
char113:
    ......
    ......
    ......
    .@@@@.
    @...@.
    @...@.
    @...@.
    .@@@@.
    ....@.
    ....@.

u+0072:
char114:
    ......
    ......
    ......
    @.@@..
    @@..@.
    @.....
    @.....
    @.....
    ......
    ......

u+0073:
char115:
    ......
    ......
    ......
    .@@@@.
    @.....
    .@@@..
    ....@.
    @@@@..
    ......
    ......

u+0074:
char116:
    ......
    .@....
    .@....
    .@@@..
    .@....
    .@....
    .@....
    ..@@@.
    ......
    ......

u+0075:
char117:
    ......
    ......
    ......
    @...@.
    @...@.
    @...@.
    @...@.
    .@@@@.
    ......
    ......

u+0076:
char118:
    ......
    ......
    ......
    @...@.
    @...@.
    .@.@..
    .@.@..
    ..@...
    ......
    ......

u+0077:
char119:
    ......
    ......
    ......
    @...@.
    @.@.@.
    @.@.@.
    .@.@..
    .@.@..
    ......
    ......

u+0078:
char120:
    ......
    ......
    ......
    @...@.
    .@.@..
    ..@...
    .@.@..
    @...@.
    ......
    ......

u+0079:
char121:
    ......
    ......
    ......
    @...@.
    @...@.
    @...@.
    @...@.
    .@@@@.
    ....@.
    .@@@..

u+007a:
char122:
    ......
    ......
    ......
    @@@@@.
    ...@..
    ..@...
    .@....
    @@@@@.
    ......
    ......

u+007b:
char123:
    ...@..
    ..@...
    ..@...
    ..@...
    .@....
    ..@...
    ..@...
    ..@...
    ...@..
    ......

u+007c:
char124:
    ..@...
    ..@...
    ..@...
    ..@...
    ..@...
    ..@...
    ..@...
    ..@...
    ..@...
    ......

u+007d:
char125:
    .@....
    ..@...
    ..@...
    ..@...
    ...@..
    ..@...
    ..@...
    ..@...
    .@....
    ......

u+007e:
char126:
    ......
    ......
    ......
    ......
    .@@..@
    @..@@.
    ......
    ......
    ......
    ......

u+007f:
char127:
    ......
    ......
    ......
    ......
    ......
    ......
    ......
    ......
    ......
    ......

u+0080:
char128:
    ......
    ..@@@.
    .@...@
    @@@@..
    .@....
    @@@@..
    .@...@
    ..@@@.
    ......
    ......

u+0081:
char129:
    ......
    ......
    ......
    ......
    ......
    ......
    ......
    ......
    ......
    ......

u+0082:
char130:
    ......
    ......
    ......
    ......
    ......
    ......
    ......
    ...@..
    ..@...
    ......

u+0083:
char131:
    ...@@.
    ..@...
    ..@...
    .@@@..
    ..@...
    ..@...
    ..@...
    ..@...
    ..@...
    .@....

u+0084:
char132:
    ......
    ......
    ......
    ......
    ......
    ......
    ......
    .@.@..
    .@.@..
    ......

u+0085:
char133:
    ......
    ......
    ......
    ......
    ......
    ......
    ......
    @.@.@.
    ......
    ......

u+0086:
char134:
    ..@...
    ..@...
    @@@@@.
    ..@...
    ..@...
    ..@...
    ..@...
    ..@...
    ..@...
    ......

u+0087:
char135:
    ..@...
    ..@...
    @@@@@.
    ..@...
    @@@@@.
    ..@...
    ..@...
    ..@...
    ..@...
    ......

u+0088:
char136:
    ..@...
    .@.@..
    ......
    ......
    ......
    ......
    ......
    ......
    ......
    ......

u+0089:
char137:
    ......
    ......
    .@..@.
    .@.@..
    ..@...
    .@.@.@
    @..@.@
    ......
    ......
    ......

u+008a:
char138:
    .@.@..
    ..@...
    ......
    .@@@@.
    @.....
    @@@@@.
    ....@.
    @@@@..
    ......
    ......

u+008b:
char139:
    ......
    ......
    ......
    ...@..
    ..@...
    .@....
    ..@...
    ...@..
    ......
    ......

u+008c:
char140:
    ......
    .@@.@@
    @..@..
    @..@..
    @..@@.
    @..@..
    @..@..
    .@@.@@
    ......
    ......

u+008d:
char141:
    ......
    ......
    ......
    ......
    ......
    ......
    ......
    ......
    ......
    ......

u+008e:
char142:
    .@.@..
    ..@...
    ......
    @@@@@.
    ...@..
    ..@...
    .@....
    @@@@@.
    ......
    ......

u+008f:
char143:
    ......
    ......
    ......
    ......
    ......
    ......
    ......
    ......
    ......
    ......

u+0090:
char144:
    ......
    ......
    ......
    ......
    ......
    ......
    ......
    ......
    ......
    ......

u+0091:
char145:
    ..@...
    ..@...
    ...@..
    ......
    ......
    ......
    ......
    ......
    ......
    ......

u+0092:
char146:
    ...@..
    ...@..
    ..@...
    ......
    ......
    ......
    ......
    ......
    ......
    ......

u+0093:
char147:
    .@.@..
    .@.@..
    ..@.@.
    ......
    ......
    ......
    ......
    ......
    ......
    ......

u+0094:
char148:
    ..@.@.
    ..@.@.
    .@.@..
    ......
    ......
    ......
    ......
    ......
    ......
    ......

u+0095:
char149:
    ......
    ......
    ......
    ......
    ..@@..
    ..@@..
    ......
    ......
    ......
    ......

u+0096:
char150:
    ......
    ......
    ......
    ......
    ......
    @@@@@.
    ......
    ......
    ......
    ......

u+0097:
char151:
    ......
    ......
    ......
    ......
    ......
    @@@@@@
    ......
    ......
    ......
    ......

u+0098:
char152:
    ......
    ......
    ......
    ......
    ..@.@.
    .@.@..
    ......
    ......
    ......
    ......

u+0099:
char153:
    ......
    ......
    ......
    @@@@@@
    .@.@@@
    .@.@.@
    .@.@.@
    ......
    ......
    ......

u+009a:
char154:
    .@.@..
    ..@...
    ......
    .@@@@.
    @.....
    .@@@..
    ....@.
    @@@@..
    ......
    ......

u+009b:
char155:
    ......
    ......
    ......
    ..@...
    ...@..
    ....@.
    ...@..
    ..@...
    ......
    ......

u+009c:
char156:
    ......
    ......
    ......
    .@@.@@
    @..@..
    @..@@.
    @..@..
    .@@.@@
    ......
    ......

u+009d:
char157:
    ......
    ......
    ......
    ......
    ......
    ......
    ......
    ......
    ......
    ......

u+009e:
char158:
    .@.@..
    ..@...
    ......
    @@@@@.
    ...@..
    ..@...
    .@....
    @@@@@.
    ......
    ......

u+009f:
char159:
    .@.@..
    ......
    @...@.
    @...@.
    @...@.
    .@@@..
    ..@...
    ..@...
    ......
    ......

u+00a0:
char160:
    ......
    ......
    ......
    ......
    ......
    ......
    ......
    ......
    ......
    ......

u+00a1:
char161:
    ......
    ..@...
    ......
    ..@...
    ..@...
    ..@...
    ..@...
    ..@...
    ......
    ......

u+00a2:
char162:
    ......
    ......
    ...@..
    ..@@@.
    .@.@..
    .@.@..
    ..@@@.
    ...@..
    ......
    ......

u+00a3:
char163:
    ...@@.
    ..@...
    ..@...
    .@@@@.
    ..@...
    .@....
    @.....
    @@@@@.
    ......
    ......

u+00a4:
char164:
    ......
    ......
    @....@
    .@@@@.
    .@..@.
    .@..@.
    .@@@@.
    @....@
    ......
    ......

u+00a5:
char165:
    ......
    @...@.
    @...@.
    .@@@..
    ..@...
    @@@@@.
    ..@...
    ..@...
    ......
    ......

u+00a6:
char166:
    ..@...
    ..@...
    ..@...
    ..@...
    ......
    ..@...
    ..@...
    ..@...
    ..@...
    ......

u+00a7:
char167:
    ...@@.
    ..@...
    ..@...
    .@@@..
    @...@.
    @...@.
    .@@@..
    ..@...
    ..@...
    @@....

u+00a8:
char168:
    ......
    .@.@..
    ......
    ......
    ......
    ......
    ......
    ......
    ......
    ......

u+00a9:
char169:
    ......
    .@@@@.
    @....@
    @.@@.@
    @.@..@
    @.@@.@
    @....@
    .@@@@.
    ......
    ......

u+00aa:
char170:
    ..@...
    ...@..
    ..@@..
    .@.@..
    ..@@..
    ......
    ......
    ......
    ......
    ......

u+00ab:
char171:
    ......
    ......
    ......
    ..@..@
    .@..@.
    @..@..
    .@..@.
    ..@..@
    ......
    ......

u+00ac:
char172:
    ......
    ......
    ......
    ......
    .@@@@.
    ....@.
    ....@.
    ....@.
    ......
    ......

u+00ad:
char173:
    ......
    ......
    ......
    ......
    ......
    ......
    ......
    ......
    ......
    ......

u+00ae:
char174:
    ......
    .@@@@.
    @....@
    @.@@.@
    @.@..@
    @.@..@
    @....@
    .@@@@.
    ......
    ......

u+00af:
char175:
    ......
    @@@@@.
    ......
    ......
    ......
    ......
    ......
    ......
    ......
    ......

u+00b0:
char176:
    ......
    ..@...
    .@.@..
    ..@...
    ......
    ......
    ......
    ......
    ......
    ......

u+00b1:
char177:
    ......
    ......
    ..@...
    ..@...
    @@@@@.
    ..@...
    ..@...
    @@@@@.
    ......
    ......

u+00b2:
char178:
    .@@...
    ...@..
    ..@...
    .@....
    .@@@..
    ......
    ......
    ......
    ......
    ......

u+00b3:
char179:
    .@@...
    ...@..
    .@@...
    ...@..
    .@@...
    ......
    ......
    ......
    ......
    ......

u+00b4:
char180:
    ...@..
    ..@...
    ......
    ......
    ......
    ......
    ......
    ......
    ......
    ......

u+00b5:
char181:
    ......
    ......
    ......
    .@..@.
    .@..@.
    .@..@.
    .@..@.
    .@@@.@
    .@....
    @.....

u+00b6:
char182:
    ......
    .@@@@@
    @@@.@.
    @@@.@.
    .@@.@.
    ..@.@.
    ..@.@.
    ..@.@.
    ..@.@.
    ..@.@.

u+00b7:
char183:
    ......
    ......
    ......
    ......
    ..@...
    ......
    ......
    ......
    ......
    ......

u+00b8:
char184:
    ......
    ......
    ......
    ......
    ......
    ......
    ......
    ..@@..
    ...@..
    ..@...

u+00b9:
char185:
    ..@...
    .@@...
    ..@...
    ..@...
    .@@@..
    ......
    ......
    ......
    ......
    ......

u+00ba:
char186:
    ..@...
    .@.@..
    .@.@..
    ..@...
    ......
    ......
    ......
    ......
    ......
    ......

u+00bb:
char187:
    ......
    ......
    ......
    @..@..
    .@..@.
    ..@..@
    .@..@.
    @..@..
    ......
    ......

u+00bc:
char188:
    ....@.
    @...@.
    @..@..
    @..@..
    ..@..@
    ..@.@@
    .@.@@@
    .@...@
    @.....
    ......

u+00bd:
char189:
    ....@.
    @...@.
    @..@..
    @..@..
    ..@.@@
    ..@..@
    .@..@.
    .@..@@
    @.....
    ......

u+00be:
char190:
    @...@.
    .@..@.
    @@.@..
    .@.@..
    @.@..@
    ..@.@@
    .@.@@@
    .@...@
    @.....
    ......

u+00bf:
char191:
    ......
    ..@...
    ......
    ..@...
    .@....
    @.....
    @...@.
    .@@@..
    ......
    ......

u+00c0:
char192:
    .@....
    ..@...
    ......
    ..@...
    .@.@..
    .@@@..
    @...@.
    @...@.
    ......
    ......

u+00c1:
char193:
    ..@...
    .@....
    ......
    ..@...
    .@.@..
    .@@@..
    @...@.
    @...@.
    ......
    ......

u+00c2:
char194:
    ..@...
    .@.@..
    ......
    ..@...
    .@.@..
    .@@@..
    @...@.
    @...@.
    ......
    ......

u+00c3:
char195:
    ..@.@.
    .@.@..
    ......
    ..@...
    .@.@..
    .@@@..
    @...@.
    @...@.
    ......
    ......

u+00c4:
char196:
    ......
    .@.@..
    ......
    ..@...
    .@.@..
    .@@@..
    @...@.
    @...@.
    ......
    ......

u+00c5:
char197:
    ..@...
    .@.@..
    ..@...
    ..@...
    .@.@..
    .@@@..
    @...@.
    @...@.
    ......
    ......

u+00c6:
char198:
    ......
    ..@@@@
    .@.@..
    .@.@..
    .@@@@.
    @..@..
    @..@..
    @..@@@
    ......
    ......

u+00c7:
char199:
    ......
    .@@@..
    @...@.
    @.....
    @.....
    @.....
    @...@.
    .@@@..
    ..@...
    .@....

u+00c8:
char200:
    .@....
    ..@...
    ......
    @@@@@.
    @.....
    @@@@..
    @.....
    @@@@@.
    ......
    ......

u+00c9:
char201:
    ..@...
    .@....
    ......
    @@@@@.
    @.....
    @@@@..
    @.....
    @@@@@.
    ......
    ......

u+00ca:
char202:
    ..@...
    .@.@..
    ......
    @@@@@.
    @.....
    @@@@..
    @.....
    @@@@@.
    ......
    ......

u+00cb:
char203:
    ......
    .@.@..
    ......
    @@@@@.
    @.....
    @@@@..
    @.....
    @@@@@.
    ......
    ......

u+00cc:
char204:
    .@....
    ..@...
    ......
    .@@@..
    ..@...
    ..@...
    ..@...
    .@@@..
    ......
    ......

u+00cd:
char205:
    ..@...
    .@....
    ......
    .@@@..
    ..@...
    ..@...
    ..@...
    .@@@..
    ......
    ......

u+00ce:
char206:
    ..@...
    .@.@..
    ......
    .@@@..
    ..@...
    ..@...
    ..@...
    .@@@..
    ......
    ......

u+00cf:
char207:
    ......
    .@.@..
    ......
    .@@@..
    ..@...
    ..@...
    ..@...
    .@@@..
    ......
    ......

u+00d0:
char208:
    ......
    .@@@..
    .@..@.
    .@...@
    @@@@.@
    .@...@
    .@..@.
    .@@@..
    ......
    ......

u+00d1:
char209:
    ..@.@.
    .@.@..
    ......
    @@..@.
    @.@.@.
    @.@.@.
    @..@@.
    @..@@.
    ......
    ......

u+00d2:
char210:
    .@....
    ..@...
    ......
    .@@@..
    @...@.
    @...@.
    @...@.
    .@@@..
    ......
    ......

u+00d3:
char211:
    ..@...
    .@....
    ......
    .@@@..
    @...@.
    @...@.
    @...@.
    .@@@..
    ......
    ......

u+00d4:
char212:
    ..@...
    .@.@..
    ......
    .@@@..
    @...@.
    @...@.
    @...@.
    .@@@..
    ......
    ......

u+00d5:
char213:
    ..@.@.
    .@.@..
    ......
    .@@@..
    @...@.
    @...@.
    @...@.
    .@@@..
    ......
    ......

u+00d6:
char214:
    ......
    .@.@..
    ......
    .@@@..
    @...@.
    @...@.
    @...@.
    .@@@..
    ......
    ......

u+00d7:
char215:
    ......
    ......
    @...@.
    .@.@..
    ..@...
    .@.@..
    @...@.
    ......
    ......
    ......

u+00d8:
char216:
    ......
    ..@@.@
    .@..@.
    .@.@@.
    .@@.@.
    .@@.@.
    .@..@.
    @.@@..
    ......
    ......

u+00d9:
char217:
    .@....
    ..@...
    ......
    @...@.
    @...@.
    @...@.
    @...@.
    .@@@..
    ......
    ......

u+00da:
char218:
    ..@...
    .@....
    ......
    @...@.
    @...@.
    @...@.
    @...@.
    .@@@..
    ......
    ......

u+00db:
char219:
    ..@...
    .@.@..
    ......
    @...@.
    @...@.
    @...@.
    @...@.
    .@@@..
    ......
    ......

u+00dc:
char220:
    ......
    .@.@..
    ......
    @...@.
    @...@.
    @...@.
    @...@.
    .@@@..
    ......
    ......

u+00dd:
char221:
    ...@..
    ..@...
    @...@.
    @...@.
    @...@.
    .@@@..
    ..@...
    ..@...
    ......
    ......

u+00de:
char222:
    ......
    .@....
    .@....
    .@@@..
    .@..@.
    .@..@.
    .@@@..
    .@....
    .@....
    ......

u+00df:
char223:
    ......
    .@@@..
    .@..@.
    .@..@.
    .@@@..
    .@..@.
    .@..@.
    .@@@..
    @.....
    ......

u+00e0:
char224:
    .@....
    ..@...
    ......
    .@@@..
    ....@.
    .@@@@.
    @...@.
    .@@@@.
    ......
    ......

u+00e1:
char225:
    ..@...
    .@....
    ......
    .@@@..
    ....@.
    .@@@@.
    @...@.
    .@@@@.
    ......
    ......

u+00e2:
char226:
    ..@...
    .@.@..
    ......
    .@@@..
    ....@.
    .@@@@.
    @...@.
    .@@@@.
    ......
    ......

u+00e3:
char227:
    ..@.@.
    .@.@..
    ......
    .@@@..
    ....@.
    .@@@@.
    @...@.
    .@@@@.
    ......
    ......

u+00e4:
char228:
    ......
    .@.@..
    ......
    .@@@..
    ....@.
    .@@@@.
    @...@.
    .@@@@.
    ......
    ......

u+00e5:
char229:
    ..@...
    .@.@..
    ..@...
    .@@@..
    ....@.
    .@@@@.
    @...@.
    .@@@@.
    ......
    ......

u+00e6:
char230:
    ......
    ......
    ......
    .@@.@.
    ...@.@
    .@@@@.
    @..@..
    .@@.@@
    ......
    ......

u+00e7:
char231:
    ......
    ......
    ......
    .@@@@.
    @.....
    @.....
    @.....
    .@@@@.
    ..@...
    .@....

u+00e8:
char232:
    .@....
    ..@...
    ......
    .@@@..
    @...@.
    @@@@@.
    @.....
    .@@@@.
    ......
    ......

u+00e9:
char233:
    ..@...
    .@....
    ......
    .@@@..
    @...@.
    @@@@@.
    @.....
    .@@@@.
    ......
    ......

u+00ea:
char234:
    ..@...
    .@.@..
    ......
    .@@@..
    @...@.
    @@@@@.
    @.....
    .@@@@.
    ......
    ......

u+00eb:
char235:
    ......
    .@.@..
    ......
    .@@@..
    @...@.
    @@@@@.
    @.....
    .@@@@.
    ......
    ......

u+00ec:
char236:
    .@....
    ..@...
    ......
    .@@...
    ..@...
    ..@...
    ..@...
    ..@...
    ......
    ......

u+00ed:
char237:
    ..@...
    .@....
    ......
    .@@...
    ..@...
    ..@...
    ..@...
    ..@...
    ......
    ......

u+00ee:
char238:
    ..@...
    .@.@..
    ......
    .@@...
    ..@...
    ..@...
    ..@...
    ..@...
    ......
    ......

u+00ef:
char239:
    ......
    .@.@..
    ......
    .@@...
    ..@...
    ..@...
    ..@...
    ..@...
    ......
    ......

u+00f0:
char240:
    ......
    .@@.@.
    ...@..
    ....@.
    .@@@@.
    @...@.
    @...@.
    .@@@..
    ......
    ......

u+00f1:
char241:
    ..@.@.
    .@.@..
    ......
    @@@@..
    @...@.
    @...@.
    @...@.
    @...@.
    ......
    ......

u+00f2:
char242:
    .@....
    ..@...
    ......
    .@@@..
    @...@.
    @...@.
    @...@.
    .@@@..
    ......
    ......

u+00f3:
char243:
    ..@...
    .@....
    ......
    .@@@..
    @...@.
    @...@.
    @...@.
    .@@@..
    ......
    ......

u+00f4:
char244:
    ..@...
    .@.@..
    ......
    .@@@..
    @...@.
    @...@.
    @...@.
    .@@@..
    ......
    ......

u+00f5:
char245:
    .@.@..
    @.@...
    ......
    .@@@..
    @...@.
    @...@.
    @...@.
    .@@@..
    ......
    ......

u+00f6:
char246:
    ......
    .@.@..
    ......
    .@@@..
    @...@.
    @...@.
    @...@.
    .@@@..
    ......
    ......

u+00f7:
char247:
    ......
    ......
    ..@...
    ......
    @@@@@.
    ......
    ..@...
    ......
    ......
    ......

u+00f8:
char248:
    ......
    ......
    ......
    ..@@.@
    .@..@.
    .@@@@.
    .@..@.
    @.@@..
    ......
    ......

u+00f9:
char249:
    .@....
    ..@...
    ......
    @...@.
    @...@.
    @...@.
    @...@.
    .@@@@.
    ......
    ......

u+00fa:
char250:
    ..@...
    .@....
    ......
    @...@.
    @...@.
    @...@.
    @...@.
    .@@@@.
    ......
    ......

u+00fb:
char251:
    ..@...
    .@.@..
    ......
    @...@.
    @...@.
    @...@.
    @...@.
    .@@@@.
    ......
    ......

u+00fc:
char252:
    ......
    .@.@..
    ......
    @...@.
    @...@.
    @...@.
    @...@.
    .@@@@.
    ......
    ......

u+00fd:
char253:
    ..@...
    .@....
    ......
    @...@.
    @...@.
    @...@.
    @...@.
    .@@@@.
    ....@.
    .@@@..

u+00fe:
char254:
    ......
    @.....
    @.....
    @@@@..
    @...@.
    @...@.
    @...@.
    @@@@..
    @.....
    @.....

u+00ff:
char255:
    ......
    .@.@..
    ......
    @...@.
    @...@.
    @...@.
    @...@.
    .@@@@.
    ....@.
    .@@@..

u+0100:
Amacron:
    .@@@..
    ......
    .@@@..
    @...@.
    @...@.
    @@@@@.
    @...@.
    @...@.
    ......
    ......

u+0101:
amacron:
    ......
    .@@@..
    ......
    .@@@..
    ....@.
    .@@@@.
    @...@.
    .@@@@.
    ......
    ......

u+0102:
Abreve:
    @...@.
    .@@@..
    .@@@..
    @...@.
    @...@.
    @@@@@.
    @...@.
    @...@.
    ......
    ......

u+0103:
abreve:
    @...@.
    .@@@..
    ......
    .@@@..
    ....@.
    .@@@@.
    @...@.
    .@@@@.
    ......
    ......

u+0104:
Aogonek:
    ......
    ..@...
    .@.@..
    @...@.
    @...@.
    @@@@@.
    @...@.
    @...@.
    ...@..
    ...@@.

u+0105:
aogonek:
    ......
    ......
    ......
    .@@@..
    ....@.
    .@@@@.
    @...@.
    .@@@@.
    ...@..
    ...@@.

u+0106:
Cacute:
    ...@..
    ..@...
    .@@@..
    @...@.
    @.....
    @.....
    @...@.
    .@@@..
    ......
    ......

u+0107:
cacute:
    ...@..
    ..@...
    ......
    .@@@..
    @...@.
    @.....
    @...@.
    .@@@..
    ......
    ......

u+0108:
Ccircumflex:
    ..@...
    .@.@..
    .@@@..
    @...@.
    @.....
    @.....
    @...@.
    .@@@..
    ......
    ......

u+0109:
ccircumflex:
    ..@...
    .@.@..
    ......
    .@@@..
    @...@.
    @.....
    @...@.
    .@@@..
    ......
    ......

u+010a:
Cdotaccent:
    ..@...
    ......
    .@@@..
    @...@.
    @.....
    @.....
    @...@.
    .@@@..
    ......
    ......

u+010b:
cdotaccent:
    ......
    ..@...
    ......
    .@@@..
    @...@.
    @.....
    @...@.
    .@@@..
    ......
    ......

u+010c:
Ccaron:
    .@.@..
    ..@...
    .@@@..
    @...@.
    @.....
    @.....
    @...@.
    .@@@..
    ......
    ......

u+010d:
ccaron:
    .@.@..
    ..@...
    ......
    .@@@..
    @...@.
    @.....
    @...@.
    .@@@..
    ......
    ......

u+010e:
Dcaron:
    .@.@..
    ..@...
    @@@@..
    @...@.
    @...@.
    @...@.
    @...@.
    @@@@..
    ......
    ......

u+010f:
dcaron:
    .@.@..
    ..@...
    ....@.
    .@@.@.
    @..@@.
    @...@.
    @..@@.
    .@@.@.
    ......
    ......

u+0110:
Dcroat:
    ......
    .@@@@.
    .@...@
    .@...@
    @@@..@
    .@...@
    .@...@
    .@@@@.
    ......
    ......

u+0111:
dcroat:
    ......
    ...@..
    ..@@@.
    ...@..
    .@@@..
    @..@..
    @..@..
    .@@@..
    ......
    ......

u+0112:
Emacron:
    .@@@..
    ......
    @@@@@.
    @.....
    @@@@..
    @.....
    @.....
    @@@@@.
    ......
    ......

u+0113:
emacron:
    ......
    .@@@..
    ......
    .@@@..
    @...@.
    @@@@@.
    @.....
    .@@@..
    ......
    ......

u+0114:
Ebreve:
    @...@.
    .@@@..
    @@@@@.
    @.....
    @@@@..
    @.....
    @.....
    @@@@@.
    ......
    ......

u+0115:
ebreve:
    @...@.
    .@@@..
    ......
    .@@@..
    @...@.
    @@@@@.
    @.....
    .@@@..
    ......
    ......

u+0116:
Edotaccent:
    ..@...
    ......
    @@@@@.
    @.....
    @@@@..
    @.....
    @.....
    @@@@@.
    ......
    ......

u+0117:
edotaccent:
    ......
    ..@...
    ......
    .@@@..
    @...@.
    @@@@@.
    @.....
    .@@@..
    ......
    ......

u+0118:
Eogonek:
    ......
    @@@@@.
    @.....
    @.....
    @@@@..
    @.....
    @.....
    @@@@@.
    ..@...
    ..@@..

u+0119:
eogonek:
    ......
    ......
    ......
    .@@@..
    @...@.
    @@@@@.
    @.....
    .@@@..
    ..@...
    ..@@..

u+011a:
Ecaron:
    .@.@..
    ..@...
    @@@@@.
    @.....
    @@@@..
    @.....
    @.....
    @@@@@.
    ......
    ......

u+011b:
ecaron:
    .@.@..
    ..@...
    ......
    .@@@..
    @...@.
    @@@@@.
    @.....
    .@@@..
    ......
    ......

u+011c:
Gcircumflex:
    ..@...
    .@.@..
    .@@@..
    @...@.
    @.....
    @..@@.
    @...@.
    .@@@..
    ......
    ......

u+011d:
gcircumflex:
    ..@...
    .@.@..
    ......
    .@@.@.
    @..@..
    .@@...
    @.....
    .@@@..
    @...@.
    .@@@..

u+011e:
Gbreve:
    @...@.
    .@@@..
    .@@@..
    @...@.
    @.....
    @..@@.
    @...@.
    .@@@..
    ......
    ......

u+011f:
gbreve:
    @...@.
    .@@@..
    ......
    .@@.@.
    @..@..
    .@@...
    @.....
    .@@@..
    @...@.
    .@@@..

u+0120:
Gdotaccent:
    ..@...
    ......
    .@@@..
    @...@.
    @.....
    @..@@.
    @...@.
    .@@@..
    ......
    ......

u+0121:
gdotaccent:
    ......
    ..@...
    ......
    .@@.@.
    @..@..
    .@@...
    @.....
    .@@@..
    @...@.
    .@@@..

u+0122:
Gcommaaccent:
    ......
    ......
    .@@@..
    @...@.
    @.....
    @..@@.
    @...@.
    .@@@..
    ..@...
    .@....

u+0123:
gcommaaccent:
    .@....
    .@@...
    ......
    .@@.@.
    @..@..
    .@@...
    @.....
    .@@@..
    @...@.
    .@@@..

u+0124:
Hcircumflex:
    ..@...
    .@.@..
    ......
    @...@.
    @...@.
    @@@@@.
    @...@.
    @...@.
    ......
    ......

u+0125:
hcircumflex:
    ...@..
    ..@.@.
    @.....
    @.....
    @@@@..
    @...@.
    @...@.
    @...@.
    ......
    ......

u+0126:
Hbar:
    ......
    .@..@.
    @@@@@@
    .@..@.
    .@@@@.
    .@..@.
    .@..@.
    .@..@.
    ......
    ......

u+0127:
hbar:
    ......
    .@....
    @@@...
    .@.@@.
    .@@..@
    .@...@
    .@...@
    .@...@
    ......
    ......

u+0128:
Itilde:
    ..@.@.
    .@.@..
    .@@@..
    ..@...
    ..@...
    ..@...
    ..@...
    .@@@..
    ......
    ......

u+0129:
itilde:
    ..@.@.
    .@.@..
    ......
    ..@@..
    ...@..
    ...@..
    ...@..
    ..@@@.
    ......
    ......

u+012a:
Imacron:
    .@@@..
    ......
    .@@@..
    ..@...
    ..@...
    ..@...
    ..@...
    .@@@..
    ......
    ......

u+012b:
imacron:
    ......
    .@@@..
    ......
    .@@...
    ..@...
    ..@...
    ..@...
    .@@@..
    ......
    ......

u+012c:
Ibreve:
    @...@.
    .@@@..
    .@@@..
    ..@...
    ..@...
    ..@...
    ..@...
    .@@@..
    ......
    ......

u+012d:
ibreve:
    @...@.
    .@@@..
    ......
    .@@...
    ..@...
    ..@...
    ..@...
    .@@@..
    ......
    ......

u+012e:
Iogonek:
    ......
    .@@@..
    ..@...
    ..@...
    ..@...
    ..@...
    ..@...
    .@@@..
    ..@...
    ..@@..

u+012f:
iogonek:
    ......
    ..@...
    ......
    .@@...
    ..@...
    ..@...
    ..@...
    .@@@..
    ..@...
    ..@@..

u+0130:
Idotaccent:
    ..@...
    ......
    .@@@..
    ..@...
    ..@...
    ..@...
    ..@...
    .@@@..
    ......
    ......

u+0131:
dotlessi:
    ......
    ......
    ......
    .@@...
    ..@...
    ..@...
    ..@...
    .@@@..
    ......
    ......

u+0132:
IJ:
    ......
    @.@@@.
    @...@.
    @...@.
    @...@.
    @...@.
    @.@.@.
    @..@..
    ......
    ......

u+0133:
ij:
    ......
    .@..@.
    ......
    .@.@@.
    .@..@.
    .@..@.
    .@..@.
    .@..@.
    ....@.
    ..@@..

u+0134:
Jcircumflex:
    ...@..
    ..@.@.
    ..@@@.
    ...@..
    ...@..
    ...@..
    @..@..
    .@@...
    ......
    ......

u+0135:
jcircumflex:
    ...@..
    ..@.@.
    ......
    ..@@..
    ...@..
    ...@..
    ...@..
    @..@..
    @..@..
    .@@...

u+0136:
Kcommaaccent:
    ......
    @...@.
    @..@..
    @.@...
    @@....
    @.@...
    @..@..
    @...@.
    ..@...
    .@@...

u+0137:
kcommaaccent:
    ......
    @.....
    @.....
    @...@.
    @..@..
    @@@...
    @..@..
    @...@.
    ..@...
    .@@...

u+0138:
kgreenlandic:
    ......
    ......
    ......
    @...@.
    @..@..
    @@@...
    @..@..
    @...@.
    ......
    ......

u+0139:
Lacute:
    ...@..
    @.@...
    @.....
    @.....
    @.....
    @.....
    @.....
    @@@@@.
    ......
    ......

u+013a:
lacute:
    ...@..
    ..@...
    .@@...
    ..@...
    ..@...
    ..@...
    ..@...
    .@@@..
    ......
    ......

u+013b:
Lcommaaccent:
    ......
    @.....
    @.....
    @.....
    @.....
    @.....
    @.....
    @@@@@.
    ..@...
    .@@...

u+013c:
lcommaaccent:
    ......
    .@@...
    ..@...
    ..@...
    ..@...
    ..@...
    ..@...
    .@@@..
    ..@...
    .@@...

u+013d:
Lcaron:
    ..@.@.
    @..@..
    @.....
    @.....
    @.....
    @.....
    @.....
    @@@@@.
    ......
    ......

u+013e:
lcaron:
    .@.@..
    ..@...
    .@@...
    ..@...
    ..@...
    ..@...
    ..@...
    .@@@..
    ......
    ......

u+013f:
Ldot:
    ......
    @.....
    @.....
    @.@...
    @.....
    @.....
    @.....
    @@@@@.
    ......
    ......

u+0140:
ldot:
    ......
    .@@...
    ..@...
    ..@.@.
    ..@...
    ..@...
    ..@...
    .@@@..
    ......
    ......

u+0141:
Lslash:
    ......
    .@....
    .@....
    .@@...
    @@....
    .@....
    .@....
    .@@@@@
    ......
    ......

u+0142:
lslash:
    ......
    .@@...
    ..@...
    ..@@..
    .@@...
    ..@...
    ..@...
    .@@@..
    ......
    ......

u+0143:
Nacute:
    ...@..
    ..@...
    @...@.
    @@..@.
    @.@.@.
    @..@@.
    @...@.
    @...@.
    ......
    ......

u+0144:
nacute:
    ...@..
    ..@...
    ......
    @.@@..
    @@..@.
    @...@.
    @...@.
    @...@.
    ......
    ......

u+0145:
Ncommaaccent:
    ......
    @...@.
    @...@.
    @@..@.
    @.@.@.
    @..@@.
    @...@.
    @...@.
    ..@...
    .@....

u+0146:
ncommaaccent:
    ......
    ......
    ......
    @.@@..
    @@..@.
    @...@.
    @...@.
    @...@.
    ..@...
    .@....

u+0147:
Ncaron:
    .@.@..
    ..@...
    @...@.
    @@..@.
    @.@.@.
    @..@@.
    @...@.
    @...@.
    ......
    ......

u+0148:
ncaron:
    .@.@..
    ..@...
    ......
    @.@@..
    @@..@.
    @...@.
    @...@.
    @...@.
    ......
    ......

u+0149:
napostrophe:
    @@....
    .@....
    @.....
    ..@.@.
    ..@@.@
    ..@..@
    ..@..@
    ..@..@
    ......
    ......

u+014a:
Eng:
    ......
    @...@.
    @...@.
    @@..@.
    @.@.@.
    @..@@.
    @...@.
    @...@.
    ....@.
    ..@@..

u+014b:
eng:
    ......
    ......
    ......
    @.@@..
    @@..@.
    @...@.
    @...@.
    @...@.
    ....@.
    ..@@..

u+014c:
Omacron:
    .@@@..
    ......
    .@@@..
    @...@.
    @...@.
    @...@.
    @...@.
    .@@@..
    ......
    ......

u+014d:
omacron:
    ......
    .@@@..
    ......
    .@@@..
    @...@.
    @...@.
    @...@.
    .@@@..
    ......
    ......

u+014e:
Obreve:
    @...@.
    .@@@..
    .@@@..
    @...@.
    @...@.
    @...@.
    @...@.
    .@@@..
    ......
    ......

u+014f:
obreve:
    @...@.
    .@@@..
    ......
    .@@@..
    @...@.
    @...@.
    @...@.
    .@@@..
    ......
    ......

u+0150:
Ohungarumlaut:
    .@..@.
    @..@..
    .@@@..
    @...@.
    @...@.
    @...@.
    @...@.
    .@@@..
    ......
    ......

u+0151:
ohungarumlaut:
    .@..@.
    @..@..
    ......
    .@@@..
    @...@.
    @...@.
    @...@.
    .@@@..
    ......
    ......

u+0152:
OE:
    ......
    .@@@@.
    @.@...
    @.@...
    @.@@..
    @.@...
    @.@...
    .@@@@.
    ......
    ......

u+0153:
oe:
    ......
    ......
    ......
    .@@@..
    @.@.@.
    @.@@..
    @.@...
    .@@@@.
    ......
    ......

u+0154:
Racute:
    ...@..
    ..@...
    @@@@..
    @...@.
    @@@@..
    @.@...
    @..@..
    @...@.
    ......
    ......

u+0155:
racute:
    ...@..
    ..@...
    ......
    @.@@..
    @@..@.
    @.....
    @.....
    @.....
    ......
    ......

u+0156:
Rcommaaccent:
    ......
    .@@@@.
    .@...@
    .@...@
    .@@@@.
    .@.@..
    .@..@.
    .@...@
    ..@...
    @@....

u+0157:
rcommaaccent:
    ......
    ......
    ......
    .@.@@.
    .@@..@
    .@....
    .@....
    .@....
    ..@...
    @@....

u+0158:
Rcaron:
    .@.@..
    ..@...
    @@@@..
    @...@.
    @@@@..
    @.@...
    @..@..
    @...@.
    ......
    ......

u+0159:
rcaron:
    .@.@..
    ..@...
    ......
    @.@@..
    @@..@.
    @.....
    @.....
    @.....
    ......
    ......

u+015a:
Sacute:
    ...@..
    ..@...
    .@@@@.
    @.....
    .@@@..
    ....@.
    @...@.
    .@@@..
    ......
    ......

u+015b:
sacute:
    ...@..
    ..@...
    ......
    .@@@..
    @.....
    .@@@..
    ....@.
    @@@@..
    ......
    ......

u+015c:
Scircumflex:
    ..@...
    .@.@..
    .@@@@.
    @.....
    .@@@..
    ....@.
    @...@.
    .@@@..
    ......
    ......

u+015d:
scircumflex:
    ..@...
    .@.@..
    ......
    .@@@..
    @.....
    .@@@..
    ....@.
    @@@@..
    ......
    ......

u+015e:
Scedilla:
    ......
    .@@@..
    @...@.
    @.....
    .@@@..
    ....@.
    @...@.
    .@@@..
    ..@...
    .@....

u+015f:
scedilla:
    ......
    ......
    ......
    .@@@..
    @.....
    .@@@..
    ....@.
    @@@@..
    ..@...
    .@....

u+0160:
Scaron:
    .@.@..
    ..@...
    .@@@..
    @.....
    .@@@..
    ....@.
    @...@.
    .@@@..
    ......
    ......

u+0161:
scaron:
    .@.@..
    ..@...
    ......
    .@@@..
    @.....
    .@@@..
    ....@.
    @@@@..
    ......
    ......

u+0162:
Tcommaaccent:
    ......
    @@@@@.
    ..@...
    ..@...
    ..@...
    ..@...
    ..@...
    ..@...
    ...@..
    .@@...

u+0163:
tcommaaccent:
    ......
    .@....
    .@....
    @@@@..
    .@....
    .@....
    .@..@.
    ..@@..
    ...@..
    .@@...

u+0164:
Tcaron:
    .@.@..
    ..@...
    @@@@@.
    ..@...
    ..@...
    ..@...
    ..@...
    ..@...
    ......
    ......

u+0165:
tcaron:
    @.@...
    .@....
    .@....
    @@@@..
    .@....
    .@....
    .@..@.
    ..@@..
    ......
    ......

u+0166:
Tbar:
    ......
    @@@@@.
    ..@...
    ..@...
    .@@@..
    ..@...
    ..@...
    ..@...
    ......
    ......

u+0167:
tbar:
    ......
    .@....
    @@@@..
    .@....
    @@@@..
    .@....
    .@..@.
    ..@@..
    ......
    ......

u+0168:
Utilde:
    ..@.@.
    .@.@..
    ......
    @...@.
    @...@.
    @...@.
    @...@.
    .@@@..
    ......
    ......

u+0169:
utilde:
    ..@.@.
    .@.@..
    ......
    @...@.
    @...@.
    @...@.
    @..@@.
    .@@.@.
    ......
    ......

u+016a:
Umacron:
    .@@@..
    ......
    @...@.
    @...@.
    @...@.
    @...@.
    @...@.
    .@@@..
    ......
    ......

u+016b:
umacron:
    ......
    .@@@..
    ......
    @...@.
    @...@.
    @...@.
    @..@@.
    .@@.@.
    ......
    ......

u+016c:
Ubreve:
    @...@.
    .@@@..
    ......
    @...@.
    @...@.
    @...@.
    @...@.
    .@@@..
    ......
    ......

u+016d:
ubreve:
    @...@.
    .@@@..
    ......
    @...@.
    @...@.
    @...@.
    @..@@.
    .@@.@.
    ......
    ......

u+016e:
Uring:
    ..@...
    .@.@..
    @.@.@.
    @...@.
    @...@.
    @...@.
    @...@.
    .@@@..
    ......
    ......

u+016f:
uring:
    ..@...
    .@.@..
    ..@...
    @...@.
    @...@.
    @...@.
    @..@@.
    .@@.@.
    ......
    ......

u+0170:
Uhungarumlaut:
    .@..@.
    @..@..
    ......
    @...@.
    @...@.
    @...@.
    @...@.
    .@@@..
    ......
    ......

u+0171:
uhungarumlaut:
    .@..@.
    @..@..
    ......
    @...@.
    @...@.
    @...@.
    @..@@.
    .@@.@.
    ......
    ......

u+0172:
Uogonek:
    ......
    @...@.
    @...@.
    @...@.
    @...@.
    @...@.
    @...@.
    .@@@..
    ..@...
    ..@@..

u+0173:
uogonek:
    ......
    ......
    ......
    @...@.
    @...@.
    @...@.
    @...@.
    .@@@..
    ...@..
    ...@@.

u+0174:
Wcircumflex:
    ..@...
    .@.@..
    ......
    @...@.
    @.@.@.
    @.@.@.
    @@.@@.
    @...@.
    ......
    ......

u+0175:
wcircumflex:
    ..@...
    .@.@..
    ......
    @...@.
    @...@.
    @.@.@.
    @.@.@.
    .@.@..
    ......
    ......

u+0176:
Ycircumflex:
    ..@...
    .@.@..
    ......
    @...@.
    .@.@..
    ..@...
    ..@...
    ..@...
    ......
    ......

u+0177:
ycircumflex:
    ..@...
    .@.@..
    ......
    @...@.
    @...@.
    @..@@.
    .@@.@.
    ....@.
    @...@.
    .@@@..

u+0178:
Ydieresis:
    .@.@..
    ......
    @...@.
    .@.@..
    ..@...
    ..@...
    ..@...
    ..@...
    ......
    ......

u+0179:
Zacute:
    ...@..
    ..@...
    @@@@@.
    ...@..
    ..@...
    .@....
    @.....
    @@@@@.
    ......
    ......

u+017a:
zacute:
    ...@..
    ..@...
    ......
    @@@@@.
    ...@..
    ..@...
    .@....
    @@@@@.
    ......
    ......

u+017b:
Zdotaccent:
    ..@...
    ......
    @@@@@.
    ...@..
    ..@...
    .@....
    @.....
    @@@@@.
    ......
    ......

u+017c:
zdotaccent:
    ......
    ..@...
    ......
    @@@@@.
    ...@..
    ..@...
    .@....
    @@@@@.
    ......
    ......

u+017d:
Zcaron:
    .@.@..
    ..@...
    @@@@@.
    ...@..
    ..@...
    .@....
    @.....
    @@@@@.
    ......
    ......

u+017e:
zcaron:
    .@.@..
    ..@...
    ......
    @@@@@.
    ...@..
    ..@...
    .@....
    @@@@@.
    ......
    ......

u+017f:
longs:
    ......
    ..@@..
    .@..@.
    .@....
    @@....
    .@....
    .@....
    .@....
    ......
    ......

u+018f:
uni018F:
    ......
    .@@@..
    @...@.
    ....@.
    @@@@@.
    @...@.
    @...@.
    .@@@..
    ......
    ......

u+0192:
florin:
    ......
    ...@..
    ..@.@.
    ..@...
    .@@@..
    ..@...
    ..@...
    @.@...
    .@....
    ......

u+01a0:
Ohorn:
    ......
    .@@..@
    @..@.@
    @..@@.
    @..@..
    @..@..
    @..@..
    .@@...
    ......
    ......

u+01a1:
ohorn:
    ......
    ......
    ......
    .@@..@
    @..@@.
    @..@..
    @..@..
    .@@...
    ......
    ......

u+01af:
Uhorn:
    ......
    @..@.@
    @..@.@
    @..@@.
    @..@..
    @..@..
    @..@..
    .@@...
    ......
    ......

u+01b0:
uhorn:
    ......
    ......
    ......
    @..@.@
    @..@@.
    @..@..
    @.@@..
    .@.@..
    ......
    ......

u+01b5:
uni01B5:
    ......
    @@@@@.
    ....@.
    ...@..
    @@@@@.
    .@....
    @.....
    @@@@@.
    ......
    ......

u+01b6:
uni01B6:
    ......
    ......
    ......
    @@@@@.
    ...@..
    @@@@@.
    .@....
    @@@@@.
    ......
    ......

u+01d1:
uni01D1:
    .@.@..
    ..@...
    .@@@..
    @...@.
    @...@.
    @...@.
    @...@.
    .@@@..
    ......
    ......

u+01d2:
uni01D2:
    .@.@..
    ..@...
    ......
    .@@@..
    @...@.
    @...@.
    @...@.
    .@@@..
    ......
    ......

u+01e6:
Gcaron:
    .@.@..
    ..@...
    .@@@..
    @...@.
    @.....
    @..@@.
    @...@.
    .@@@..
    ......
    ......

u+01e7:
gcaron:
    .@.@..
    ..@...
    ......
    .@@.@.
    @..@..
    .@@...
    @.....
    .@@@..
    @...@.
    .@@@..

u+01fa:
Aringacute:
    ...@..
    ..@...
    ..@...
    .@.@..
    .@@@..
    @...@.
    @@@@@.
    @...@.
    ......
    ......

u+01fb:
aringacute:
    ...@..
    ..@...
    ..@...
    .@.@..
    ..@...
    .@@@@.
    @...@.
    .@@@@.
    ......
    ......

u+01fc:
AEacute:
    ....@.
    ...@..
    .@@@@@
    @..@..
    @..@@@
    @@@@..
    @..@..
    @..@@@
    ......
    ......

u+01fd:
aeacute:
    ....@.
    ...@..
    ......
    .@@@@.
    ...@.@
    .@@@@@
    @..@..
    .@@@@@
    ......
    ......

u+01fe:
Oslashacute:
    ...@..
    ..@...
    .@@@..
    @..@@.
    @.@.@.
    @.@.@.
    @@..@.
    .@@@..
    ......
    ......

u+01ff:
oslashacute:
    ...@..
    ..@...
    ......
    .@@@@.
    @..@@.
    @.@.@.
    @@..@.
    @@@@..
    ......
    ......

u+0218:
Scommaaccent:
    ......
    .@@@..
    @...@.
    @.....
    .@@@..
    ....@.
    @...@.
    .@@@..
    ..@...
    .@....

u+0219:
scommaaccent:
    ......
    ......
    ......
    .@@@..
    @.....
    .@@@..
    ....@.
    @@@@..
    ..@...
    .@....

u+021a:
Tcommaaccent:
    ......
    @@@@@.
    ..@...
    ..@...
    ..@...
    ..@...
    ..@...
    ..@...
    ...@..
    ..@...

u+021b:
tcommaaccent:
    ......
    .@....
    .@....
    @@@@..
    .@....
    .@....
    .@..@.
    ..@@..
    ...@..
    ..@...

u+0259:
uni0259:
    ......
    ......
    ......
    .@@@..
    ....@.
    @@@@@.
    @...@.
    .@@@..
    ......
    ......

u+02bc:
afii57929:
    ......
    ..@@..
    ...@..
    ..@...
    ......
    ......
    ......
    ......
    ......
    ......

u+02bd:
afii64937:
    ......
    ..@@..
    ..@...
    ...@..
    ......
    ......
    ......
    ......
    ......
    ......

u+02c6:
circumflex:
    ..@...
    .@.@..
    ......
    ......
    ......
    ......
    ......
    ......
    ......
    ......

u+02c7:
caron:
    .@.@..
    ..@...
    ......
    ......
    ......
    ......
    ......
    ......
    ......
    ......

u+02c9:
macron:
    .@@@..
    ......
    ......
    ......
    ......
    ......
    ......
    ......
    ......
    ......

u+02d6:
uni02D6:
    ..@...
    .@@@..
    ..@...
    ......
    ......
    ......
    ......
    ......
    ......
    ......

u+02d8:
breve:
    @...@.
    .@@@..
    ......
    ......
    ......
    ......
    ......
    ......
    ......
    ......

u+02d9:
dotaccent:
    ..@...
    ......
    ......
    ......
    ......
    ......
    ......
    ......
    ......
    ......

u+02da:
ring:
    ..@...
    .@.@..
    ..@...
    ......
    ......
    ......
    ......
    ......
    ......
    ......

u+02db:
ogonek:
    ......
    ......
    ......
    ......
    ......
    ......
    ......
    ......
    ..@...
    ..@@..

u+02dc:
tilde:
    ..@.@.
    .@.@..
    ......
    ......
    ......
    ......
    ......
    ......
    ......
    ......

u+02dd:
hungarumlaut:
    .@..@.
    @..@..
    ......
    ......
    ......
    ......
    ......
    ......
    ......
    ......

u+0300:
gravecomb:
    ..@...
    ...@..
    ......
    ......
    ......
    ......
    ......
    ......
    ......
    ......

u+0301:
acutecomb:
    ...@..
    ..@...
    ......
    ......
    ......
    ......
    ......
    ......
    ......
    ......

u+0302:
uni0302:
    ..@...
    .@.@..
    ......
    ......
    ......
    ......
    ......
    ......
    ......
    ......

u+0303:
tildecomb:
    ..@.@.
    .@.@..
    ......
    ......
    ......
    ......
    ......
    ......
    ......
    ......

u+0304:
uni0304:
    .@@@..
    ......
    ......
    ......
    ......
    ......
    ......
    ......
    ......
    ......

u+0305:
uni0305:
    @@@@@.
    ......
    ......
    ......
    ......
    ......
    ......
    ......
    ......
    ......

u+0306:
uni0306:
    @...@.
    .@@@..
    ......
    ......
    ......
    ......
    ......
    ......
    ......
    ......

u+0307:
uni0307:
    ..@...
    ......
    ......
    ......
    ......
    ......
    ......
    ......
    ......
    ......

u+0308:
uni0308:
    .@.@..
    ......
    ......
    ......
    ......
    ......
    ......
    ......
    ......
    ......

u+0309:
hookabovecomb:
    .@@...
    ...@..
    ..@...
    ......
    ......
    ......
    ......
    ......
    ......
    ......

u+030a:
uni030A:
    ..@...
    .@.@..
    ..@...
    ......
    ......
    ......
    ......
    ......
    ......
    ......

u+030b:
uni030B:
    .@..@.
    @..@..
    ......
    ......
    ......
    ......
    ......
    ......
    ......
    ......

u+030c:
uni030C:
    .@.@..
    ..@...
    ......
    ......
    ......
    ......
    ......
    ......
    ......
    ......

u+030d:
uni030D:
    ..@...
    ..@...
    ......
    ......
    ......
    ......
    ......
    ......
    ......
    ......

u+030e:
uni030E:
    .@.@..
    .@.@..
    ......
    ......
    ......
    ......
    ......
    ......
    ......
    ......

u+030f:
uni030F:
    @..@..
    .@..@.
    ......
    ......
    ......
    ......
    ......
    ......
    ......
    ......

u+0310:
uni0310:
    @.@.@.
    .@@@..
    ......
    ......
    ......
    ......
    ......
    ......
    ......
    ......

u+0311:
uni0311:
    .@@@..
    @...@.
    ......
    ......
    ......
    ......
    ......
    ......
    ......
    ......

u+0323:
dotbelowcomb:
    ......
    ......
    ......
    ......
    ......
    ......
    ......
    ......
    ......
    ..@...

u+0324:
uni0324:
    ......
    ......
    ......
    ......
    ......
    ......
    ......
    ......
    ......
    .@.@..

u+0338:
uni0338:
    ......
    ......
    ...@..
    ...@..
    ..@...
    ..@...
    .@....
    .@....
    ......
    ......

u+0340:
uni0340:
    ..@...
    ...@..
    ......
    ......
    ......
    ......
    ......
    ......
    ......
    ......

u+0341:
uni0341:
    ...@..
    ..@...
    ......
    ......
    ......
    ......
    ......
    ......
    ......
    ......

u+0374:
uni0374:
    ......
    ...@..
    ..@...
    ......
    ......
    ......
    ......
    ......
    ......
    ......

u+0375:
uni0375:
    ......
    ......
    ......
    ......
    ......
    ......
    ......
    ......
    ...@..
    ..@...

u+037a:
uni037A:
    ......
    ......
    ......
    ......
    ......
    ......
    ......
    ......
    ..@...
    ..@@..

u+037e:
uni037E:
    ......
    ......
    ..@...
    .@@@..
    ..@...
    ......
    ..@@..
    ..@...
    .@....
    ......

u+0384:
tonos:
    ......
    ...@..
    ..@...
    ......
    ......
    ......
    ......
    ......
    ......
    ......

u+0385:
dieresistonos:
    ......
    ...@..
    @.@.@.
    ......
    ......
    ......
    ......
    ......
    ......
    ......

u+0386:
Alphatonos:
    ......
    .@.@@.
    @.@..@
    ..@..@
    ..@..@
    ..@@@@
    ..@..@
    ..@..@
    ......
    ......

u+0387:
anoteleia:
    ......
    ......
    ......
    ..@...
    ......
    ......
    ......
    ......
    ......
    ......

u+0388:
Epsilontonos:
    ......
    .@@@@@
    @.@...
    ..@...
    ..@@@.
    ..@...
    ..@...
    ..@@@@
    ......
    ......

u+0389:
Etatonos:
    ......
    .@@..@
    @.@..@
    ..@..@
    ..@@@@
    ..@..@
    ..@..@
    ..@..@
    ......
    ......

u+038a:
Iotatonos:
    ......
    .@.@@@
    @...@.
    ....@.
    ....@.
    ....@.
    ....@.
    ...@@@
    ......
    ......

u+038c:
Omicrontonos:
    ......
    .@.@@.
    @.@..@
    ..@..@
    ..@..@
    ..@..@
    ..@..@
    ...@@.
    ......
    ......

u+038e:
Upsilontonos:
    ......
    .@.@.@
    @..@.@
    ...@.@
    ....@.
    ....@.
    ....@.
    ....@.
    ......
    ......

u+038f:
Omegatonos:
    ......
    .@.@@.
    @.@..@
    ..@..@
    ..@..@
    ..@..@
    ...@@.
    ..@@@@
    ......
    ......

u+0390:
iotadieresistonos:
    ...@..
    @.@.@.
    ......
    ..@...
    ..@...
    ..@...
    ..@.@.
    ...@..
    ......
    ......

u+0391:
Alpha:
    ......
    ..@...
    .@.@..
    @...@.
    @...@.
    @@@@@.
    @...@.
    @...@.
    ......
    ......

u+0392:
Beta:
    ......
    @@@@..
    @...@.
    @...@.
    @@@@..
    @...@.
    @...@.
    @@@@..
    ......
    ......

u+0393:
Gamma:
    ......
    @@@@@.
    @.....
    @.....
    @.....
    @.....
    @.....
    @.....
    ......
    ......

u+0394:
Delta:
    ......
    ..@...
    .@.@..
    .@.@..
    .@.@..
    @...@.
    @...@.
    @@@@@.
    ......
    ......

u+0395:
Epsilon:
    ......
    @@@@@.
    @.....
    @.....
    @@@@..
    @.....
    @.....
    @@@@@.
    ......
    ......

u+0396:
Zeta:
    ......
    @@@@@.
    ....@.
    ...@..
    ..@...
    .@....
    @.....
    @@@@@.
    ......
    ......

u+0397:
Eta:
    ......
    @...@.
    @...@.
    @...@.
    @@@@@.
    @...@.
    @...@.
    @...@.
    ......
    ......

u+0398:
Theta:
    ......
    .@@@..
    @...@.
    @...@.
    @@@@@.
    @...@.
    @...@.
    .@@@..
    ......
    ......

u+0399:
Iota:
    ......
    .@@@..
    ..@...
    ..@...
    ..@...
    ..@...
    ..@...
    .@@@..
    ......
    ......

u+039a:
Kappa:
    ......
    @...@.
    @..@..
    @.@...
    @@....
    @.@...
    @..@..
    @...@.
    ......
    ......

u+039b:
Lambda:
    ......
    ..@...
    .@.@..
    .@.@..
    .@.@..
    @...@.
    @...@.
    @...@.
    ......
    ......

u+039c:
Mu:
    ......
    @...@.
    @...@.
    @@.@@.
    @.@.@.
    @...@.
    @...@.
    @...@.
    ......
    ......

u+039d:
Nu:
    ......
    @...@.
    @...@.
    @@..@.
    @.@.@.
    @..@@.
    @...@.
    @...@.
    ......
    ......

u+039e:
Xi:
    ......
    @@@@@.
    ......
    ......
    .@@@..
    ......
    ......
    @@@@@.
    ......
    ......

u+039f:
Omicron:
    ......
    .@@@..
    @...@.
    @...@.
    @...@.
    @...@.
    @...@.
    .@@@..
    ......
    ......

u+03a0:
Pi:
    ......
    @@@@@.
    @...@.
    @...@.
    @...@.
    @...@.
    @...@.
    @...@.
    ......
    ......

u+03a1:
Rho:
    ......
    @@@@..
    @...@.
    @...@.
    @@@@..
    @.....
    @.....
    @.....
    ......
    ......

u+03a3:
Sigma:
    ......
    @@@@@.
    @.....
    .@....
    ..@...
    .@....
    @.....
    @@@@@.
    ......
    ......

u+03a4:
Tau:
    ......
    @@@@@.
    ..@...
    ..@...
    ..@...
    ..@...
    ..@...
    ..@...
    ......
    ......

u+03a5:
Upsilon:
    ......
    @...@.
    @...@.
    .@.@..
    ..@...
    ..@...
    ..@...
    ..@...
    ......
    ......

u+03a6:
Phi:
    ......
    ..@...
    .@@@..
    @.@.@.
    @.@.@.
    @.@.@.
    .@@@..
    ..@...
    ......
    ......

u+03a7:
Chi:
    ......
    @...@.
    @...@.
    .@.@..
    ..@...
    .@.@..
    @...@.
    @...@.
    ......
    ......

u+03a8:
Psi:
    ......
    @.@.@.
    @.@.@.
    @.@.@.
    @.@.@.
    .@@@..
    ..@...
    ..@...
    ......
    ......

u+03a9:
Omega:
    ......
    .@@@..
    @...@.
    @...@.
    @...@.
    @...@.
    .@.@..
    @@.@@.
    ......
    ......

u+03aa:
Iotadieresis:
    .@.@..
    ......
    .@@@..
    ..@...
    ..@...
    ..@...
    ..@...
    .@@@..
    ......
    ......

u+03ab:
Upsilondieresis:
    @...@.
    ......
    @...@.
    @...@.
    .@.@..
    ..@...
    ..@...
    ..@...
    ......
    ......

u+03ac:
alphatonos:
    ...@..
    ..@...
    ......
    .@@@..
    @...@.
    @...@.
    @..@@.
    .@@.@.
    ......
    ......

u+03ad:
epsilontonos:
    ...@..
    ..@...
    ......
    .@@@..
    @...@.
    .@@...
    @...@.
    .@@@..
    ......
    ......

u+03ae:
etatonos:
    ...@..
    ..@...
    ......
    @.@@..
    @@..@.
    @...@.
    @...@.
    @...@.
    ....@.
    ....@.

u+03af:
iotatonos:
    ..@...
    .@....
    ......
    .@....
    .@....
    .@....
    .@.@..
    ..@...
    ......
    ......

u+03b0:
upsilondieresistonos:
    ...@..
    @.@.@.
    ......
    @...@.
    @...@.
    @...@.
    @...@.
    .@@@..
    ......
    ......

u+03b1:
alpha:
    ......
    ......
    ......
    .@@@..
    @...@.
    @...@.
    @..@@.
    .@@.@.
    ......
    ......

u+03b2:
beta:
    ......
    .@@...
    @..@..
    @..@..
    @@@@..
    @...@.
    @...@.
    @@@@..
    @.....
    @.....

u+03b3:
gamma:
    ......
    ......
    ......
    @...@.
    @...@.
    .@.@..
    .@.@..
    ..@...
    ..@...
    ..@...

u+03b4:
delta:
    ......
    .@@@..
    @...@.
    .@@...
    @..@..
    @...@.
    @...@.
    .@@@..
    ......
    ......

u+03b5:
epsilon:
    ......
    ......
    ......
    .@@@..
    @...@.
    .@@...
    @...@.
    .@@@..
    ......
    ......

u+03b6:
zeta:
    ......
    @@@@@.
    ..@...
    .@....
    .@....
    @.....
    @.....
    .@@@..
    ....@.
    ..@@..

u+03b7:
eta:
    ......
    ......
    ......
    @.@@..
    @@..@.
    @...@.
    @...@.
    @...@.
    ....@.
    ....@.

u+03b8:
theta:
    ......
    ..@@..
    .@..@.
    .@..@.
    .@@@@.
    .@..@.
    .@..@.
    ..@@..
    ......
    ......

u+03b9:
iota:
    ......
    ......
    ......
    .@....
    .@....
    .@....
    .@.@..
    ..@...
    ......
    ......

u+03ba:
kappa:
    ......
    ......
    ......
    @...@.
    @..@..
    @@@...
    @..@..
    @...@.
    ......
    ......

u+03bb:
lambda:
    ......
    .@@@..
    @...@.
    .@@.@.
    @..@@.
    @...@.
    @...@.
    @...@.
    ......
    ......

u+03bc:
mu:
    ......
    ......
    ......
    @...@.
    @...@.
    @...@.
    @@.@@.
    @.@.@.
    @.....
    @.....

u+03bd:
nu:
    ......
    ......
    ......
    @...@.
    @...@.
    .@.@..
    .@.@..
    ..@...
    ......
    ......

u+03be:
xi:
    ......
    @@@@@.
    ..@...
    .@....
    ..@@..
    .@....
    @.....
    .@@@..
    ....@.
    ..@@..

u+03bf:
omicron:
    ......
    ......
    ......
    .@@@..
    @...@.
    @...@.
    @...@.
    .@@@..
    ......
    ......

u+03c0:
pi:
    ......
    ......
    ......
    @@@@@.
    .@.@..
    .@.@..
    .@.@..
    .@.@..
    ......
    ......

u+03c1:
rho:
    ......
    ......
    ......
    .@@@..
    @...@.
    @...@.
    @...@.
    @@@@..
    @.....
    @.....

u+03c2:
sigma1:
    ......
    ......
    ......
    .@@@..
    @...@.
    @.....
    @.....
    .@@@..
    ....@.
    ..@@..

u+03c3:
sigma:
    ......
    ......
    ......
    .@@@@.
    @..@..
    @...@.
    @...@.
    .@@@..
    ......
    ......

u+03c4:
tau:
    ......
    ......
    ......
    @@@@@.
    ..@...
    ..@...
    ..@...
    ...@..
    ......
    ......

u+03c5:
upsilon:
    ......
    ......
    ......
    @...@.
    @...@.
    @...@.
    @...@.
    .@@@..
    ......
    ......

u+03c6:
phi:
    ......
    ......
    ......
    .@.@..
    @.@.@.
    @.@.@.
    @.@.@.
    .@@@..
    ..@...
    ..@...

u+03c7:
chi:
    ......
    ......
    ......
    @...@.
    .@.@..
    .@.@..
    ..@...
    .@.@..
    .@.@..
    @...@.

u+03c8:
psi:
    ......
    ......
    ......
    @.@.@.
    @.@.@.
    @.@.@.
    @.@.@.
    .@@@..
    ..@...
    ..@...

u+03c9:
omega:
    ......
    ......
    ......
    @...@.
    @.@.@.
    @.@.@.
    @.@.@.
    .@.@..
    ......
    ......

u+03ca:
iotadieresis:
    ......
    @...@.
    ......
    ..@...
    ..@...
    ..@...
    ..@.@.
    ...@..
    ......
    ......

u+03cb:
upsilondieresis:
    ......
    @...@.
    ......
    @...@.
    @...@.
    @...@.
    @...@.
    .@@@..
    ......
    ......

u+03cc:
omicrontonos:
    ...@..
    ..@...
    ......
    .@@@..
    @...@.
    @...@.
    @...@.
    .@@@..
    ......
    ......

u+03cd:
upsilontonos:
    ...@..
    ..@...
    ......
    @...@.
    @...@.
    @...@.
    @...@.
    .@@@..
    ......
    ......

u+03ce:
omegatonos:
    ...@..
    ..@...
    ......
    @...@.
    @.@.@.
    @.@.@.
    @.@.@.
    .@.@..
    ......
    ......

u+03d0:
uni03D0:
    ......
    .@@...
    @..@..
    @.@...
    @@@@..
    @...@.
    @...@.
    .@@@..
    ......
    ......

u+03d1:
theta1:
    ......
    .@@...
    @..@..
    .@@@@.
    ...@..
    @..@..
    @..@..
    .@@...
    ......
    ......

u+03d2:
Upsilon1:
    ......
    .@.@..
    @.@.@.
    ..@...
    ..@...
    ..@...
    ..@...
    ..@...
    ......
    ......

u+03d3:
uni03D3:
    ......
    .@.@..
    @.@.@.
    ..@...
    @.@...
    @.@...
    ..@...
    ..@...
    ......
    ......

u+03d4:
uni03D4:
    @...@.
    ......
    .@.@..
    @.@.@.
    ..@...
    ..@...
    ..@...
    ..@...
    ......
    ......

u+03d5:
phi1:
    ......
    ..@...
    ..@...
    .@@@..
    @.@.@.
    @.@.@.
    @.@.@.
    .@@@..
    ..@...
    ..@...

u+03d6:
omega1:
    ......
    ......
    ......
    @@@@@.
    @...@.
    @.@.@.
    @.@.@.
    .@.@..
    ......
    ......

u+03d7:
uni03D7:
    ......
    ...@..
    ..@...
    @...@.
    .@.@..
    .@@...
    .@@...
    @..@@.
    ....@.
    .@@@..

u+03da:
uni03DA:
    ......
    ..@@..
    .@..@.
    @.....
    @.....
    @.....
    .@@@..
    ....@.
    ...@..
    ......

u+03db:
uni03DB:
    ......
    ......
    ....@.
    .@@@..
    @.....
    @.....
    @.....
    .@@@..
    ....@.
    ..@@..

u+03dc:
uni03DC:
    ......
    @@@@@.
    @.....
    @.....
    @@@@..
    @.....
    @.....
    @.....
    ......
    ......

u+03dd:
uni03DD:
    ......
    ......
    ......
    .@@@@.
    .@....
    .@....
    .@@@..
    .@....
    .@....
    .@....

u+03de:
uni03DE:
    ......
    @.....
    @...@.
    @..@@.
    @.@.@.
    @@..@.
    @...@.
    ....@.
    ......
    ......

u+03df:
uni03DF:
    ......
    ..@...
    .@....
    .@....
    @.....
    @@@@@.
    ....@.
    ...@..
    ...@..
    ..@...

u+03e0:
uni03E0:
    ......
    ..@...
    .@.@..
    .@.@..
    .@.@..
    @..@@.
    @.@.@.
    @.@.@.
    ......
    ......

u+03e1:
uni03E1:
    ......
    @@....
    ..@...
    ...@..
    ..@@..
    .@.@@.
    ..@.@.
    ....@.
    ....@.
    ....@.

u+03f0:
uni03F0:
    ......
    ......
    ......
    @...@.
    .@.@..
    .@@...
    .@@...
    @..@@.
    ......
    ......

u+03f1:
uni03F1:
    ......
    ......
    ......
    .@@@..
    @...@.
    @...@.
    @...@.
    @@@@..
    @.....
    .@@@..

u+03f2:
uni03F2:
    ......
    ......
    ......
    .@@@..
    @...@.
    @.....
    @...@.
    .@@@..
    ......
    ......

u+03f3:
uni03F3:
    ......
    ....@.
    ......
    ...@@.
    ....@.
    ....@.
    ....@.
    .@..@.
    .@..@.
    ..@@..

u+03f4:
uni03F4:
    ......
    .@@@..
    @...@.
    @...@.
    @@@@@.
    @...@.
    @...@.
    .@@@..
    ......
    ......

u+03f5:
uni03F5:
    ......
    ......
    ......
    ..@@@.
    .@....
    .@@@..
    .@....
    ..@@@.
    ......
    ......

u+0401:
afii10023:
    .@.@..
    ......
    @@@@@.
    @.....
    @@@@..
    @.....
    @.....
    @@@@@.
    ......
    ......

u+0402:
afii10051:
    ......
    @@@...
    .@....
    .@....
    .@@@..
    .@..@.
    .@..@.
    .@..@.
    ....@.
    ..@@..

u+0403:
afii10052:
    ...@..
    ..@...
    @@@@@.
    @.....
    @.....
    @.....
    @.....
    @.....
    ......
    ......

u+0404:
afii10053:
    ......
    .@@@..
    @...@.
    @.....
    @@@...
    @.....
    @...@.
    .@@@..
    ......
    ......

u+0405:
afii10054:
    ......
    .@@@..
    @...@.
    @.....
    .@@@..
    ....@.
    @...@.
    .@@@..
    ......
    ......

u+0406:
afii10055:
    ......
    .@@@..
    ..@...
    ..@...
    ..@...
    ..@...
    ..@...
    .@@@..
    ......
    ......

u+0407:
afii10056:
    .@.@..
    ......
    .@@@..
    ..@...
    ..@...
    ..@...
    ..@...
    .@@@..
    ......
    ......

u+0408:
afii10057:
    ......
    ..@@@.
    ....@.
    ....@.
    ....@.
    ....@.
    @...@.
    .@@@..
    ......
    ......

u+0409:
afii10058:
    ......
    ..@@..
    .@.@..
    .@.@..
    @..@@.
    @..@.@
    @..@.@
    @..@@.
    ......
    ......

u+040a:
afii10059:
    ......
    @.@...
    @.@...
    @.@...
    @@@@..
    @.@.@.
    @.@.@.
    @.@@..
    ......
    ......

u+040b:
afii10060:
    ......
    @@@...
    .@....
    .@....
    .@@@..
    .@..@.
    .@..@.
    .@..@.
    ......
    ......

u+040c:
afii10061:
    ...@..
    ..@...
    @...@.
    @..@..
    @@@...
    @..@..
    @...@.
    @...@.
    ......
    ......

u+040e:
afii10062:
    .@.@..
    ..@...
    @...@.
    @...@.
    .@.@..
    ..@...
    .@....
    @.....
    ......
    ......

u+040f:
afii10145:
    ......
    @...@.
    @...@.
    @...@.
    @...@.
    @...@.
    @...@.
    @@@@@.
    ..@...
    ......

u+0410:
afii10017:
    ......
    ..@...
    .@.@..
    @...@.
    @...@.
    @@@@@.
    @...@.
    @...@.
    ......
    ......

u+0411:
afii10018:
    ......
    @@@@..
    @.....
    @.....
    @@@@..
    @...@.
    @...@.
    @@@@..
    ......
    ......

u+0412:
afii10019:
    ......
    @@@@..
    @...@.
    @...@.
    @@@@..
    @...@.
    @...@.
    @@@@..
    ......
    ......

u+0413:
afii10020:
    ......
    @@@@@.
    @.....
    @.....
    @.....
    @.....
    @.....
    @.....
    ......
    ......

u+0414:
afii10021:
    ......
    ...@@.
    ..@.@.
    ..@.@.
    .@..@.
    .@..@.
    .@..@.
    @@@@@.
    @...@.
    ......

u+0415:
afii10022:
    ......
    @@@@@.
    @.....
    @.....
    @@@@..
    @.....
    @.....
    @@@@@.
    ......
    ......

u+0416:
afii10024:
    ......
    @.@.@.
    @.@.@.
    @.@.@.
    .@@@..
    @.@.@.
    @.@.@.
    @.@.@.
    ......
    ......

u+0417:
afii10025:
    ......
    .@@@..
    @...@.
    ....@.
    ..@@..
    ....@.
    @...@.
    .@@@..
    ......
    ......

u+0418:
afii10026:
    ......
    @...@.
    @...@.
    @..@@.
    @.@.@.
    @@..@.
    @...@.
    @...@.
    ......
    ......

u+0419:
afii10027:
    .@.@..
    ..@...
    @...@.
    @..@@.
    @.@.@.
    @@..@.
    @...@.
    @...@.
    ......
    ......

u+041a:
afii10028:
    ......
    @...@.
    @..@..
    @.@...
    @@....
    @.@...
    @..@..
    @...@.
    ......
    ......

u+041b:
afii10029:
    ......
    ..@@@.
    .@..@.
    .@..@.
    .@..@.
    .@..@.
    .@..@.
    @...@.
    ......
    ......

u+041c:
afii10030:
    ......
    @...@.
    @...@.
    @@.@@.
    @.@.@.
    @...@.
    @...@.
    @...@.
    ......
    ......

u+041d:
afii10031:
    ......
    @...@.
    @...@.
    @...@.
    @@@@@.
    @...@.
    @...@.
    @...@.
    ......
    ......

u+041e:
afii10032:
    ......
    .@@@..
    @...@.
    @...@.
    @...@.
    @...@.
    @...@.
    .@@@..
    ......
    ......

u+041f:
afii10033:
    ......
    @@@@@.
    @...@.
    @...@.
    @...@.
    @...@.
    @...@.
    @...@.
    ......
    ......

u+0420:
afii10034:
    ......
    @@@@..
    @...@.
    @...@.
    @@@@..
    @.....
    @.....
    @.....
    ......
    ......

u+0421:
afii10035:
    ......
    .@@@..
    @...@.
    @.....
    @.....
    @.....
    @...@.
    .@@@..
    ......
    ......

u+0422:
afii10036:
    ......
    @@@@@.
    ..@...
    ..@...
    ..@...
    ..@...
    ..@...
    ..@...
    ......
    ......

u+0423:
afii10037:
    ......
    @...@.
    @...@.
    @...@.
    .@.@..
    ..@...
    .@....
    @.....
    ......
    ......

u+0424:
afii10038:
    ......
    ..@...
    .@@@..
    @.@.@.
    @.@.@.
    @.@.@.
    .@@@..
    ..@...
    ......
    ......

u+0425:
afii10039:
    ......
    @...@.
    @...@.
    .@.@..
    ..@...
    .@.@..
    @...@.
    @...@.
    ......
    ......

u+0426:
afii10040:
    ......
    @..@..
    @..@..
    @..@..
    @..@..
    @..@..
    @..@..
    @@@@@.
    ....@.
    ....@.

u+0427:
afii10041:
    ......
    @...@.
    @...@.
    @...@.
    .@@@@.
    ....@.
    ....@.
    ....@.
    ......
    ......

u+0428:
afii10042:
    ......
    @.@.@.
    @.@.@.
    @.@.@.
    @.@.@.
    @.@.@.
    @.@.@.
    @@@@@.
    ......
    ......

u+0429:
afii10043:
    ......
    @.@.@.
    @.@.@.
    @.@.@.
    @.@.@.
    @.@.@.
    @.@.@.
    @@@@@.
    ....@.
    ....@.

u+042a:
afii10044:
    ......
    @@....
    .@....
    .@....
    .@@@..
    .@..@.
    .@..@.
    .@@@..
    ......
    ......

u+042b:
afii10045:
    ......
    @...@.
    @...@.
    @...@.
    @@@.@.
    @..@@.
    @..@@.
    @@@.@.
    ......
    ......

u+042c:
afii10046:
    ......
    .@....
    .@....
    .@....
    .@@@..
    .@..@.
    .@..@.
    .@@@..
    ......
    ......

u+042d:
afii10047:
    ......
    .@@@..
    @...@.
    ....@.
    ..@@@.
    ....@.
    @...@.
    .@@@..
    ......
    ......

u+042e:
afii10048:
    ......
    @..@..
    @.@.@.
    @.@.@.
    @@@.@.
    @.@.@.
    @.@.@.
    @..@..
    ......
    ......

u+042f:
afii10049:
    ......
    .@@@@.
    @...@.
    @...@.
    .@@@@.
    ..@.@.
    .@..@.
    @...@.
    ......
    ......

u+0430:
afii10065:
    ......
    ......
    ......
    .@@@..
    ....@.
    .@@@@.
    @...@.
    .@@@@.
    ......
    ......

u+0431:
afii10066:
    ......
    .@@@@.
    @.....
    .@@@..
    @...@.
    @...@.
    @...@.
    .@@@..
    ......
    ......

u+0432:
afii10067:
    ......
    ......
    ......
    @@@@..
    @...@.
    @@@@..
    @...@.
    @@@@..
    ......
    ......

u+0433:
afii10068:
    ......
    ......
    ......
    .@@@@.
    .@....
    .@....
    .@....
    .@....
    ......
    ......

u+0434:
afii10069:
    ......
    ......
    ......
    ..@@..
    .@.@..
    .@.@..
    .@.@..
    @@@@@.
    @...@.
    ......

u+0435:
afii10070:
    ......
    ......
    ......
    .@@@..
    @...@.
    @@@@@.
    @.....
    .@@@..
    ......
    ......

u+0436:
afii10072:
    ......
    ......
    ......
    @.@.@.
    @.@.@.
    .@@@..
    @.@.@.
    @.@.@.
    ......
    ......

u+0437:
afii10073:
    ......
    ......
    ......
    .@@@..
    @...@.
    ..@@..
    @...@.
    .@@@..
    ......
    ......

u+0438:
afii10074:
    ......
    ......
    ......
    @...@.
    @..@@.
    @.@.@.
    @@..@.
    @...@.
    ......
    ......

u+0439:
afii10075:
    ......
    .@.@..
    ..@...
    @...@.
    @..@@.
    @.@.@.
    @@..@.
    @...@.
    ......
    ......

u+043a:
afii10076:
    ......
    ......
    ......
    @...@.
    @..@..
    @@@...
    @..@..
    @...@.
    ......
    ......

u+043b:
afii10077:
    ......
    ......
    ......
    ..@@@.
    .@..@.
    .@..@.
    .@..@.
    @...@.
    ......
    ......

u+043c:
afii10078:
    ......
    ......
    ......
    @...@.
    @@.@@.
    @.@.@.
    @...@.
    @...@.
    ......
    ......

u+043d:
afii10079:
    ......
    ......
    ......
    @...@.
    @...@.
    @@@@@.
    @...@.
    @...@.
    ......
    ......

u+043e:
afii10080:
    ......
    ......
    ......
    .@@@..
    @...@.
    @...@.
    @...@.
    .@@@..
    ......
    ......

u+043f:
afii10081:
    ......
    ......
    ......
    @@@@@.
    @...@.
    @...@.
    @...@.
    @...@.
    ......
    ......

u+0440:
afii10082:
    ......
    ......
    ......
    @.@@..
    @@..@.
    @...@.
    @@..@.
    @.@@..
    @.....
    @.....

u+0441:
afii10083:
    ......
    ......
    ......
    .@@@..
    @...@.
    @.....
    @...@.
    .@@@..
    ......
    ......

u+0442:
afii10084:
    ......
    ......
    ......
    @@@@@.
    ..@...
    ..@...
    ..@...
    ..@...
    ......
    ......

u+0443:
afii10085:
    ......
    ......
    ......
    @...@.
    @...@.
    @...@.
    .@@@@.
    ....@.
    @...@.
    .@@@..

u+0444:
afii10086:
    ......
    ..@...
    ..@...
    .@@@..
    @.@.@.
    @.@.@.
    @.@.@.
    .@@@..
    ..@...
    ..@...

u+0445:
afii10087:
    ......
    ......
    ......
    @...@.
    .@.@..
    ..@...
    .@.@..
    @...@.
    ......
    ......

u+0446:
afii10088:
    ......
    ......
    ......
    @..@..
    @..@..
    @..@..
    @..@..
    @@@@@.
    ....@.
    ....@.

u+0447:
afii10089:
    ......
    ......
    ......
    @...@.
    @...@.
    .@@@@.
    ....@.
    ....@.
    ......
    ......

u+0448:
afii10090:
    ......
    ......
    ......
    @.@.@.
    @.@.@.
    @.@.@.
    @.@.@.
    @@@@@.
    ......
    ......

u+0449:
afii10091:
    ......
    ......
    ......
    @.@.@.
    @.@.@.
    @.@.@.
    @.@.@.
    @@@@@.
    ....@.
    ....@.

u+044a:
afii10092:
    ......
    ......
    ......
    @@....
    .@....
    .@@@..
    .@..@.
    .@@@..
    ......
    ......

u+044b:
afii10093:
    ......
    ......
    ......
    @...@.
    @...@.
    @@@.@.
    @..@@.
    @@@.@.
    ......
    ......

u+044c:
afii10094:
    ......
    ......
    ......
    .@....
    .@....
    .@@@..
    .@..@.
    .@@@..
    ......
    ......

u+044d:
afii10095:
    ......
    ......
    ......
    .@@@..
    @...@.
    ..@@@.
    @...@.
    .@@@..
    ......
    ......

u+044e:
afii10096:
    ......
    ......
    ......
    @..@..
    @.@.@.
    @@@.@.
    @.@.@.
    @..@..
    ......
    ......

u+044f:
afii10097:
    ......
    ......
    ......
    .@@@@.
    @...@.
    .@@@@.
    @...@.
    @...@.
    ......
    ......

u+0451:
afii10071:
    ......
    .@.@..
    ......
    .@@@..
    @...@.
    @@@@@.
    @.....
    .@@@..
    ......
    ......

u+0452:
afii10099:
    ......
    .@....
    @@@@..
    .@....
    .@@@..
    .@..@.
    .@..@.
    .@..@.
    ....@.
    ..@@..

u+0453:
afii10100:
    ...@..
    ..@...
    ......
    .@@@@.
    .@....
    .@....
    .@....
    .@....
    ......
    ......

u+0454:
afii10101:
    ......
    ......
    ......
    ..@@..
    .@..@.
    .@@...
    .@..@.
    ..@@..
    ......
    ......

u+0455:
afii10102:
    ......
    ......
    ......
    .@@@..
    @.....
    .@@@..
    ....@.
    @@@@..
    ......
    ......

u+0456:
afii10103:
    ......
    ..@...
    ......
    .@@...
    ..@...
    ..@...
    ..@...
    .@@@..
    ......
    ......

u+0457:
afii10104:
    ......
    .@.@..
    ......
    .@@...
    ..@...
    ..@...
    ..@...
    .@@@..
    ......
    ......

u+0458:
afii10105:
    ......
    ....@.
    ......
    ...@@.
    ....@.
    ....@.
    ....@.
    .@..@.
    .@..@.
    ..@@..

u+0459:
afii10106:
    ......
    ......
    ......
    ..@@..
    .@.@..
    @..@@.
    @..@.@
    @..@@.
    ......
    ......

u+045a:
afii10107:
    ......
    ......
    ......
    @.@...
    @.@...
    @@@@..
    @.@.@.
    @.@@..
    ......
    ......

u+045b:
afii10108:
    ......
    .@....
    @@@@..
    .@....
    .@@@..
    .@..@.
    .@..@.
    .@..@.
    ......
    ......

u+045c:
afii10109:
    ......
    ...@..
    ..@...
    @...@.
    @..@..
    @@@...
    @..@..
    @...@.
    ......
    ......

u+045e:
afii10110:
    ......
    .@.@..
    ..@...
    @...@.
    @...@.
    @..@@.
    .@@.@.
    ....@.
    @...@.
    .@@@..

u+045f:
afii10193:
    ......
    ......
    ......
    @...@.
    @...@.
    @...@.
    @...@.
    @@@@@.
    ..@...
    ......

u+0462:
afii10146:
    ......
    .@....
    @@@@..
    .@....
    .@@@..
    .@..@.
    .@..@.
    .@@@..
    ......
    ......

u+0463:
afii10194:
    ......
    .@....
    .@....
    @@@@..
    .@....
    .@@@..
    .@..@.
    .@@@..
    ......
    ......

u+0470:
uni0470:
    ......
    @.@.@.
    @.@.@.
    @.@.@.
    .@@@..
    ..@...
    ..@...
    ..@...
    ......
    ......

u+0471:
uni0471:
    ......
    ......
    ......
    @.@.@.
    @.@.@.
    .@@@..
    ..@...
    ..@...
    ......
    ......

u+0472:
afii10147:
    ......
    .@@@..
    @...@.
    @...@.
    @@@@@.
    @...@.
    @...@.
    .@@@..
    ......
    ......

u+0473:
afii10195:
    ......
    ......
    ......
    .@@@..
    @...@.
    @@@@@.
    @...@.
    .@@@..
    ......
    ......

u+0474:
afii10148:
    ......
    @...@.
    @..@..
    @..@..
    .@.@..
    .@.@..
    .@.@..
    ..@...
    ......
    ......

u+0475:
afii10196:
    ......
    ......
    ......
    @...@.
    @..@..
    .@.@..
    .@.@..
    ..@...
    ......
    ......

u+0476:
uni0476:
    .@.@..
    ..@.@.
    @.....
    @...@.
    .@.@..
    .@.@..
    .@.@..
    ..@...
    ......
    ......

u+0477:
uni0477:
    ......
    .@.@..
    ..@.@.
    @.....
    @...@.
    .@.@..
    .@.@..
    ..@...
    ......
    ......

u+0490:
afii10050:
    ....@.
    @@@@@.
    @.....
    @.....
    @.....
    @.....
    @.....
    @.....
    ......
    ......

u+0491:
afii10098:
    ......
    ......
    ....@.
    .@@@@.
    .@....
    .@....
    .@....
    .@....
    ......
    ......

u+0492:
uni0492:
    ......
    .@@@@.
    .@....
    .@....
    @@@@..
    .@....
    .@....
    .@....
    ......
    ......

u+0493:
uni0493:
    ......
    ......
    ......
    .@@@@.
    .@....
    @@@@..
    .@....
    .@....
    ......
    ......

u+0496:
uni0496:
    ......
    @.@.@.
    @.@.@.
    @.@.@.
    .@@@..
    @.@.@.
    @.@.@.
    @.@.@.
    .....@
    .....@

u+0497:
uni0497:
    ......
    ......
    ......
    @.@.@.
    @.@.@.
    .@@@..
    @.@.@.
    @.@.@.
    .....@
    .....@

u+049a:
uni049A:
    ......
    @...@.
    @..@..
    @.@...
    @@....
    @.@...
    @..@..
    @...@.
    .....@
    .....@

u+049b:
uni049B:
    ......
    ......
    ......
    @...@.
    @..@..
    @@@...
    @..@..
    @...@.
    .....@
    .....@

u+04ae:
uni04AE:
    ......
    @...@.
    @...@.
    .@.@..
    ..@...
    ..@...
    ..@...
    ..@...
    ......
    ......

u+04af:
uni04AF:
    ......
    ......
    ......
    @...@.
    @...@.
    .@.@..
    ..@...
    ..@...
    ..@...
    ..@...

u+04b0:
uni04B0:
    ......
    @...@.
    @...@.
    .@.@..
    @@@@@.
    ..@...
    ..@...
    ..@...
    ......
    ......

u+04b1:
uni04B1:
    ......
    ......
    ......
    @...@.
    @...@.
    .@.@..
    @@@@@.
    ..@...
    ..@...
    ..@...

u+04b2:
uni04B2:
    ......
    @...@.
    @...@.
    .@.@..
    ..@...
    .@.@..
    @...@.
    @...@.
    .....@
    .....@

u+04b3:
uni04B3:
    ......
    ......
    ......
    @...@.
    .@.@..
    ..@...
    .@.@..
    @...@.
    .....@
    .....@

u+04ba:
uni04BA:
    ......
    @.....
    @.....
    @@@@..
    @...@.
    @...@.
    @...@.
    @...@.
    ......
    ......

u+04bb:
uni04BB:
    ......
    .@....
    .@....
    .@.@..
    .@@.@.
    .@..@.
    .@..@.
    .@..@.
    ......
    ......

u+04d8:
uni04D8:
    ......
    .@@@..
    @...@.
    ....@.
    @@@@@.
    @...@.
    @...@.
    .@@@..
    ......
    ......

u+04d9:
afii10846:
    ......
    ......
    ......
    .@@@..
    ....@.
    @@@@@.
    @...@.
    .@@@..
    ......
    ......

u+04e2:
uni04E2:
    .@@@..
    ......
    .@@@..
    ..@...
    ..@...
    ..@...
    ..@...
    .@@@..
    ......
    ......

u+04e3:
uni04E3:
    ......
    .@@@..
    ......
    .@@...
    ..@...
    ..@...
    ..@...
    .@@@..
    ......
    ......

u+04e8:
uni04E8:
    ......
    .@@@..
    @...@.
    @...@.
    @@@@@.
    @...@.
    @...@.
    .@@@..
    ......
    ......

u+04e9:
uni04E9:
    ......
    ......
    ......
    .@@@..
    @...@.
    @@@@@.
    @...@.
    .@@@..
    ......
    ......

u+04ee:
uni04EE:
    .@@@..
    ......
    @...@.
    @...@.
    @...@.
    @...@.
    @...@.
    .@@@..
    ......
    ......

u+04ef:
uni04EF:
    ......
    .@@@..
    ......
    @...@.
    @...@.
    @...@.
    @..@@.
    .@@.@.
    ......
    ......

u+05d0:
afii57664:
    ......
    ......
    ......
    @..@..
    .@..@.
    @.@@..
    @..@..
    @@..@.
    ......
    ......

u+05d1:
afii57665:
    ......
    ......
    ......
    @@@@..
    ....@.
    ....@.
    ....@.
    @@@@@.
    ......
    ......

u+05d2:
afii57666:
    ......
    ......
    ......
    ..@@..
    ...@..
    ...@..
    ...@..
    .@@.@.
    ......
    ......

u+05d3:
afii57667:
    ......
    ......
    ......
    @@@@@.
    ...@..
    ...@..
    ...@..
    ...@..
    ......
    ......

u+05d4:
afii57668:
    ......
    ......
    ......
    @@@@@.
    ...@..
    @..@..
    @..@..
    @..@..
    ......
    ......

u+05d5:
afii57669:
    ......
    ......
    ......
    ..@@..
    ...@..
    ...@..
    ...@..
    ...@..
    ......
    ......

u+05d6:
afii57670:
    ......
    ......
    .@....
    ..@@..
    ..@...
    ..@...
    ..@...
    ..@...
    ......
    ......

u+05d7:
afii57671:
    ......
    ......
    ......
    @@@@@.
    @...@.
    @...@.
    @...@.
    @...@.
    ......
    ......

u+05d8:
afii57672:
    ......
    ......
    ......
    @.@@@.
    @.@.@.
    @...@.
    @...@.
    @@@@@.
    ......
    ......

u+05d9:
afii57673:
    ......
    ......
    ......
    ..@@..
    ...@..
    ......
    ......
    ......
    ......
    ......

u+05da:
afii57674:
    ......
    ......
    ......
    .@@@..
    ...@..
    ...@..
    ...@..
    ...@..
    ...@..
    ...@..

u+05db:
afii57675:
    ......
    ......
    ......
    @@@@..
    ....@.
    ....@.
    ....@.
    @@@@..
    ......
    ......

u+05dc:
afii57676:
    ......
    @.....
    @.....
    @@@@..
    ....@.
    ....@.
    ...@..
    ..@...
    ......
    ......

u+05dd:
afii57677:
    ......
    ......
    ......
    @@@@..
    @...@.
    @...@.
    @...@.
    @@@@@.
    ......
    ......

u+05de:
afii57678:
    ......
    ......
    ......
    @.@@..
    .@..@.
    @...@.
    @...@.
    @.@@@.
    ......
    ......

u+05df:
afii57679:
    ......
    ......
    ......
    ..@@..
    ...@..
    ...@..
    ...@..
    ...@..
    ...@..
    ...@..

u+05e0:
afii57680:
    ......
    ......
    ......
    ..@@..
    ...@..
    ...@..
    ...@..
    ..@@..
    ......
    ......

u+05e1:
afii57681:
    ......
    ......
    ......
    @@@@@.
    @...@.
    @...@.
    @...@.
    .@@@..
    ......
    ......

u+05e2:
afii57682:
    ......
    ......
    ......
    .@..@.
    .@..@.
    .@..@.
    .@..@.
    @@@@..
    ......
    ......

u+05e3:
afii57683:
    ......
    ......
    ......
    .@@@@.
    .@..@.
    .@@.@.
    ....@.
    ....@.
    ....@.
    ....@.

u+05e4:
afii57684:
    ......
    ......
    ......
    @@@...
    @..@..
    @@..@.
    ....@.
    @@@@@.
    ......
    ......

u+05e5:
afii57685:
    ......
    ......
    ......
    .@.@..
    .@.@..
    .@.@..
    .@@...
    .@....
    .@....
    .@....

u+05e6:
afii57686:
    ......
    ......
    ......
    @...@.
    .@.@..
    ..@...
    ...@..
    @@@@@.
    ......
    ......

u+05e7:
afii57687:
    ......
    ......
    ......
    @@@@@.
    ....@.
    @...@.
    @...@.
    @@@@..
    @.....
    @.....

u+05e8:
afii57688:
    ......
    ......
    ......
    @@@@..
    ....@.
    ....@.
    ....@.
    ....@.
    ......
    ......

u+05e9:
afii57689:
    ......
    ......
    ......
    @.@.@.
    @.@.@.
    @@..@.
    @...@.
    @@@@..
    ......
    ......

u+05ea:
afii57690:
    ......
    ......
    ......
    @@@@@.
    @...@.
    @...@.
    .@..@.
    @...@.
    ......
    ......

u+16a0:
uni16A0:
    ......
    ..@.@.
    ..@@..
    ..@.@.
    ..@@..
    ..@...
    ..@...
    ..@...
    ......
    ......

u+16a2:
uni16A2:
    ......
    .@@...
    .@.@..
    .@.@..
    .@..@.
    .@..@.
    .@..@.
    .@..@.
    ......
    ......

u+16a3:
uni16A3:
    ......
    ..@...
    .@.@..
    @...@.
    @...@.
    @.@.@.
    @.@.@.
    @.@.@.
    ......
    ......

u+16a6:
uni16A6:
    ......
    ..@...
    ..@...
    ..@@..
    ..@.@.
    ..@@..
    ..@...
    ..@...
    ......
    ......

u+16a9:
uni16A9:
    ......
    @...@.
    @@.@..
    @.@.@.
    @@.@..
    @.@...
    @.....
    @.....
    ......
    ......

u+16aa:
uni16AA:
    ......
    @...@.
    @@.@..
    @.@...
    @@....
    @.@...
    @.....
    @.....
    ......
    ......

u+16ab:
uni16AB:
    ......
    ..@...
    ..@@..
    ..@.@.
    ..@@..
    ..@.@.
    ..@...
    ..@...
    ......
    ......

u+16ac:
uni16AC:
    ......
    ......
    ......
    ......
    ......
    ......
    ......
    ......
    ......
    ......

u+16b1:
uni16B1:
    ......
    .@@...
    .@.@..
    .@..@.
    .@.@..
    .@@...
    .@.@..
    .@....
    ......
    ......

u+16b3:
uni16B3:
    ......
    .@....
    .@....
    .@@...
    .@.@..
    .@.@..
    .@..@.
    .@..@.
    ......
    ......

u+16b7:
uni16B7:
    ......
    @...@.
    .@.@..
    .@.@..
    ..@...
    .@.@..
    .@.@..
    @...@.
    ......
    ......

u+16b8:
uni16B8:
    ......
    @...@.
    .@@@..
    .@.@..
    @.@.@.
    .@.@..
    .@@@..
    @...@.
    ......
    ......

u+16b9:
uni16B9:
    ......
    .@@...
    .@.@..
    .@..@.
    .@.@..
    .@@...
    .@....
    .@....
    ......
    ......

u+16bb:
uni16BB:
    ......
    @...@.
    @...@.
    @@..@.
    @.@.@.
    @@.@@.
    @.@.@.
    @..@@.
    ......
    ......

u+16be:
uni16BE:
    ......
    ..@...
    @.@...
    .@@...
    ..@@..
    ..@.@.
    ..@...
    ..@...
    ......
    ......

u+16c1:
uni16C1:
    ......
    ..@...
    ..@...
    ..@...
    ..@...
    ..@...
    ..@...
    ..@...
    ......
    ......

u+16c4:
uni16C4:
    ......
    ..@...
    ..@...
    .@@@..
    @.@.@.
    .@@@..
    ..@...
    ..@...
    ......
    ......

u+16c7:
uni16C7:
    ......
    ..@...
    ..@@..
    ..@.@.
    ..@...
    @.@...
    .@@...
    ..@...
    ......
    ......

u+16c8:
uni16C8:
    ......
    @...@.
    @@.@..
    @.@...
    @.....
    @.@...
    @@.@..
    @...@.
    ......
    ......

u+16c9:
uni16C9:
    ......
    @.@.@.
    @.@.@.
    @.@.@.
    .@@@..
    ..@...
    ..@...
    ..@...
    ......
    ......

u+16cb:
uni16CB:
    ......
    @.....
    @...@.
    @..@@.
    @.@.@.
    @@..@.
    @...@.
    ....@.
    ......
    ......

u+16cf:
uni16CF:
    ......
    ..@...
    .@@@..
    @.@.@.
    ..@...
    ..@...
    ..@...
    ..@...
    ......
    ......

u+16d2:
uni16D2:
    ......
    .@@...
    .@.@..
    .@..@.
    .@@@..
    .@..@.
    .@.@..
    .@@...
    ......
    ......

u+16d6:
uni16D6:
    ......
    @...@.
    @@.@@.
    @.@.@.
    @...@.
    @...@.
    @...@.
    @...@.
    ......
    ......

u+16d7:
uni16D7:
    ......
    @...@.
    @@.@@.
    @.@.@.
    @@.@@.
    @...@.
    @...@.
    @...@.
    ......
    ......

u+16da:
uni16DA:
    ......
    ..@...
    ..@@..
    ..@.@.
    ..@...
    ..@...
    ..@...
    ..@...
    ......
    ......

u+16dd:
uni16DD:
    ......
    @...@.
    .@.@..
    ..@...
    .@.@..
    ..@...
    .@.@..
    @...@.
    ......
    ......

u+16de:
uni16DE:
    ......
    @...@.
    @...@.
    @@.@@.
    @.@.@.
    @@.@@.
    @...@.
    @...@.
    ......
    ......

u+16df:
uni16DF:
    ......
    ..@...
    .@.@..
    @...@.
    .@.@..
    ..@...
    .@.@..
    @...@.
    ......
    ......

u+16e0:
uni16E0:
    ......
    @.@.@.
    .@@@..
    ..@...
    ..@...
    ..@...
    ..@...
    ..@...
    ......
    ......

u+16e1:
uni16E1:
    ......
    @.@.@.
    .@@@..
    ..@...
    .@@@..
    @.@.@.
    ..@...
    ..@...
    ......
    ......

u+16e2:
uni16E2:
    ......
    ..@.@.
    ..@@..
    ..@...
    ..@...
    ..@...
    .@@...
    @.@...
    ......
    ......

u+16e3:
uni16E3:
    ......
    ..@...
    ..@...
    ..@...
    .@@@..
    @.@.@.
    @.@.@.
    @.@.@.
    ......
    ......

u+16e5:
uni16E5:
    ......
    @...@.
    @@.@@.
    @.@.@.
    @...@.
    @.@.@.
    @@.@@.
    @...@.
    ......
    ......

u+16eb:
uni16EB:
    ......
    ......
    ......
    ......
    ..@...
    ......
    ......
    ......
    ......
    ......

u+16ec:
uni16EC:
    ......
    ......
    ......
    ..@...
    ......
    ..@...
    ......
    ......
    ......
    ......

u+16ed:
uni16ED:
    ......
    ......
    ......
    .@.@..
    ..@...
    .@.@..
    ......
    ......
    ......
    ......

u+1e02:
uni1E02:
    ..@...
    ......
    @@@@..
    @...@.
    @@@@..
    @...@.
    @...@.
    @@@@..
    ......
    ......

u+1e03:
uni1E03:
    ......
    @..@..
    @.....
    @.@@..
    @@..@.
    @...@.
    @@..@.
    @.@@..
    ......
    ......

u+1e04:
uni1E04:
    ......
    ......
    ......
    ......
    ......
    ......
    ......
    ......
    ......
    ......

u+1e0a:
uni1E0A:
    ..@...
    ......
    @@@@..
    @...@.
    @...@.
    @...@.
    @...@.
    @@@@..
    ......
    ......

u+1e0b:
uni1E0B:
    ..@...
    ....@.
    ....@.
    .@@.@.
    @..@@.
    @...@.
    @..@@.
    .@@.@.
    ......
    ......

u+1e1e:
uni1E1E:
    ..@...
    ......
    @@@@@.
    @.....
    @@@@..
    @.....
    @.....
    @.....
    ......
    ......

u+1e1f:
uni1E1F:
    ..@...
    ......
    ..@@..
    .@..@.
    .@....
    @@@@..
    .@....
    .@....
    ......
    ......

u+1e40:
uni1E40:
    ..@...
    @...@.
    @...@.
    @@.@@.
    @.@.@.
    @...@.
    @...@.
    @...@.
    ......
    ......

u+1e41:
uni1E41:
    ......
    ..@...
    ......
    @@.@..
    @.@.@.
    @.@.@.
    @.@.@.
    @...@.
    ......
    ......

u+1e56:
uni1E56:
    ..@...
    ......
    @@@@..
    @...@.
    @...@.
    @@@@..
    @.....
    @.....
    ......
    ......

u+1e57:
uni1E57:
    ......
    ..@...
    ......
    @.@@..
    @@..@.
    @...@.
    @@..@.
    @.@@..
    @.....
    @.....

u+1e60:
uni1E60:
    ..@...
    ......
    .@@@..
    @.....
    .@@@..
    ....@.
    @...@.
    .@@@..
    ......
    ......

u+1e61:
uni1E61:
    ......
    ..@...
    ......
    .@@@..
    @.....
    .@@@..
    ....@.
    @@@@..
    ......
    ......

u+1e6a:
uni1E6A:
    ..@...
    ......
    @@@@@.
    ..@...
    ..@...
    ..@...
    ..@...
    ..@...
    ......
    ......

u+1e6b:
uni1E6B:
    .@....
    ......
    .@....
    @@@@..
    .@....
    .@....
    .@..@.
    ..@@..
    ......
    ......

u+1e80:
Wgrave:
    .@....
    ..@...
    @...@.
    @...@.
    @.@.@.
    @.@.@.
    @@.@@.
    @...@.
    ......
    ......

u+1e81:
wgrave:
    ......
    .@....
    ..@...
    @...@.
    @...@.
    @.@.@.
    @.@.@.
    .@.@..
    ......
    ......

u+1e82:
Wacute:
    ...@..
    ..@...
    @...@.
    @...@.
    @.@.@.
    @.@.@.
    @@.@@.
    @...@.
    ......
    ......

u+1e83:
wacute:
    ......
    ...@..
    ..@...
    @...@.
    @...@.
    @.@.@.
    @.@.@.
    .@.@..
    ......
    ......

u+1e84:
Wdieresis:
    .@.@..
    ......
    @...@.
    @...@.
    @.@.@.
    @.@.@.
    @@.@@.
    @...@.
    ......
    ......

u+1e85:
wdieresis:
    ......
    .@.@..
    ......
    @...@.
    @...@.
    @.@.@.
    @.@.@.
    .@.@..
    ......
    ......

u+1ef2:
Ygrave:
    .@....
    ..@...
    @...@.
    .@.@..
    ..@...
    ..@...
    ..@...
    ..@...
    ......
    ......

u+1ef3:
ygrave:
    .@....
    ..@...
    ......
    @...@.
    @...@.
    @..@@.
    .@@.@.
    ....@.
    @...@.
    .@@@..

u+1f00:
uni1F00:
    ..@@..
    ...@..
    ..@...
    .@@@..
    @...@.
    @...@.
    @..@@.
    .@@.@.
    ......
    ......

u+1f01:
uni1F01:
    ..@@..
    ..@...
    ...@..
    .@@@..
    @...@.
    @...@.
    @..@@.
    .@@.@.
    ......
    ......

u+1f02:
uni1F02:
    .@@@..
    ..@.@.
    .@....
    .@@@..
    @...@.
    @...@.
    @..@@.
    .@@.@.
    ......
    ......

u+1f03:
uni1F03:
    .@@@..
    .@..@.
    ..@...
    .@@@..
    @...@.
    @...@.
    @..@@.
    .@@.@.
    ......
    ......

u+1f04:
uni1F04:
    .@@.@.
    ..@@..
    .@....
    .@@@..
    @...@.
    @...@.
    @..@@.
    .@@.@.
    ......
    ......

u+1f05:
uni1F05:
    .@@.@.
    .@.@..
    ..@...
    .@@@..
    @...@.
    @...@.
    @..@@.
    .@@.@.
    ......
    ......

u+1f06:
uni1F06:
    .@@@@.
    ...@..
    ..@...
    .@@@..
    @...@.
    @...@.
    @..@@.
    .@@.@.
    ......
    ......

u+1f07:
uni1F07:
    .@@@@.
    ..@...
    ...@..
    .@@@..
    @...@.
    @...@.
    @..@@.
    .@@.@.
    ......
    ......

u+1f08:
uni1F08:
    ......
    @@.@@.
    .@@..@
    @.@..@
    ..@..@
    ..@@@@
    ..@..@
    ..@..@
    ......
    ......

u+1f09:
uni1F09:
    ......
    @@.@@.
    @.@..@
    .@@..@
    ..@..@
    ..@@@@
    ..@..@
    ..@..@
    ......
    ......

u+1f0a:
uni1F0A:
    ......
    @@.@@.
    .@@..@
    @.@..@
    @.@..@
    .@@@@@
    ..@..@
    ..@..@
    ......
    ......

u+1f0b:
uni1F0B:
    ......
    @@.@@.
    @.@..@
    .@@..@
    @.@..@
    .@@@@@
    ..@..@
    ..@..@
    ......
    ......

u+1f0c:
uni1F0C:
    ......
    @@.@@.
    .@@..@
    @.@..@
    .@@..@
    @.@@@@
    ..@..@
    ..@..@
    ......
    ......

u+1f0d:
uni1F0D:
    ......
    @@.@@.
    @.@..@
    .@@..@
    .@@..@
    @.@@@@
    ..@..@
    ..@..@
    ......
    ......

u+1f0e:
uni1F0E:
    ......
    @@.@@.
    ..@..@
    @@@..@
    .@@..@
    @.@@@@
    ..@..@
    ..@..@
    ......
    ......

u+1f0f:
uni1F0F:
    ......
    @@.@@.
    ..@..@
    @@@..@
    @.@..@
    .@@@@@
    ..@..@
    ..@..@
    ......
    ......

u+1f10:
uni1F10:
    ..@@..
    ...@..
    ..@...
    .@@@..
    @...@.
    .@@...
    @...@.
    .@@@..
    ......
    ......

u+1f11:
uni1F11:
    ..@@..
    ..@...
    ...@..
    .@@@..
    @...@.
    .@@...
    @...@.
    .@@@..
    ......
    ......

u+1f12:
uni1F12:
    .@@@..
    ..@.@.
    .@....
    .@@@..
    @...@.
    .@@...
    @...@.
    .@@@..
    ......
    ......

u+1f13:
uni1F13:
    .@@@..
    .@..@.
    ..@...
    .@@@..
    @...@.
    .@@...
    @...@.
    .@@@..
    ......
    ......

u+1f14:
uni1F14:
    .@@.@.
    ..@@..
    .@....
    .@@@..
    @...@.
    .@@...
    @...@.
    .@@@..
    ......
    ......

u+1f15:
uni1F15:
    .@@.@.
    .@.@..
    ..@...
    .@@@..
    @...@.
    .@@...
    @...@.
    .@@@..
    ......
    ......

u+1f18:
uni1F18:
    ......
    @@@@@@
    .@@...
    @.@...
    ..@@@.
    ..@...
    ..@...
    ..@@@@
    ......
    ......

u+1f19:
uni1F19:
    ......
    @@@@@@
    @.@...
    .@@...
    ..@@@.
    ..@...
    ..@...
    ..@@@@
    ......
    ......

u+1f1a:
uni1F1A:
    ......
    @@@@@@
    .@@...
    @.@...
    @.@@@.
    .@@...
    ..@...
    ..@@@@
    ......
    ......

u+1f1b:
uni1F1B:
    ......
    @@@@@@
    @.@...
    .@@...
    @.@@@.
    .@@...
    ..@...
    ..@@@@
    ......
    ......

u+1f1c:
uni1F1C:
    ......
    @@@@@@
    .@@...
    @.@...
    .@@@@.
    @.@...
    ..@...
    ..@@@@
    ......
    ......

u+1f1d:
uni1F1D:
    ......
    @@@@@@
    @.@...
    .@@...
    .@@@@.
    @.@...
    ..@...
    ..@@@@
    ......
    ......

u+1f20:
uni1F20:
    ..@@..
    ...@..
    ..@...
    @.@@..
    @@..@.
    @...@.
    @...@.
    @...@.
    ....@.
    ....@.

u+1f21:
uni1F21:
    ..@@..
    ..@...
    ...@..
    @.@@..
    @@..@.
    @...@.
    @...@.
    @...@.
    ....@.
    ....@.

u+1f22:
uni1F22:
    .@@@..
    ..@.@.
    .@....
    @.@@..
    @@..@.
    @...@.
    @...@.
    @...@.
    ....@.
    ....@.

u+1f23:
uni1F23:
    .@@@..
    .@..@.
    ..@...
    @.@@..
    @@..@.
    @...@.
    @...@.
    @...@.
    ....@.
    ....@.

u+1f24:
uni1F24:
    .@@.@.
    ..@@..
    .@....
    @.@@..
    @@..@.
    @...@.
    @...@.
    @...@.
    ....@.
    ....@.

u+1f25:
uni1F25:
    .@@.@.
    .@.@..
    ..@...
    @.@@..
    @@..@.
    @...@.
    @...@.
    @...@.
    ....@.
    ....@.

u+1f26:
uni1F26:
    .@@@@.
    ...@..
    ..@...
    @.@@..
    @@..@.
    @...@.
    @...@.
    @...@.
    ....@.
    ....@.

u+1f27:
uni1F27:
    .@@@@.
    ..@...
    ...@..
    @.@@..
    @@..@.
    @...@.
    @...@.
    @...@.
    ....@.
    ....@.

u+1f28:
uni1F28:
    ......
    @@@..@
    .@@..@
    @.@..@
    ..@@@@
    ..@..@
    ..@..@
    ..@..@
    ......
    ......

u+1f29:
uni1F29:
    ......
    @@@..@
    @.@..@
    .@@..@
    ..@@@@
    ..@..@
    ..@..@
    ..@..@
    ......
    ......

u+1f2a:
uni1F2A:
    ......
    @@@..@
    .@@..@
    @.@..@
    @.@@@@
    .@@..@
    ..@..@
    ..@..@
    ......
    ......

u+1f2b:
uni1F2B:
    ......
    @@@..@
    @.@..@
    .@@..@
    @.@@@@
    .@@..@
    ..@..@
    ..@..@
    ......
    ......

u+1f2c:
uni1F2C:
    ......
    @@@..@
    .@@..@
    @.@..@
    .@@@@@
    @.@..@
    ..@..@
    ..@..@
    ......
    ......

u+1f2d:
uni1F2D:
    ......
    @@@..@
    @.@..@
    .@@..@
    .@@@@@
    @.@..@
    ..@..@
    ..@..@
    ......
    ......

u+1f2e:
uni1F2E:
    ......
    @@@..@
    ..@..@
    @@@..@
    .@@@@@
    @.@..@
    ..@..@
    ..@..@
    ......
    ......

u+1f2f:
uni1F2F:
    ......
    @@@..@
    ..@..@
    @@@..@
    @.@@@@
    .@@..@
    ..@..@
    ..@..@
    ......
    ......

u+1f30:
uni1F30:
    .@@...
    ..@...
    .@....
    .@....
    .@....
    .@....
    .@.@..
    ..@...
    ......
    ......

u+1f31:
uni1F31:
    .@@...
    .@....
    ..@...
    .@....
    .@....
    .@....
    .@.@..
    ..@...
    ......
    ......

u+1f32:
uni1F32:
    .@@@..
    ..@.@.
    .@....
    ..@...
    ..@...
    ..@...
    ..@.@.
    ...@..
    ......
    ......

u+1f33:
uni1F33:
    .@@@..
    .@..@.
    ..@...
    ..@...
    ..@...
    ..@...
    ..@.@.
    ...@..
    ......
    ......

u+1f34:
uni1F34:
    .@@.@.
    ..@@..
    .@....
    ..@...
    ..@...
    ..@...
    ..@.@.
    ...@..
    ......
    ......

u+1f35:
uni1F35:
    .@@.@.
    .@.@..
    ..@...
    ..@...
    ..@...
    ..@...
    ..@.@.
    ...@..
    ......
    ......

u+1f36:
uni1F36:
    .@@@@.
    ...@..
    ..@...
    ..@...
    ..@...
    ..@...
    ..@.@.
    ...@..
    ......
    ......

u+1f37:
uni1F37:
    .@@@@.
    ..@...
    ...@..
    ..@...
    ..@...
    ..@...
    ..@.@.
    ...@..
    ......
    ......

u+1f38:
uni1F38:
    ......
    @@.@@@
    .@..@.
    @...@.
    ....@.
    ....@.
    ....@.
    ...@@@
    ......
    ......

u+1f39:
uni1F39:
    ......
    @@.@@@
    @...@.
    .@..@.
    ....@.
    ....@.
    ....@.
    ...@@@
    ......
    ......

u+1f3a:
uni1F3A:
    ......
    @@.@@@
    .@..@.
    @...@.
    @...@.
    .@..@.
    ....@.
    ...@@@
    ......
    ......

u+1f3b:
uni1F3B:
    ......
    @@.@@@
    @...@.
    .@..@.
    @...@.
    .@..@.
    ....@.
    ...@@@
    ......
    ......

u+1f3c:
uni1F3C:
    ......
    @@.@@@
    .@..@.
    @...@.
    .@..@.
    @...@.
    ....@.
    ...@@@
    ......
    ......

u+1f3d:
uni1F3D:
    ......
    @@.@@@
    @...@.
    .@..@.
    .@..@.
    @...@.
    ....@.
    ...@@@
    ......
    ......

u+1f3e:
uni1F3E:
    ......
    @@.@@@
    ....@.
    @@..@.
    .@..@.
    @...@.
    ....@.
    ...@@@
    ......
    ......

u+1f3f:
uni1F3F:
    ......
    @@.@@@
    ....@.
    @@..@.
    @...@.
    .@..@.
    ....@.
    ...@@@
    ......
    ......

u+1f40:
uni1F40:
    ..@@..
    ...@..
    ..@...
    .@@@..
    @...@.
    @...@.
    @...@.
    .@@@..
    ......
    ......

u+1f41:
uni1F41:
    ..@@..
    ..@...
    ...@..
    .@@@..
    @...@.
    @...@.
    @...@.
    .@@@..
    ......
    ......

u+1f42:
uni1F42:
    .@@@..
    ..@.@.
    .@....
    .@@@..
    @...@.
    @...@.
    @...@.
    .@@@..
    ......
    ......

u+1f43:
uni1F43:
    .@@@..
    .@..@.
    ..@...
    .@@@..
    @...@.
    @...@.
    @...@.
    .@@@..
    ......
    ......

u+1f44:
uni1F44:
    .@@.@.
    ..@@..
    .@....
    .@@@..
    @...@.
    @...@.
    @...@.
    .@@@..
    ......
    ......

u+1f45:
uni1F45:
    .@@.@.
    .@.@..
    ..@...
    .@@@..
    @...@.
    @...@.
    @...@.
    .@@@..
    ......
    ......

u+1f48:
uni1F48:
    ......
    @@.@@.
    .@@..@
    @.@..@
    ..@..@
    ..@..@
    ..@..@
    ...@@.
    ......
    ......

u+1f49:
uni1F49:
    ......
    @@.@@.
    @.@..@
    .@@..@
    ..@..@
    ..@..@
    ..@..@
    ...@@.
    ......
    ......

u+1f4a:
uni1F4A:
    ......
    @@.@@.
    .@@..@
    @.@..@
    @.@..@
    .@@..@
    ..@..@
    ...@@.
    ......
    ......

u+1f4b:
uni1F4B:
    ......
    @@.@@.
    @.@..@
    .@@..@
    @.@..@
    .@@..@
    ..@..@
    ...@@.
    ......
    ......

u+1f4c:
uni1F4C:
    ......
    @@.@@.
    .@@..@
    @.@..@
    .@@..@
    @.@..@
    ..@..@
    ...@@.
    ......
    ......

u+1f4d:
uni1F4D:
    ......
    @@.@@.
    @.@..@
    .@@..@
    .@@..@
    @.@..@
    ..@..@
    ...@@.
    ......
    ......

u+1f50:
uni1F50:
    ..@@..
    ...@..
    ..@...
    @...@.
    @...@.
    @...@.
    @...@.
    .@@@..
    ......
    ......

u+1f51:
uni1F51:
    ..@@..
    ..@...
    ...@..
    @...@.
    @...@.
    @...@.
    @...@.
    .@@@..
    ......
    ......

u+1f52:
uni1F52:
    .@@@..
    ..@.@.
    .@....
    @...@.
    @...@.
    @...@.
    @...@.
    .@@@..
    ......
    ......

u+1f53:
uni1F53:
    .@@@..
    .@..@.
    ..@...
    @...@.
    @...@.
    @...@.
    @...@.
    .@@@..
    ......
    ......

u+1f54:
uni1F54:
    .@@.@.
    ..@@..
    .@....
    @...@.
    @...@.
    @...@.
    @...@.
    .@@@..
    ......
    ......

u+1f55:
uni1F55:
    .@@.@.
    .@.@..
    ..@...
    @...@.
    @...@.
    @...@.
    @...@.
    .@@@..
    ......
    ......

u+1f56:
uni1F56:
    .@@@@.
    ...@..
    ..@...
    @...@.
    @...@.
    @...@.
    @...@.
    .@@@..
    ......
    ......

u+1f57:
uni1F57:
    .@@@@.
    ..@...
    ...@..
    @...@.
    @...@.
    @...@.
    @...@.
    .@@@..
    ......
    ......

u+1f59:
uni1F59:
    ......
    @@.@.@
    @..@.@
    .@.@.@
    ....@.
    ....@.
    ....@.
    ....@.
    ......
    ......

u+1f5b:
uni1F5B:
    ......
    @@.@.@
    @..@.@
    .@.@.@
    @...@.
    .@..@.
    ....@.
    ....@.
    ......
    ......

u+1f5d:
uni1F5D:
    ......
    @@.@.@
    @..@.@
    .@.@.@
    .@..@.
    @...@.
    ....@.
    ....@.
    ......
    ......

u+1f5f:
uni1F5F:
    ......
    @@.@.@
    ...@.@
    @@.@.@
    @...@.
    .@..@.
    ....@.
    ....@.
    ......
    ......

u+1f60:
uni1F60:
    ..@@..
    ...@..
    ..@...
    @...@.
    @.@.@.
    @.@.@.
    @.@.@.
    .@.@..
    ......
    ......

u+1f61:
uni1F61:
    ..@@..
    ..@...
    ...@..
    @...@.
    @.@.@.
    @.@.@.
    @.@.@.
    .@.@..
    ......
    ......

u+1f62:
uni1F62:
    .@@@..
    ..@.@.
    .@....
    @...@.
    @.@.@.
    @.@.@.
    @.@.@.
    .@.@..
    ......
    ......

u+1f63:
uni1F63:
    .@@@..
    .@..@.
    ..@...
    @...@.
    @.@.@.
    @.@.@.
    @.@.@.
    .@.@..
    ......
    ......

u+1f64:
uni1F64:
    .@@.@.
    ..@@..
    .@....
    @...@.
    @.@.@.
    @.@.@.
    @.@.@.
    .@.@..
    ......
    ......

u+1f65:
uni1F65:
    .@@.@.
    .@.@..
    ..@...
    @...@.
    @.@.@.
    @.@.@.
    @.@.@.
    .@.@..
    ......
    ......

u+1f66:
uni1F66:
    .@@@@.
    ...@..
    ..@...
    @...@.
    @.@.@.
    @.@.@.
    @.@.@.
    .@.@..
    ......
    ......

u+1f67:
uni1F67:
    .@@@@.
    ..@...
    ...@..
    @...@.
    @.@.@.
    @.@.@.
    @.@.@.
    .@.@..
    ......
    ......

u+1f68:
uni1F68:
    ......
    @@.@@.
    .@@..@
    @.@..@
    ..@..@
    ..@..@
    ...@@.
    ..@@@@
    ......
    ......

u+1f69:
uni1F69:
    ......
    @@.@@.
    @.@..@
    .@@..@
    ..@..@
    ..@..@
    ...@@.
    ..@@@@
    ......
    ......

u+1f6a:
uni1F6A:
    ......
    @@.@@.
    .@@..@
    @.@..@
    @.@..@
    .@@..@
    ...@@.
    ..@@@@
    ......
    ......

u+1f6b:
uni1F6B:
    ......
    @@.@@.
    @.@..@
    .@@..@
    @.@..@
    .@@..@
    ...@@.
    ..@@@@
    ......
    ......

u+1f6c:
uni1F6C:
    ......
    @@.@@.
    .@@..@
    @.@..@
    .@@..@
    @.@..@
    ...@@.
    ..@@@@
    ......
    ......

u+1f6d:
uni1F6D:
    ......
    @@.@@.
    @.@..@
    .@@..@
    .@@..@
    @.@..@
    ...@@.
    ..@@@@
    ......
    ......

u+1f6e:
uni1F6E:
    ......
    @@.@@.
    ..@..@
    @@@..@
    .@@..@
    @.@..@
    ...@@.
    ..@@@@
    ......
    ......

u+1f6f:
uni1F6F:
    ......
    @@.@@.
    ..@..@
    @@@..@
    @.@..@
    .@@..@
    ...@@.
    ..@@@@
    ......
    ......

u+1f70:
uni1F70:
    .@....
    ..@...
    ......
    .@@@..
    @...@.
    @...@.
    @..@@.
    .@@.@.
    ......
    ......

u+1f71:
uni1F71:
    ...@..
    ..@...
    ......
    .@@@..
    @...@.
    @...@.
    @..@@.
    .@@.@.
    ......
    ......

u+1f72:
uni1F72:
    .@....
    ..@...
    ......
    .@@@..
    @...@.
    .@@...
    @...@.
    .@@@..
    ......
    ......

u+1f73:
uni1F73:
    ...@..
    ..@...
    ......
    .@@@..
    @...@.
    .@@...
    @...@.
    .@@@..
    ......
    ......

u+1f74:
uni1F74:
    .@....
    ..@...
    ......
    @.@@..
    @@..@.
    @...@.
    @...@.
    @...@.
    ....@.
    ....@.

u+1f75:
uni1F75:
    ...@..
    ..@...
    ......
    @.@@..
    @@..@.
    @...@.
    @...@.
    @...@.
    ....@.
    ....@.

u+1f76:
uni1F76:
    .@....
    ..@...
    ......
    ..@...
    ..@...
    ..@...
    ..@.@.
    ...@..
    ......
    ......

u+1f77:
uni1F77:
    ..@...
    .@....
    ......
    .@....
    .@....
    .@....
    .@.@..
    ..@...
    ......
    ......

u+1f78:
uni1F78:
    .@....
    ..@...
    ......
    .@@@..
    @...@.
    @...@.
    @...@.
    .@@@..
    ......
    ......

u+1f79:
uni1F79:
    ...@..
    ..@...
    ......
    .@@@..
    @...@.
    @...@.
    @...@.
    .@@@..
    ......
    ......

u+1f7a:
uni1F7A:
    .@....
    ..@...
    ......
    @...@.
    @...@.
    @...@.
    @...@.
    .@@@..
    ......
    ......

u+1f7b:
uni1F7B:
    ...@..
    ..@...
    ......
    @...@.
    @...@.
    @...@.
    @...@.
    .@@@..
    ......
    ......

u+1f7c:
uni1F7C:
    .@....
    ..@...
    ......
    @...@.
    @.@.@.
    @.@.@.
    @.@.@.
    .@.@..
    ......
    ......

u+1f7d:
uni1F7D:
    ...@..
    ..@...
    ......
    @...@.
    @.@.@.
    @.@.@.
    @.@.@.
    .@.@..
    ......
    ......

u+1f80:
uni1F80:
    ..@@..
    ...@..
    ..@...
    .@@@..
    @...@.
    @...@.
    @..@@.
    .@@.@.
    ......
    ..@...

u+1f81:
uni1F81:
    ..@@..
    ..@...
    ...@..
    .@@@..
    @...@.
    @...@.
    @..@@.
    .@@.@.
    ......
    ..@...

u+1f82:
uni1F82:
    .@@@..
    ..@.@.
    .@....
    .@@@..
    @...@.
    @...@.
    @..@@.
    .@@.@.
    ......
    ..@...

u+1f83:
uni1F83:
    .@@@..
    .@..@.
    ..@...
    .@@@..
    @...@.
    @...@.
    @..@@.
    .@@.@.
    ......
    ..@...

u+1f84:
uni1F84:
    .@@.@.
    ..@@..
    .@....
    .@@@..
    @...@.
    @...@.
    @..@@.
    .@@.@.
    ......
    ..@...

u+1f85:
uni1F85:
    .@@.@.
    .@.@..
    ..@...
    .@@@..
    @...@.
    @...@.
    @..@@.
    .@@.@.
    ......
    ..@...

u+1f86:
uni1F86:
    .@@@@.
    ...@..
    ..@...
    .@@@..
    @...@.
    @...@.
    @..@@.
    .@@.@.
    ......
    ..@...

u+1f87:
uni1F87:
    .@@@@.
    ..@...
    ...@..
    .@@@..
    @...@.
    @...@.
    @..@@.
    .@@.@.
    ......
    ..@...

u+1f88:
uni1F88:
    ......
    @@.@@.
    .@@..@
    @.@..@
    ..@..@
    ..@@@@
    ..@..@
    ..@..@
    ......
    ...@..

u+1f89:
uni1F89:
    ......
    @@.@@.
    @.@..@
    .@@..@
    ..@..@
    ..@@@@
    ..@..@
    ..@..@
    ......
    ...@..

u+1f8a:
uni1F8A:
    ......
    @@.@@.
    .@@..@
    @.@..@
    @.@..@
    .@@@@@
    ..@..@
    ..@..@
    ......
    ...@..

u+1f8b:
uni1F8B:
    ......
    @@.@@.
    @.@..@
    .@@..@
    @.@..@
    .@@@@@
    ..@..@
    ..@..@
    ......
    ...@..

u+1f8c:
uni1F8C:
    ......
    @@.@@.
    .@@..@
    @.@..@
    .@@..@
    @.@@@@
    ..@..@
    ..@..@
    ......
    ...@..

u+1f8d:
uni1F8D:
    ......
    @@.@@.
    @.@..@
    .@@..@
    .@@..@
    @.@@@@
    ..@..@
    ..@..@
    ......
    ...@..

u+1f8e:
uni1F8E:
    ......
    @@.@@.
    ..@..@
    @@@..@
    .@@..@
    @.@@@@
    ..@..@
    ..@..@
    ......
    ...@..

u+1f8f:
uni1F8F:
    ......
    @@.@@.
    ..@..@
    @@@..@
    @.@..@
    .@@@@@
    ..@..@
    ..@..@
    ......
    ...@..

u+1f90:
uni1F90:
    ..@@..
    ...@..
    ..@...
    @.@@..
    @@..@.
    @...@.
    @...@.
    @...@.
    ....@.
    @...@.

u+1f91:
uni1F91:
    ..@@..
    ..@...
    ...@..
    @.@@..
    @@..@.
    @...@.
    @...@.
    @...@.
    ....@.
    @...@.

u+1f92:
uni1F92:
    .@@@..
    ..@.@.
    .@....
    @.@@..
    @@..@.
    @...@.
    @...@.
    @...@.
    ....@.
    @...@.

u+1f93:
uni1F93:
    .@@@..
    .@..@.
    ..@...
    @.@@..
    @@..@.
    @...@.
    @...@.
    @...@.
    ....@.
    @...@.

u+1f94:
uni1F94:
    .@@.@.
    ..@@..
    .@....
    @.@@..
    @@..@.
    @...@.
    @...@.
    @...@.
    ....@.
    @...@.

u+1f95:
uni1F95:
    .@@.@.
    .@.@..
    ..@...
    @.@@..
    @@..@.
    @...@.
    @...@.
    @...@.
    ....@.
    @...@.

u+1f96:
uni1F96:
    .@@@@.
    ...@..
    ..@...
    @.@@..
    @@..@.
    @...@.
    @...@.
    @...@.
    ....@.
    @...@.

u+1f97:
uni1F97:
    .@@@@.
    ..@...
    ...@..
    @.@@..
    @@..@.
    @...@.
    @...@.
    @...@.
    ....@.
    @...@.

u+1f98:
uni1F98:
    ......
    @@@..@
    .@@..@
    @.@..@
    ..@@@@
    ..@..@
    ..@..@
    ..@..@
    ......
    ...@..

u+1f99:
uni1F99:
    ......
    @@@..@
    @.@..@
    .@@..@
    ..@@@@
    ..@..@
    ..@..@
    ..@..@
    ......
    ...@..

u+1f9a:
uni1F9A:
    ......
    @@@..@
    .@@..@
    @.@..@
    @.@@@@
    .@@..@
    ..@..@
    ..@..@
    ......
    ...@..

u+1f9b:
uni1F9B:
    ......
    @@@..@
    @.@..@
    .@@..@
    @.@@@@
    .@@..@
    ..@..@
    ..@..@
    ......
    ...@..

u+1f9c:
uni1F9C:
    ......
    @@@..@
    .@@..@
    @.@..@
    .@@@@@
    @.@..@
    ..@..@
    ..@..@
    ......
    ...@..

u+1f9d:
uni1F9D:
    ......
    @@@..@
    @.@..@
    .@@..@
    .@@@@@
    @.@..@
    ..@..@
    ..@..@
    ......
    ...@..

u+1f9e:
uni1F9E:
    ......
    @@@..@
    ..@..@
    @@@..@
    .@@@@@
    @.@..@
    ..@..@
    ..@..@
    ......
    ...@..

u+1f9f:
uni1F9F:
    ......
    @@@..@
    ..@..@
    @@@..@
    @.@@@@
    .@@..@
    ..@..@
    ..@..@
    ......
    ...@..

u+1fa0:
uni1FA0:
    ..@@..
    ...@..
    ..@...
    @...@.
    @.@.@.
    @.@.@.
    @.@.@.
    .@.@..
    ......
    ..@...

u+1fa1:
uni1FA1:
    ..@@..
    ..@...
    ...@..
    @...@.
    @.@.@.
    @.@.@.
    @.@.@.
    .@.@..
    ......
    ..@...

u+1fa2:
uni1FA2:
    .@@@..
    ..@.@.
    .@....
    @...@.
    @.@.@.
    @.@.@.
    @.@.@.
    .@.@..
    ......
    ..@...

u+1fa3:
uni1FA3:
    .@@@..
    .@..@.
    ..@...
    @...@.
    @.@.@.
    @.@.@.
    @.@.@.
    .@.@..
    ......
    ..@...

u+1fa4:
uni1FA4:
    .@@.@.
    ..@@..
    .@....
    @...@.
    @.@.@.
    @.@.@.
    @.@.@.
    .@.@..
    ......
    ..@...

u+1fa5:
uni1FA5:
    .@@.@.
    .@.@..
    ..@...
    @...@.
    @.@.@.
    @.@.@.
    @.@.@.
    .@.@..
    ......
    ..@...

u+1fa6:
uni1FA6:
    .@@@@.
    ...@..
    ..@...
    @...@.
    @.@.@.
    @.@.@.
    @.@.@.
    .@.@..
    ......
    ..@...

u+1fa7:
uni1FA7:
    .@@@@.
    ..@...
    ...@..
    @...@.
    @.@.@.
    @.@.@.
    @.@.@.
    .@.@..
    ......
    ..@...

u+1fa8:
uni1FA8:
    ......
    @@.@@.
    .@@..@
    @.@..@
    ..@..@
    ..@..@
    ...@@.
    ..@@@@
    ......
    ...@..

u+1fa9:
uni1FA9:
    ......
    @@.@@.
    @.@..@
    .@@..@
    ..@..@
    ..@..@
    ...@@.
    ..@@@@
    ......
    ...@..

u+1faa:
uni1FAA:
    ......
    @@.@@.
    .@@..@
    @.@..@
    @.@..@
    .@@..@
    ...@@.
    ..@@@@
    ......
    ...@..

u+1fab:
uni1FAB:
    ......
    @@.@@.
    @.@..@
    .@@..@
    @.@..@
    .@@..@
    ...@@.
    ..@@@@
    ......
    ...@..

u+1fac:
uni1FAC:
    ......
    @@.@@.
    .@@..@
    @.@..@
    .@@..@
    @.@..@
    ...@@.
    ..@@@@
    ......
    ...@..

u+1fad:
uni1FAD:
    ......
    @@.@@.
    @.@..@
    .@@..@
    .@@..@
    @.@..@
    ...@@.
    ..@@@@
    ......
    ...@..

u+1fae:
uni1FAE:
    ......
    @@.@@.
    ..@..@
    @@@..@
    .@@..@
    @.@..@
    ...@@.
    ..@@@@
    ......
    ...@..

u+1faf:
uni1FAF:
    ......
    @@.@@.
    ..@..@
    @@@..@
    @.@..@
    .@@..@
    ...@@.
    ..@@@@
    ......
    ...@..

u+1fb0:
uni1FB0:
    @...@.
    .@@@..
    ......
    .@@@..
    @...@.
    @...@.
    @..@@.
    .@@.@.
    ......
    ......

u+1fb1:
uni1FB1:
    ......
    @@@@@.
    ......
    .@@@..
    @...@.
    @...@.
    @..@@.
    .@@.@.
    ......
    ......

u+1fb2:
uni1FB2:
    .@....
    ..@...
    ......
    .@@@..
    @...@.
    @...@.
    @..@@.
    .@@.@.
    ......
    ..@...

u+1fb3:
uni1FB3:
    ......
    ......
    ......
    .@@@..
    @...@.
    @...@.
    @..@@.
    .@@.@.
    ......
    ..@...

u+1fb4:
uni1FB4:
    ...@..
    ..@...
    ......
    .@@@..
    @...@.
    @...@.
    @..@@.
    .@@.@.
    ......
    ..@...

u+1fb6:
uni1FB6:
    ......
    .@@@@.
    ......
    .@@@..
    @...@.
    @...@.
    @..@@.
    .@@.@.
    ......
    ......

u+1fb7:
uni1FB7:
    ......
    .@@@@.
    ......
    .@@@..
    @...@.
    @...@.
    @..@@.
    .@@.@.
    ......
    ..@...

u+1fb8:
uni1FB8:
    @...@.
    .@@@..
    .@@@..
    @...@.
    @...@.
    @@@@@.
    @...@.
    @...@.
    ......
    ......

u+1fb9:
uni1FB9:
    @@@@@.
    ......
    .@@@..
    @...@.
    @...@.
    @@@@@.
    @...@.
    @...@.
    ......
    ......

u+1fba:
uni1FBA:
    ......
    @..@@.
    .@@..@
    ..@..@
    ..@..@
    ..@@@@
    ..@..@
    ..@..@
    ......
    ......

u+1fbb:
uni1FBB:
    ......
    .@.@@.
    @.@..@
    ..@..@
    ..@..@
    ..@@@@
    ..@..@
    ..@..@
    ......
    ......

u+1fbc:
uni1FBC:
    ......
    ..@...
    .@.@..
    @...@.
    @...@.
    @@@@@.
    @...@.
    @...@.
    ..@...
    ..@@..

u+1fbd:
uni1FBD:
    ......
    ..@@..
    ...@..
    ..@...
    ......
    ......
    ......
    ......
    ......
    ......

u+1fbe:
uni1FBE:
    ......
    ......
    ......
    ......
    ......
    ..@...
    ..@...
    ...@..
    ......
    ......

u+1fbf:
uni1FBF:
    ......
    ..@@..
    ...@..
    ..@...
    ......
    ......
    ......
    ......
    ......
    ......

u+1fc0:
uni1FC0:
    ......
    .@@@@.
    ......
    ......
    ......
    ......
    ......
    ......
    ......
    ......

u+1fc1:
uni1FC1:
    ......
    @@@@@.
    ......
    @...@.
    ......
    ......
    ......
    ......
    ......
    ......

u+1fc2:
uni1FC2:
    .@....
    ..@...
    ......
    @.@@..
    @@..@.
    @...@.
    @...@.
    @...@.
    ....@.
    @...@.

u+1fc3:
uni1FC3:
    ......
    ......
    ......
    @.@@..
    @@..@.
    @...@.
    @...@.
    @...@.
    ....@.
    @...@.

u+1fc4:
uni1FC4:
    ...@..
    ..@...
    ......
    @.@@..
    @@..@.
    @...@.
    @...@.
    @...@.
    ....@.
    @...@.

u+1fc6:
uni1FC6:
    ......
    .@@@@.
    ......
    @.@@..
    @@..@.
    @...@.
    @...@.
    @...@.
    ....@.
    ....@.

u+1fc7:
uni1FC7:
    ......
    .@@@@.
    ......
    @.@@..
    @@..@.
    @...@.
    @...@.
    @...@.
    ....@.
    @...@.

u+1fc8:
uni1FC8:
    ......
    @.@@@@
    .@@...
    ..@...
    ..@@@.
    ..@...
    ..@...
    ..@@@@
    ......
    ......

u+1fc9:
uni1FC9:
    ......
    .@@@@@
    @.@...
    ..@...
    ..@@@.
    ..@...
    ..@...
    ..@@@@
    ......
    ......

u+1fca:
uni1FCA:
    ......
    @.@..@
    .@@..@
    ..@..@
    ..@@@@
    ..@..@
    ..@..@
    ..@..@
    ......
    ......

u+1fcb:
uni1FCB:
    ......
    .@@..@
    @.@..@
    ..@..@
    ..@@@@
    ..@..@
    ..@..@
    ..@..@
    ......
    ......

u+1fcc:
uni1FCC:
    ......
    @...@.
    @...@.
    @...@.
    @@@@@.
    @...@.
    @...@.
    @...@.
    ..@...
    ..@@..

u+1fcd:
uni1FCD:
    ......
    .@@@..
    ..@.@.
    .@....
    ......
    ......
    ......
    ......
    ......
    ......

u+1fce:
uni1FCE:
    ......
    .@@.@.
    ..@@..
    .@....
    ......
    ......
    ......
    ......
    ......
    ......

u+1fcf:
uni1FCF:
    ......
    .@@@@.
    ...@..
    ..@...
    ......
    ......
    ......
    ......
    ......
    ......

u+1fd0:
uni1FD0:
    @...@.
    .@@@..
    ......
    ..@...
    ..@...
    ..@...
    ..@.@.
    ...@..
    ......
    ......

u+1fd1:
uni1FD1:
    ......
    @@@@@.
    ......
    ..@...
    ..@...
    ..@...
    ..@.@.
    ...@..
    ......
    ......

u+1fd2:
uni1FD2:
    .@....
    @.@.@.
    ......
    ..@...
    ..@...
    ..@...
    ..@.@.
    ...@..
    ......
    ......

u+1fd3:
uni1FD3:
    ...@..
    @.@.@.
    ......
    ..@...
    ..@...
    ..@...
    ..@.@.
    ...@..
    ......
    ......

u+1fd6:
uni1FD6:
    ......
    .@@@@.
    ......
    ..@...
    ..@...
    ..@...
    ..@.@.
    ...@..
    ......
    ......

u+1fd7:
uni1FD7:
    @@@@@.
    ......
    @...@.
    ..@...
    ..@...
    ..@...
    ..@.@.
    ...@..
    ......
    ......

u+1fd8:
uni1FD8:
    @...@.
    .@@@..
    .@@@..
    ..@...
    ..@...
    ..@...
    ..@...
    .@@@..
    ......
    ......

u+1fd9:
uni1FD9:
    @@@@@.
    ......
    .@@@..
    ..@...
    ..@...
    ..@...
    ..@...
    .@@@..
    ......
    ......

u+1fda:
uni1FDA:
    ......
    @..@@@
    .@..@.
    ....@.
    ....@.
    ....@.
    ....@.
    ...@@@
    ......
    ......

u+1fdb:
uni1FDB:
    ......
    .@.@@@
    @...@.
    ....@.
    ....@.
    ....@.
    ....@.
    ...@@@
    ......
    ......

u+1fdd:
uni1FDD:
    ......
    .@@.@.
    ..@@..
    .@....
    ......
    ......
    ......
    ......
    ......
    ......

u+1fde:
uni1FDE:
    ......
    .@@.@.
    .@.@..
    ..@...
    ......
    ......
    ......
    ......
    ......
    ......

u+1fdf:
uni1FDF:
    ......
    .@@@@.
    ..@...
    ...@..
    ......
    ......
    ......
    ......
    ......
    ......

u+1fe0:
uni1FE0:
    @...@.
    .@@@..
    ......
    @...@.
    @...@.
    @...@.
    @...@.
    .@@@..
    ......
    ......

u+1fe1:
uni1FE1:
    ......
    @@@@@.
    ......
    @...@.
    @...@.
    @...@.
    @...@.
    .@@@..
    ......
    ......

u+1fe2:
uni1FE2:
    .@....
    @.@.@.
    ......
    @...@.
    @...@.
    @...@.
    @...@.
    .@@@..
    ......
    ......

u+1fe3:
uni1FE3:
    ...@..
    @.@.@.
    ......
    @...@.
    @...@.
    @...@.
    @...@.
    .@@@..
    ......
    ......

u+1fe4:
uni1FE4:
    ..@@..
    ...@..
    ..@...
    .@@@..
    @...@.
    @...@.
    @...@.
    @@@@..
    @.....
    @.....

u+1fe5:
uni1FE5:
    ..@@..
    ..@...
    ...@..
    .@@@..
    @...@.
    @...@.
    @...@.
    @@@@..
    @.....
    @.....

u+1fe6:
uni1FE6:
    ......
    .@@@@.
    ......
    @...@.
    @...@.
    @...@.
    @...@.
    .@@@..
    ......
    ......

u+1fe7:
uni1FE7:
    @@@@@.
    ......
    @...@.
    ......
    @...@.
    @...@.
    @...@.
    .@@@..
    ......
    ......

u+1fe8:
uni1FE8:
    @...@.
    .@@@..
    @...@.
    @...@.
    .@.@..
    ..@...
    ..@...
    ..@...
    ......
    ......

u+1fe9:
uni1FE9:
    @@@@@.
    ......
    @...@.
    @...@.
    .@.@..
    ..@...
    ..@...
    ..@...
    ......
    ......

u+1fea:
uni1FEA:
    ......
    @..@.@
    .@.@.@
    ...@.@
    ....@.
    ....@.
    ....@.
    ....@.
    ......
    ......

u+1feb:
uni1FEB:
    ......
    .@.@.@
    @..@.@
    ...@.@
    ....@.
    ....@.
    ....@.
    ....@.
    ......
    ......

u+1fec:
uni1FEC:
    ......
    @@@@@.
    @.@..@
    .@@..@
    ..@@@.
    ..@...
    ..@...
    ..@...
    ......
    ......

u+1fed:
uni1FED:
    ......
    .@....
    @.@.@.
    ......
    ......
    ......
    ......
    ......
    ......
    ......

u+1fee:
uni1FEE:
    ......
    ...@..
    @.@.@.
    ......
    ......
    ......
    ......
    ......
    ......
    ......

u+1fef:
uni1FEF:
    ......
    ..@...
    ...@..
    ......
    ......
    ......
    ......
    ......
    ......
    ......

u+1ff2:
uni1FF2:
    .@....
    ..@...
    ......
    @...@.
    @.@.@.
    @.@.@.
    @.@.@.
    .@.@..
    ......
    ..@...

u+1ff3:
uni1FF3:
    ......
    ......
    ......
    @...@.
    @.@.@.
    @.@.@.
    @.@.@.
    .@.@..
    ......
    ..@...

u+1ff4:
uni1FF4:
    ...@..
    ..@...
    ......
    @...@.
    @.@.@.
    @.@.@.
    @.@.@.
    .@.@..
    ......
    ..@...

u+1ff6:
uni1FF6:
    ......
    .@@@@.
    ......
    @...@.
    @.@.@.
    @.@.@.
    @.@.@.
    .@.@..
    ......
    ......

u+1ff7:
uni1FF7:
    ......
    .@@@@.
    ......
    @...@.
    @.@.@.
    @.@.@.
    @.@.@.
    .@.@..
    ......
    ..@...

u+1ff8:
uni1FF8:
    ......
    @..@@.
    .@@..@
    ..@..@
    ..@..@
    ..@..@
    ..@..@
    ...@@.
    ......
    ......

u+1ff9:
uni1FF9:
    ......
    .@.@@.
    @.@..@
    ..@..@
    ..@..@
    ..@..@
    ..@..@
    ...@@.
    ......
    ......

u+1ffa:
uni1FFA:
    ......
    @..@@.
    .@@..@
    ..@..@
    ..@..@
    ..@..@
    ...@@.
    ..@@@@
    ......
    ......

u+1ffb:
uni1FFB:
    ......
    .@.@@.
    @.@..@
    ..@..@
    ..@..@
    ..@..@
    ...@@.
    ..@@@@
    ......
    ......

u+1ffc:
uni1FFC:
    ......
    .@@@..
    @...@.
    @...@.
    @...@.
    @...@.
    .@.@..
    @@.@@.
    ..@...
    ..@@..

u+1ffd:
uni1FFD:
    ......
    ...@..
    ..@...
    ......
    ......
    ......
    ......
    ......
    ......
    ......

u+1ffe:
uni1FFE:
    ......
    ..@@..
    ..@...
    ...@..
    ......
    ......
    ......
    ......
    ......
    ......

u+2010:
uni2010:
    ......
    ......
    ......
    ......
    .@@@@.
    ......
    ......
    ......
    ......
    ......

u+2011:
uni2011:
    ......
    ......
    ......
    ......
    .@@@@.
    ......
    ......
    ......
    ......
    ......

u+2012:
figuredash:
    ......
    ......
    ......
    ......
    @@@@@.
    ......
    ......
    ......
    ......
    ......

u+2013:
endash:
    ......
    ......
    ......
    ......
    @@@@@.
    ......
    ......
    ......
    ......
    ......

u+2014:
emdash:
    ......
    ......
    ......
    ......
    @@@@@@
    ......
    ......
    ......
    ......
    ......

u+2015:
afii00208:
    ......
    ......
    ......
    ......
    @@@@@@
    ......
    ......
    ......
    ......
    ......

u+2016:
uni2016:
    .@.@..
    .@.@..
    .@.@..
    .@.@..
    .@.@..
    .@.@..
    .@.@..
    .@.@..
    ......
    ......

u+2017:
underscoredbl:
    ......
    ......
    ......
    ......
    ......
    ......
    ......
    @@@@@@
    ......
    @@@@@@

u+2018:
quoteleft:
    ......
    ...@..
    ..@...
    ..@@..
    ......
    ......
    ......
    ......
    ......
    ......

u+2019:
quoteright:
    ......
    ..@@..
    ...@..
    ..@...
    ......
    ......
    ......
    ......
    ......
    ......

u+201a:
quotesinglbase:
    ......
    ......
    ......
    ......
    ......
    ......
    ..@@..
    ...@..
    ..@...
    ......

u+201b:
quotereversed:
    ......
    ..@@..
    ..@...
    ...@..
    ......
    ......
    ......
    ......
    ......
    ......

u+201c:
quotedblleft:
    ......
    .@..@.
    @..@..
    @@.@@.
    ......
    ......
    ......
    ......
    ......
    ......

u+201d:
quotedblright:
    ......
    @@.@@.
    .@..@.
    @..@..
    ......
    ......
    ......
    ......
    ......
    ......

u+201e:
quotedblbase:
    ......
    ......
    ......
    ......
    ......
    ......
    @@.@@.
    .@..@.
    @..@..
    ......

u+201f:
uni201F:
    ......
    @@.@@.
    @..@..
    .@..@.
    ......
    ......
    ......
    ......
    ......
    ......

u+2020:
dagger:
    ......
    ..@...
    ..@...
    @@@@@.
    ..@...
    ..@...
    ..@...
    ..@...
    ......
    ......

u+2021:
daggerdbl:
    ......
    ..@...
    ..@...
    @@@@@.
    ..@...
    @@@@@.
    ..@...
    ..@...
    ......
    ......

u+2022:
bullet:
    ......
    ......
    ......
    ..@@..
    .@@@@.
    .@@@@.
    ..@@..
    ......
    ......
    ......

u+2023:
uni2023:
    ......
    ......
    ......
    ..@...
    .@@@..
    @@@@@.
    ......
    ......
    ......
    ......

u+2024:
onedotenleader:
    ......
    ......
    ......
    ......
    ......
    ......
    ......
    ..@...
    ......
    ......

u+2025:
twodotenleader:
    ......
    ......
    ......
    ......
    ......
    ......
    ......
    @...@.
    ......
    ......

u+2026:
ellipsis:
    ......
    ......
    ......
    ......
    ......
    ......
    ......
    @.@.@.
    ......
    ......

u+2027:
uni2027:
    ......
    ......
    ......
    ......
    ..@@..
    ......
    ......
    ......
    ......
    ......

u+2030:
perthousand:
    ......
    .@..@.
    @.@.@.
    .@.@..
    ..@...
    .@@.@.
    @@.@.@
    @.@.@.
    ......
    ......

u+2032:
minute:
    ...@..
    ...@..
    ..@...
    ......
    ......
    ......
    ......
    ......
    ......
    ......

u+2033:
second:
    ..@.@.
    ..@.@.
    .@.@..
    ......
    ......
    ......
    ......
    ......
    ......
    ......

u+2034:
uni2034:
    .@.@.@
    .@.@.@
    @.@.@.
    ......
    ......
    ......
    ......
    ......
    ......
    ......

u+2035:
uni2035:
    ..@...
    ..@...
    ...@..
    ......
    ......
    ......
    ......
    ......
    ......
    ......

u+2036:
uni2036:
    .@.@..
    .@.@..
    ..@.@.
    ......
    ......
    ......
    ......
    ......
    ......
    ......

u+2037:
uni2037:
    @.@.@.
    @.@.@.
    .@.@.@
    ......
    ......
    ......
    ......
    ......
    ......
    ......

u+2039:
guilsinglleft:
    ......
    ......
    ......
    ...@..
    ..@...
    .@....
    ..@...
    ...@..
    ......
    ......

u+203a:
guilsinglright:
    ......
    ......
    ......
    .@....
    ..@...
    ...@..
    ..@...
    .@....
    ......
    ......

u+203c:
exclamdbl:
    ......
    .@.@..
    .@.@..
    .@.@..
    .@.@..
    .@.@..
    ......
    .@.@..
    ......
    ......

u+203e:
uni203E:
    @@@@@@
    ......
    ......
    ......
    ......
    ......
    ......
    ......
    ......
    ......

u+2044:
fraction:
    ......
    ....@.
    ....@.
    ...@..
    ..@...
    .@....
    @.....
    @.....
    ......
    ......

u+2070:
zerosuperior:
    ..@@..
    .@..@.
    .@..@.
    .@..@.
    ..@@..
    ......
    ......
    ......
    ......
    ......

u+2071:
uni2071:
    ..@...
    ......
    .@@...
    ..@...
    .@@@..
    ......
    ......
    ......
    ......
    ......

u+2074:
foursuperior:
    ...@..
    ..@@..
    .@.@..
    .@@@@.
    ...@..
    ......
    ......
    ......
    ......
    ......

u+2075:
fivesuperior:
    .@@@@.
    .@....
    .@@@..
    ....@.
    .@@@..
    ......
    ......
    ......
    ......
    ......

u+2076:
sixsuperior:
    ..@@@.
    .@....
    .@@@..
    .@..@.
    ..@@..
    ......
    ......
    ......
    ......
    ......

u+2077:
sevensuperior:
    .@@@@.
    ....@.
    ...@..
    ..@...
    ..@...
    ......
    ......
    ......
    ......
    ......

u+2078:
eightsuperior:
    ..@@..
    .@..@.
    ..@@..
    .@..@.
    ..@@..
    ......
    ......
    ......
    ......
    ......

u+2079:
ninesuperior:
    ..@@..
    .@..@.
    ..@@@.
    ....@.
    ..@@..
    ......
    ......
    ......
    ......
    ......

u+207a:
uni207A:
    ......
    ..@...
    .@@@..
    ..@...
    ......
    ......
    ......
    ......
    ......
    ......

u+207b:
uni207B:
    ......
    ......
    .@@@..
    ......
    ......
    ......
    ......
    ......
    ......
    ......

u+207c:
uni207C:
    ......
    .@@@@.
    ......
    .@@@@.
    ......
    ......
    ......
    ......
    ......
    ......

u+207d:
parenleftsuperior:
    ...@..
    ..@...
    ..@...
    ..@...
    ...@..
    ......
    ......
    ......
    ......
    ......

u+207e:
parenrightsuperior:
    ..@...
    ...@..
    ...@..
    ...@..
    ..@...
    ......
    ......
    ......
    ......
    ......

u+207f:
nsuperior:
    ......
    .@.@..
    .@@.@.
    .@..@.
    .@..@.
    ......
    ......
    ......
    ......
    ......

u+2080:
zeroinferior:
    ......
    ......
    ......
    ......
    ......
    ..@@..
    .@..@.
    .@..@.
    .@..@.
    ..@@..

u+2081:
oneinferior:
    ......
    ......
    ......
    ......
    ......
    ..@...
    .@@...
    ..@...
    ..@...
    .@@@..

u+2082:
twoinferior:
    ......
    ......
    ......
    ......
    ......
    ..@@..
    .@..@.
    ...@..
    ..@...
    .@@@@.

u+2083:
threeinferior:
    ......
    ......
    ......
    ......
    ......
    .@@@..
    ....@.
    ..@@..
    ....@.
    .@@@..

u+2084:
fourinferior:
    ......
    ......
    ......
    ......
    ......
    ...@..
    ..@@..
    .@.@..
    .@@@@.
    ...@..

u+2085:
fiveinferior:
    ......
    ......
    ......
    ......
    ......
    .@@@@.
    .@....
    .@@@..
    ....@.
    .@@@..

u+2086:
sixinferior:
    ......
    ......
    ......
    ......
    ......
    ..@@@.
    .@....
    .@@@..
    .@..@.
    ..@@..

u+2087:
seveninferior:
    ......
    ......
    ......
    ......
    ......
    .@@@@.
    ....@.
    ...@..
    ..@...
    ..@...

u+2088:
eightinferior:
    ......
    ......
    ......
    ......
    ......
    ..@@..
    .@..@.
    ..@@..
    .@..@.
    ..@@..

u+2089:
nineinferior:
    ......
    ......
    ......
    ......
    ......
    ..@@..
    .@..@.
    ..@@@.
    ....@.
    ..@@..

u+208a:
uni208A:
    ......
    ......
    ......
    ......
    ......
    ......
    ..@...
    .@@@..
    ..@...
    ......

u+208b:
uni208B:
    ......
    ......
    ......
    ......
    ......
    ......
    ......
    .@@@..
    ......
    ......

u+208c:
uni208C:
    ......
    ......
    ......
    ......
    ......
    ......
    .@@@@.
    ......
    .@@@@.
    ......

u+208d:
parenleftinferior:
    ......
    ......
    ......
    ......
    ......
    ...@..
    ..@...
    ..@...
    ..@...
    ...@..

u+208e:
parenrightinferior:
    ......
    ......
    ......
    ......
    ......
    ..@...
    ...@..
    ...@..
    ...@..
    ..@...

u+20a3:
franc:
    ......
    @@@@@.
    @.....
    @.....
    @@@.@.
    @.@@..
    @.@...
    @.@...
    ......
    ......

u+20a4:
lira:
    ......
    ..@@..
    .@..@.
    @@@...
    .@....
    @@@...
    .@..@.
    @.@@..
    ......
    ......

u+20a7:
peseta:
    ......
    .@@@..
    .@..@.
    @@@@@@
    .@..@.
    .@@@..
    .@....
    .@....
    ......
    ......

u+20ab:
dong:
    ......
    ....@.
    ..@@@@
    .@@.@.
    @..@@.
    @...@.
    @..@@.
    .@@.@.
    ......
    @@@@@.

u+20ac:
Euro:
    ......
    ..@@..
    .@..@.
    @@@...
    .@....
    @@@...
    .@..@.
    ..@@..
    ......
    ......

u+20af:
uni20AF:
    ......
    .@....
    .@@@..
    @@..@.
    .@..@.
    .@..@.
    @@@.@.
    @@.@..
    ......
    ......

u+20d0:
uni20D0:
    .@....
    @@@@@.
    ......
    ......
    ......
    ......
    ......
    ......
    ......
    ......

u+20d1:
uni20D1:
    ...@..
    @@@@@.
    ......
    ......
    ......
    ......
    ......
    ......
    ......
    ......

u+20d2:
uni20D2:
    ..@...
    ..@...
    ..@...
    ..@...
    ..@...
    ..@...
    ..@...
    ..@...
    ..@...
    ..@...

u+20d3:
uni20D3:
    ......
    ......
    ..@...
    ..@...
    ..@...
    ..@...
    ..@...
    ..@...
    ......
    ......

u+20d4:
uni20D4:
    @.@@..
    @@..@.
    @@@...
    ......
    ......
    ......
    ......
    ......
    ......
    ......

u+20d5:
uni20D5:
    .@@.@.
    @..@@.
    ..@@@.
    ......
    ......
    ......
    ......
    ......
    ......
    ......

u+20d6:
uni20D6:
    .@....
    @@@@@.
    .@....
    ......
    ......
    ......
    ......
    ......
    ......
    ......

u+20d7:
uni20D7:
    ...@..
    @@@@@.
    ...@..
    ......
    ......
    ......
    ......
    ......
    ......
    ......

u+2102:
uni2102:
    ......
    .@@@..
    @.@.@.
    @.@...
    @.@...
    @.@...
    @.@.@.
    .@@@..
    ......
    ......

u+2105:
afii61248:
    .@@...
    @.....
    @.....
    .@@...
    ......
    ..@@..
    .@..@.
    .@..@.
    ..@@..
    ......

u+2113:
afii61289:
    ......
    ...@..
    ..@.@.
    ..@.@.
    ..@.@.
    ..@@..
    ..@...
    .@.@@.
    ......
    ......

u+2115:
uni2115:
    ......
    @...@.
    @@..@.
    @@..@.
    @@@.@.
    @@.@@.
    @@.@@.
    @@..@.
    ......
    ......

u+2116:
afii61352:
    ......
    @..@..
    @..@..
    @@.@@.
    @.@@.@
    @..@.@
    @..@@.
    @..@@@
    ......
    ......

u+211a:
uni211A:
    ......
    .@@@..
    @.@.@.
    @.@.@.
    @.@.@.
    @.@.@.
    @.@.@.
    .@@@..
    ...@@.
    ......

u+211d:
uni211D:
    ......
    @@@@..
    @.@.@.
    @.@.@.
    @.@@..
    @.@.@.
    @.@.@.
    @.@.@.
    ......
    ......

u+2122:
trademark:
    @@@@@@
    .@.@@@
    .@.@.@
    .@.@.@
    ......
    ......
    ......
    ......
    ......
    ......

u+2124:
uni2124:
    ......
    @@@@@.
    ..@.@.
    ..@.@.
    .@.@..
    @.@...
    @.@...
    @@@@@.
    ......
    ......

u+2126:
Omega:
    ......
    .@@@..
    @...@.
    @...@.
    @...@.
    @...@.
    .@.@..
    @@.@@.
    ......
    ......

u+2127:
uni2127:
    ......
    @@.@@.
    .@.@..
    @...@.
    @...@.
    @...@.
    @...@.
    .@@@..
    ......
    ......

u+212e:
estimated:
    ......
    ......
    ......
    .@@@..
    @@.@@.
    @@@@@.
    @@....
    .@@@..
    ......
    ......

u+215b:
oneeighth:
    .@....
    @@....
    .@....
    .@....
    @@@...
    ....@.
    ...@.@
    ....@.
    ...@.@
    ....@.

u+215c:
threeeighths:
    @@....
    ..@...
    .@....
    ..@...
    @@....
    ...@..
    ..@.@.
    ...@..
    ..@.@.
    ...@..

u+215d:
fiveeighths:
    @@@...
    @.....
    @@....
    ..@...
    @@....
    ...@..
    ..@.@.
    ...@..
    ..@.@.
    ...@..

u+215e:
seveneighths:
    @@@...
    ..@...
    ..@...
    .@....
    .@....
    ...@..
    ..@.@.
    ...@..
    ..@.@.
    ...@..

u+2190:
arrowleft:
    ......
    ......
    ......
    ..@...
    .@....
    @@@@@@
    .@....
    ..@...
    ......
    ......

u+2191:
arrowup:
    ......
    ..@...
    .@@@..
    @.@.@.
    ..@...
    ..@...
    ..@...
    ..@...
    ......
    ......

u+2192:
arrowright:
    ......
    ......
    ......
    ...@..
    ....@.
    @@@@@@
    ....@.
    ...@..
    ......
    ......

u+2193:
arrowdown:
    ......
    ..@...
    ..@...
    ..@...
    ..@...
    @.@.@.
    .@@@..
    ..@...
    ......
    ......

u+2194:
arrowboth:
    ......
    ......
    ......
    ......
    .@..@.
    @@@@@@
    .@..@.
    ......
    ......
    ......

u+2195:
arrowupdn:
    ......
    ..@...
    .@@@..
    @.@.@.
    ..@...
    ..@...
    @.@.@.
    .@@@..
    ..@...
    ......

u+2196:
uni2196:
    ......
    ......
    @@@@..
    @@....
    @.@...
    @..@..
    ....@.
    ......
    ......
    ......

u+2197:
uni2197:
    ......
    ......
    .@@@@.
    ...@@.
    ..@.@.
    .@..@.
    @.....
    ......
    ......
    ......

u+2198:
uni2198:
    ......
    ......
    @.....
    .@..@.
    ..@.@.
    ...@@.
    .@@@@.
    ......
    ......
    ......

u+2199:
uni2199:
    ......
    ......
    ....@.
    @..@..
    @.@...
    @@....
    @@@@..
    ......
    ......
    ......

u+21a4:
uni21A4:
    ......
    ......
    ......
    ..@..@
    .@...@
    @@@@@@
    .@...@
    ..@..@
    ......
    ......

u+21a5:
uni21A5:
    ......
    ..@...
    .@@@..
    @.@.@.
    ..@...
    ..@...
    ..@...
    .@@@..
    ......
    ......

u+21a6:
uni21A6:
    ......
    ......
    ......
    ...@..
    @...@.
    @@@@@@
    @...@.
    ...@..
    ......
    ......

u+21a7:
uni21A7:
    ......
    .@@@..
    ..@...
    ..@...
    ..@...
    @.@.@.
    .@@@..
    ..@...
    ......
    ......

u+21a8:
arrowupdnbse:
    ..@...
    .@@@..
    @.@.@.
    ..@...
    ..@...
    @.@.@.
    .@@@..
    ..@...
    @@@@@.
    ......

u+21c4:
uni21C4:
    ......
    ...@..
    ....@.
    @@@@@@
    ....@.
    ..@@..
    .@....
    @@@@@@
    .@....
    ..@...

u+21c6:
uni21C6:
    ......
    ..@...
    .@....
    @@@@@@
    .@....
    ..@@..
    ....@.
    @@@@@@
    ....@.
    ...@..

u+21cb:
uni21CB:
    ......
    ......
    ..@...
    .@....
    @@@@@@
    ......
    @@@@@@
    ....@.
    ...@..
    ......

u+21cc:
uni21CC:
    ......
    ......
    ...@..
    ....@.
    @@@@@@
    ......
    @@@@@@
    .@....
    ..@...
    ......

u+21d0:
arrowdblleft:
    ......
    ...@..
    ..@...
    .@@@@@
    @.....
    .@@@@@
    ..@...
    ...@..
    ......
    ......

u+21d1:
arrowdblup:
    ......
    ..@...
    .@@@..
    @@.@@.
    .@.@..
    .@.@..
    .@.@..
    .@.@..
    ......
    ......

u+21d2:
arrowdblright:
    ......
    ..@...
    ...@..
    @@@@@.
    .....@
    @@@@@.
    ...@..
    ..@...
    ......
    ......

u+21d3:
arrowdbldown:
    ......
    .@.@..
    .@.@..
    .@.@..
    .@.@..
    @@.@@.
    .@@@..
    ..@...
    ......
    ......

u+21d4:
arrowdblboth:
    ......
    ......
    ......
    .@@@@.
    @....@
    .@@@@.
    ......
    ......
    ......
    ......

u+21d5:
uni21D5:
    ......
    ..@...
    .@.@..
    @@.@@.
    .@.@..
    .@.@..
    @@.@@.
    .@.@..
    ..@...
    ......

u+2200:
universal:
    ......
    @...@.
    @...@.
    .@@@..
    .@.@..
    .@.@..
    ..@...
    ..@...
    ......
    ......

u+2201:
uni2201:
    ......
    ..@...
    .@.@..
    .@....
    .@....
    .@....
    .@.@..
    ..@...
    ......
    ......

u+2202:
partialdiff:
    ......
    ..@@..
    ....@.
    .@@.@.
    @..@@.
    @...@.
    @...@.
    .@@@..
    ......
    ......

u+2203:
existential:
    ......
    @@@@@.
    ....@.
    ....@.
    .@@@@.
    ....@.
    ....@.
    @@@@@.
    ......
    ......

u+2204:
uni2204:
    ..@...
    @@@@@.
    ..@.@.
    ..@.@.
    .@@@@.
    ..@.@.
    ..@.@.
    @@@@@.
    ..@...
    ......

u+2205:
emptyset:
    ......
    ......
    ..@@.@
    .@..@.
    @..@.@
    @.@..@
    .@..@.
    @.@@..
    ......
    ......

u+2206:
Delta:
    ......
    ......
    ..@...
    ..@...
    .@.@..
    .@.@..
    @...@.
    @@@@@.
    ......
    ......

u+2207:
gradient:
    ......
    ......
    @@@@@.
    @...@.
    .@.@..
    .@.@..
    ..@...
    ..@...
    ......
    ......

u+2208:
element:
    ......
    .@@@@.
    @.....
    @.....
    @@@@..
    @.....
    @.....
    .@@@@.
    ......
    ......

u+2209:
notelement:
    ..@...
    .@@@@.
    @.@...
    @.@...
    @@@@..
    @.@...
    @.@...
    .@@@@.
    ..@...
    ......

u+220b:
suchthat:
    ......
    @@@@..
    ....@.
    ....@.
    .@@@@.
    ....@.
    ....@.
    @@@@..
    ......
    ......

u+220c:
uni220C:
    ..@...
    @@@@..
    ..@.@.
    ..@.@.
    .@@@@.
    ..@.@.
    ..@.@.
    @@@@..
    ..@...
    ......

u+220f:
product:
    @@@@@.
    .@.@..
    .@.@..
    .@.@..
    .@.@..
    .@.@..
    .@.@..
    .@.@..
    .@.@..
    ......

u+2211:
summation:
    @@@@@.
    @.....
    .@....
    ..@...
    ...@..
    ..@...
    .@....
    @.....
    @@@@@.
    ......

u+2212:
minus:
    ......
    ......
    ......
    ......
    @@@@@.
    ......
    ......
    ......
    ......
    ......

u+2213:
uni2213:
    ......
    ......
    @@@@@.
    ..@...
    ..@...
    @@@@@.
    ..@...
    ..@...
    ......
    ......

u+2215:
fraction:
    ......
    ....@.
    ....@.
    ...@..
    ..@...
    .@....
    @.....
    @.....
    ......
    ......

u+2218:
uni2218:
    ......
    ......
    ......
    ..@@..
    .@..@.
    .@..@.
    ..@@..
    ......
    ......
    ......

u+2219:
periodcentered:
    ......
    ......
    ......
    ..@@..
    .@@@@.
    .@@@@.
    ..@@..
    ......
    ......
    ......

u+221a:
radical:
    ......
    ......
    ....@@
    ...@..
    ...@..
    ..@...
    @.@...
    .@....
    ......
    ......

u+221d:
proportional:
    ......
    ......
    ......
    ..@.@.
    .@.@..
    .@.@..
    ..@.@.
    ......
    ......
    ......

u+221e:
infinity:
    ......
    ......
    ......
    .@.@..
    @.@.@.
    @.@.@.
    .@.@..
    ......
    ......
    ......

u+221f:
orthogonal:
    ......
    ......
    @.....
    @.....
    @.....
    @.....
    @@@@@.
    ......
    ......
    ......

u+2221:
uni2221:
    ......
    ......
    ......
    .@.@..
    ..@...
    .@.@..
    @..@..
    @@@@@.
    ...@..
    ......

u+2224:
uni2224:
    ......
    ..@...
    ..@...
    ..@@..
    ..@...
    .@@...
    ..@...
    ..@...
    ......
    ......

u+2225:
uni2225:
    ......
    .@.@..
    .@.@..
    .@.@..
    .@.@..
    .@.@..
    .@.@..
    .@.@..
    ......
    ......

u+2226:
uni2226:
    ......
    .@.@..
    .@.@..
    .@.@@.
    .@@@..
    @@.@..
    .@.@..
    .@.@..
    ......
    ......

u+2227:
logicaland:
    ......
    ......
    ..@...
    ..@...
    .@.@..
    .@.@..
    @...@.
    @...@.
    ......
    ......

u+2228:
logicalor:
    ......
    ......
    @...@.
    @...@.
    .@.@..
    .@.@..
    ..@...
    ..@...
    ......
    ......

u+2229:
intersection:
    ......
    ......
    .@@@..
    @...@.
    @...@.
    @...@.
    @...@.
    @...@.
    ......
    ......

u+222a:
union:
    ......
    ......
    @...@.
    @...@.
    @...@.
    @...@.
    @...@.
    .@@@..
    ......
    ......

u+222b:
integral:
    ...@..
    ..@.@.
    ..@...
    ..@...
    ..@...
    ..@...
    ..@...
    ..@...
    @.@...
    .@....

u+222e:
uni222E:
    ...@..
    ..@.@.
    ..@...
    .@@@..
    @.@.@.
    @.@.@.
    .@@@..
    ..@...
    @.@...
    .@....

u+223c:
similar:
    ......
    ......
    ......
    .@..@.
    @.@.@.
    @..@..
    ......
    ......
    ......
    ......

u+2243:
uni2243:
    ......
    ......
    ......
    .@....
    @.@.@.
    ...@..
    ......
    @@@@@.
    ......
    ......

u+2245:
congruent:
    ......
    .@....
    @.@.@.
    ...@..
    ......
    @@@@@.
    ......
    @@@@@.
    ......
    ......

u+2248:
approxequal:
    ......
    ......
    ......
    .@....
    @.@.@.
    .@.@..
    @.@.@.
    ...@..
    ......
    ......

u+2249:
uni2249:
    ......
    ......
    ..@...
    .@@...
    @.@.@.
    .@@@..
    @.@.@.
    ..@@..
    ..@...
    ......

u+2259:
uni2259:
    ......
    ......
    ..@...
    .@.@..
    ......
    @@@@@.
    ......
    @@@@@.
    ......
    ......

u+225f:
uni225F:
    .@@...
    ...@..
    ..@...
    ......
    ..@...
    ......
    @@@@@.
    ......
    @@@@@.
    ......

u+2260:
notequal:
    ......
    ....@.
    ...@..
    @@@@@.
    ..@...
    @@@@@.
    .@....
    @.....
    ......
    ......

u+2261:
equivalence:
    ......
    ......
    ......
    @@@@@.
    ......
    @@@@@.
    ......
    @@@@@.
    ......
    ......

u+2262:
uni2262:
    ......
    ......
    ....@.
    @@@@@.
    ...@..
    @@@@@.
    ..@...
    @@@@@.
    .@....
    ......

u+2264:
lessequal:
    ......
    ...@@.
    .@@...
    @.....
    .@@...
    ...@@.
    ......
    @@@@@.
    ......
    ......

u+2265:
greaterequal:
    ......
    @@....
    ..@@..
    ....@.
    ..@@..
    @@....
    ......
    @@@@@.
    ......
    ......

u+226a:
uni226A:
    ......
    ......
    ......
    ..@..@
    .@..@.
    @..@..
    .@..@.
    ..@..@
    ......
    ......

u+226b:
uni226B:
    ......
    ......
    ......
    @..@..
    .@..@.
    ..@..@
    .@..@.
    @..@..
    ......
    ......

u+2282:
propersubset:
    ......
    ......
    ......
    .@@@@.
    @.....
    @.....
    @.....
    .@@@@.
    ......
    ......

u+2283:
propersuperset:
    ......
    ......
    ......
    @@@@..
    ....@.
    ....@.
    ....@.
    @@@@..
    ......
    ......

u+2284:
notsubset:
    ......
    ......
    ..@...
    .@@@@.
    @.@...
    @.@...
    @.@...
    .@@@@.
    ..@...
    ......

u+2285:
uni2285:
    ......
    ......
    ..@...
    @@@@..
    ..@.@.
    ..@.@.
    ..@.@.
    @@@@..
    ..@...
    ......

u+2286:
reflexsubset:
    ......
    .@@@@.
    @.....
    @.....
    @.....
    .@@@@.
    ......
    @@@@@.
    ......
    ......

u+2287:
reflexsuperset:
    ......
    @@@@..
    ....@.
    ....@.
    ....@.
    @@@@..
    ......
    @@@@@.
    ......
    ......

u+2288:
uni2288:
    ..@...
    .@@@@.
    @.@...
    @.@...
    @.@...
    .@@@@.
    ..@...
    @@@@@.
    ..@...
    ......

u+2289:
uni2289:
    ..@...
    @@@@..
    ..@.@.
    ..@.@.
    ..@.@.
    @@@@..
    ..@...
    @@@@@.
    ..@...
    ......

u+228a:
uni228A:
    ......
    .@@@@.
    @.....
    @.....
    @.....
    .@@@@.
    ..@...
    @@@@@.
    ..@...
    ......

u+228b:
uni228B:
    ......
    @@@@..
    ....@.
    ....@.
    ....@.
    @@@@..
    ..@...
    @@@@@.
    ..@...
    ......

u+2295:
circleplus:
    ......
    ......
    .@@@..
    @.@.@.
    @@@@@.
    @.@.@.
    .@@@..
    ......
    ......
    ......

u+2297:
circlemultiply:
    ......
    ......
    .@@@..
    @@.@@.
    @.@.@.
    @@.@@.
    .@@@..
    ......
    ......
    ......

u+22a4:
uni22A4:
    ......
    @@@@@.
    ..@...
    ..@...
    ..@...
    ..@...
    ..@...
    ..@...
    ......
    ......

u+22a5:
perpendicular:
    ......
    ..@...
    ..@...
    ..@...
    ..@...
    ..@...
    ..@...
    @@@@@.
    ......
    ......

u+22a6:
uni22A6:
    ......
    .@....
    .@....
    .@....
    .@@@..
    .@....
    .@....
    .@....
    ......
    ......

u+22a7:
uni22A7:
    ......
    .@....
    .@....
    .@@@..
    .@....
    .@@@..
    .@....
    .@....
    ......
    ......

u+22c0:
uni22C0:
    ..@...
    ..@...
    ..@...
    .@.@..
    .@.@..
    .@.@..
    @...@.
    @...@.
    @...@.
    ......

u+22c1:
uni22C1:
    @...@.
    @...@.
    @...@.
    .@.@..
    .@.@..
    .@.@..
    ..@...
    ..@...
    ..@...
    ......

u+22c2:
uni22C2:
    .@@@..
    @...@.
    @...@.
    @...@.
    @...@.
    @...@.
    @...@.
    @...@.
    @...@.
    ......

u+22c3:
uni22C3:
    @...@.
    @...@.
    @...@.
    @...@.
    @...@.
    @...@.
    @...@.
    @...@.
    .@@@..
    ......

u+22c5:
dotmath:
    ......
    ......
    ......
    ......
    ..@...
    ......
    ......
    ......
    ......
    ......

u+22ee:
uni22EE:
    ......
    ..@...
    ......
    ......
    ..@...
    ......
    ......
    ..@...
    ......
    ......

u+22ef:
uni22EF:
    ......
    ......
    ......
    ......
    @.@.@.
    ......
    ......
    ......
    ......
    ......

u+22f0:
uni22F0:
    ......
    ....@.
    ......
    ......
    ..@...
    ......
    ......
    @.....
    ......
    ......

u+22f1:
uni22F1:
    ......
    @.....
    ......
    ......
    ..@...
    ......
    ......
    ....@.
    ......
    ......

u+2300:
uni2300:
    ......
    ......
    ......
    .@@@@.
    @..@@.
    @.@.@.
    @@..@.
    @@@@..
    ......
    ......

u+2302:
house:
    ......
    ......
    ..@...
    .@.@..
    @...@.
    @...@.
    @...@.
    @@@@@.
    ......
    ......

u+2308:
uni2308:
    ......
    .@@@..
    .@....
    .@....
    .@....
    .@....
    .@....
    .@....
    ......
    ......

u+2309:
uni2309:
    ......
    .@@@..
    ...@..
    ...@..
    ...@..
    ...@..
    ...@..
    ...@..
    ......
    ......

u+230a:
uni230A:
    ......
    .@....
    .@....
    .@....
    .@....
    .@....
    .@....
    .@@@..
    ......
    ......

u+230b:
uni230B:
    ......
    ...@..
    ...@..
    ...@..
    ...@..
    ...@..
    ...@..
    .@@@..
    ......
    ......

u+2310:
revlogicalnot:
    ......
    ......
    ......
    ......
    .@@@@.
    .@....
    ......
    ......
    ......
    ......

u+2320:
integraltp:
    ......
    ......
    ...@..
    ..@.@.
    ..@...
    ..@...
    ..@...
    ..@...
    ..@...
    ..@...

u+2321:
integralbt:
    ..@...
    ..@...
    ..@...
    ..@...
    ..@...
    ..@...
    @.@...
    .@....
    ......
    ......

u+23ba:
uni23BA:
    @@@@@@
    ......
    ......
    ......
    ......
    ......
    ......
    ......
    ......
    ......

u+23bb:
uni23BB:
    ......
    ......
    @@@@@@
    ......
    ......
    ......
    ......
    ......
    ......
    ......

u+23bc:
uni23BC:
    ......
    ......
    ......
    ......
    ......
    ......
    ......
    @@@@@@
    ......
    ......

u+23bd:
uni23BD:
    ......
    ......
    ......
    ......
    ......
    ......
    ......
    ......
    ......
    @@@@@@

u+2409:
uni2409:
    ......
    @..@..
    @..@..
    @@@@..
    @..@..
    @..@..
    .@@@@.
    ...@..
    ...@..
    ...@..

u+240a:
uni240A:
    ......
    @.....
    @.....
    @.....
    @@@@..
    .@@@@.
    .@....
    .@@@..
    .@....
    .@....

u+240b:
uni240B:
    ......
    @..@..
    @..@..
    .@@...
    .@....
    .@@@@.
    ...@..
    ...@..
    ...@..
    ...@..

u+240c:
uni240C:
    ......
    @@@...
    @.....
    @@....
    @.....
    @.@@@.
    ..@...
    ..@@..
    ..@...
    ..@...

u+240d:
uni240D:
    ......
    .@@@..
    @.....
    @.....
    .@@@..
    .@@@..
    .@..@.
    .@@@..
    .@..@.
    .@..@.

u+2424:
uni2424:
    ......
    @..@..
    @@.@..
    @@.@..
    @.@@..
    @..@..
    .@....
    .@....
    .@....
    .@@@@.

u+2500:
SF100000:
    ......
    ......
    ......
    ......
    ......
    @@@@@@
    ......
    ......
    ......
    ......

u+2501:
uni2501:
    ......
    ......
    ......
    ......
    @@@@@@
    @@@@@@
    ......
    ......
    ......
    ......

u+2502:
SF110000:
    ..@...
    ..@...
    ..@...
    ..@...
    ..@...
    ..@...
    ..@...
    ..@...
    ..@...
    ..@...

u+2503:
uni2503:
    ..@@..
    ..@@..
    ..@@..
    ..@@..
    ..@@..
    ..@@..
    ..@@..
    ..@@..
    ..@@..
    ..@@..

u+2504:
uni2504:
    ......
    ......
    ......
    ......
    ......
    @.@.@.
    ......
    ......
    ......
    ......

u+2505:
uni2505:
    ......
    ......
    ......
    ......
    @.@.@.
    @.@.@.
    ......
    ......
    ......
    ......

u+2506:
uni2506:
    ..@...
    ..@...
    ......
    ..@...
    ..@...
    ..@...
    ......
    ..@...
    ..@...
    ......

u+2507:
uni2507:
    ..@@..
    ..@@..
    ......
    ..@@..
    ..@@..
    ..@@..
    ......
    ..@@..
    ..@@..
    ......

u+2508:
uni2508:
    ......
    ......
    ......
    ......
    ......
    @.@.@.
    ......
    ......
    ......
    ......

u+2509:
uni2509:
    ......
    ......
    ......
    ......
    @.@.@.
    @.@.@.
    ......
    ......
    ......
    ......

u+250a:
uni250A:
    ..@...
    ..@...
    ......
    ..@...
    ......
    ..@...
    ..@...
    ......
    ..@...
    ......

u+250b:
uni250B:
    ..@@..
    ..@@..
    ......
    ..@@..
    ......
    ..@@..
    ..@@..
    ......
    ..@@..
    ......

u+250c:
SF010000:
    ......
    ......
    ......
    ......
    ......
    ..@@@@
    ..@...
    ..@...
    ..@...
    ..@...

u+250d:
uni250D:
    ......
    ......
    ......
    ......
    ..@@@@
    ..@@@@
    ..@...
    ..@...
    ..@...
    ..@...

u+250e:
uni250E:
    ......
    ......
    ......
    ......
    ......
    ..@@@@
    ..@@..
    ..@@..
    ..@@..
    ..@@..

u+250f:
uni250F:
    ......
    ......
    ......
    ......
    ..@@@@
    ..@@@@
    ..@@..
    ..@@..
    ..@@..
    ..@@..

u+2510:
SF030000:
    ......
    ......
    ......
    ......
    ......
    @@@...
    ..@...
    ..@...
    ..@...
    ..@...

u+2511:
uni2511:
    ......
    ......
    ......
    ......
    @@@...
    @@@...
    ..@...
    ..@...
    ..@...
    ..@...

u+2512:
uni2512:
    ......
    ......
    ......
    ......
    ......
    @@@@..
    ..@@..
    ..@@..
    ..@@..
    ..@@..

u+2513:
uni2513:
    ......
    ......
    ......
    ......
    @@@@..
    @@@@..
    ..@@..
    ..@@..
    ..@@..
    ..@@..

u+2514:
SF020000:
    ..@...
    ..@...
    ..@...
    ..@...
    ..@...
    ..@@@@
    ......
    ......
    ......
    ......

u+2515:
uni2515:
    ..@...
    ..@...
    ..@...
    ..@...
    ..@@@@
    ..@@@@
    ......
    ......
    ......
    ......

u+2516:
uni2516:
    ..@@..
    ..@@..
    ..@@..
    ..@@..
    ..@@..
    ..@@@@
    ......
    ......
    ......
    ......

u+2517:
uni2517:
    ..@@..
    ..@@..
    ..@@..
    ..@@..
    ..@@@@
    ..@@@@
    ......
    ......
    ......
    ......

u+2518:
SF040000:
    ..@...
    ..@...
    ..@...
    ..@...
    ..@...
    @@@...
    ......
    ......
    ......
    ......

u+2519:
uni2519:
    ..@...
    ..@...
    ..@...
    ..@...
    @@@...
    @@@...
    ......
    ......
    ......
    ......

u+251a:
uni251A:
    ..@@..
    ..@@..
    ..@@..
    ..@@..
    ..@@..
    @@@@..
    ......
    ......
    ......
    ......

u+251b:
uni251B:
    ..@@..
    ..@@..
    ..@@..
    ..@@..
    @@@@..
    @@@@..
    ......
    ......
    ......
    ......

u+251c:
SF080000:
    ..@...
    ..@...
    ..@...
    ..@...
    ..@...
    ..@@@@
    ..@...
    ..@...
    ..@...
    ..@...

u+251d:
uni251D:
    ..@...
    ..@...
    ..@...
    ..@...
    ..@@@@
    ..@@@@
    ..@...
    ..@...
    ..@...
    ..@...

u+251e:
uni251E:
    ..@@..
    ..@@..
    ..@@..
    ..@@..
    ..@@..
    ..@@@@
    ..@...
    ..@...
    ..@...
    ..@...

u+251f:
uni251F:
    ..@...
    ..@...
    ..@...
    ..@...
    ..@...
    ..@@@@
    ..@@..
    ..@@..
    ..@@..
    ..@@..

u+2520:
uni2520:
    ..@@..
    ..@@..
    ..@@..
    ..@@..
    ..@@..
    ..@@@@
    ..@@..
    ..@@..
    ..@@..
    ..@@..

u+2521:
uni2521:
    ..@@..
    ..@@..
    ..@@..
    ..@@..
    ..@@@@
    ..@@@@
    ..@...
    ..@...
    ..@...
    ..@...

u+2522:
uni2522:
    ..@...
    ..@...
    ..@...
    ..@...
    ..@@@@
    ..@@@@
    ..@@..
    ..@@..
    ..@@..
    ..@@..

u+2523:
uni2523:
    ..@@..
    ..@@..
    ..@@..
    ..@@..
    ..@@@@
    ..@@@@
    ..@@..
    ..@@..
    ..@@..
    ..@@..

u+2524:
SF090000:
    ..@...
    ..@...
    ..@...
    ..@...
    ..@...
    @@@...
    ..@...
    ..@...
    ..@...
    ..@...

u+2525:
uni2525:
    ..@...
    ..@...
    ..@...
    ..@...
    @@@...
    @@@...
    ..@...
    ..@...
    ..@...
    ..@...

u+2526:
uni2526:
    ..@@..
    ..@@..
    ..@@..
    ..@@..
    ..@@..
    @@@...
    ..@...
    ..@...
    ..@...
    ..@...

u+2527:
uni2527:
    ..@...
    ..@...
    ..@...
    ..@...
    ..@...
    @@@@..
    ..@@..
    ..@@..
    ..@@..
    ..@@..

u+2528:
uni2528:
    ..@@..
    ..@@..
    ..@@..
    ..@@..
    ..@@..
    @@@@..
    ..@@..
    ..@@..
    ..@@..
    ..@@..

u+2529:
uni2529:
    ..@@..
    ..@@..
    ..@@..
    ..@@..
    @@@@..
    @@@...
    ..@...
    ..@...
    ..@...
    ..@...

u+252a:
uni252A:
    ..@...
    ..@...
    ..@...
    ..@...
    @@@...
    @@@@..
    ..@@..
    ..@@..
    ..@@..
    ..@@..

u+252b:
uni252B:
    ..@@..
    ..@@..
    ..@@..
    ..@@..
    @@@@..
    @@@@..
    ..@@..
    ..@@..
    ..@@..
    ..@@..

u+252c:
SF060000:
    ......
    ......
    ......
    ......
    ......
    @@@@@@
    ..@...
    ..@...
    ..@...
    ..@...

u+252d:
uni252D:
    ......
    ......
    ......
    ......
    @@@...
    @@@@@@
    ..@...
    ..@...
    ..@...
    ..@...

u+252e:
uni252E:
    ......
    ......
    ......
    ......
    ...@@@
    @@@@@@
    ..@...
    ..@...
    ..@...
    ..@...

u+252f:
uni252F:
    ......
    ......
    ......
    ......
    @@@@@@
    @@@@@@
    ..@...
    ..@...
    ..@...
    ..@...

u+2530:
uni2530:
    ......
    ......
    ......
    ......
    ......
    @@@@@@
    ..@@..
    ..@@..
    ..@@..
    ..@@..

u+2531:
uni2531:
    ......
    ......
    ......
    ......
    @@@...
    @@@@@@
    ..@@..
    ..@@..
    ..@@..
    ..@@..

u+2532:
uni2532:
    ......
    ......
    ......
    ......
    ...@@@
    @@@@@@
    ..@@..
    ..@@..
    ..@@..
    ..@@..

u+2533:
uni2533:
    ......
    ......
    ......
    ......
    @@@@@@
    @@@@@@
    ..@@..
    ..@@..
    ..@@..
    ..@@..

u+2534:
SF070000:
    ..@...
    ..@...
    ..@...
    ..@...
    ..@...
    @@@@@@
    ......
    ......
    ......
    ......

u+2535:
uni2535:
    ..@...
    ..@...
    ..@...
    ..@...
    @@@...
    @@@@@@
    ......
    ......
    ......
    ......

u+2536:
uni2536:
    ..@...
    ..@...
    ..@...
    ..@...
    ..@@@@
    @@@@@@
    ......
    ......
    ......
    ......

u+2537:
uni2537:
    ..@...
    ..@...
    ..@...
    ..@...
    @@@@@@
    @@@@@@
    ......
    ......
    ......
    ......

u+2538:
uni2538:
    ..@@..
    ..@@..
    ..@@..
    ..@@..
    ..@@..
    @@@@@@
    ......
    ......
    ......
    ......

u+2539:
uni2539:
    ..@@..
    ..@@..
    ..@@..
    ..@@..
    @@@@..
    @@@@@@
    ......
    ......
    ......
    ......

u+253a:
uni253A:
    ..@@..
    ..@@..
    ..@@..
    ..@@..
    ..@@@@
    @@@@@@
    ......
    ......
    ......
    ......

u+253b:
uni253B:
    ..@@..
    ..@@..
    ..@@..
    ..@@..
    @@@@@@
    @@@@@@
    ......
    ......
    ......
    ......

u+253c:
SF050000:
    ..@...
    ..@...
    ..@...
    ..@...
    ..@...
    @@@@@@
    ..@...
    ..@...
    ..@...
    ..@...

u+253d:
uni253D:
    ..@...
    ..@...
    ..@...
    ..@...
    @@@...
    @@@@@@
    ..@...
    ..@...
    ..@...
    ..@...

u+253e:
uni253E:
    ..@...
    ..@...
    ..@...
    ..@...
    ..@@@@
    @@@@@@
    ..@...
    ..@...
    ..@...
    ..@...

u+253f:
uni253F:
    ..@...
    ..@...
    ..@...
    ..@...
    @@@@@@
    @@@@@@
    ..@...
    ..@...
    ..@...
    ..@...

u+2540:
uni2540:
    ..@@..
    ..@@..
    ..@@..
    ..@@..
    ..@@..
    @@@@@@
    ..@...
    ..@...
    ..@...
    ..@...

u+2541:
uni2541:
    ..@...
    ..@...
    ..@...
    ..@...
    ..@...
    @@@@@@
    ..@@..
    ..@@..
    ..@@..
    ..@@..

u+2542:
uni2542:
    ..@@..
    ..@@..
    ..@@..
    ..@@..
    ..@@..
    @@@@@@
    ..@@..
    ..@@..
    ..@@..
    ..@@..

u+2543:
uni2543:
    ..@@..
    ..@@..
    ..@@..
    ..@@..
    @@@@..
    @@@@@@
    ..@...
    ..@...
    ..@...
    ..@...

u+2544:
uni2544:
    ..@@..
    ..@@..
    ..@@..
    ..@@..
    ..@@@@
    @@@@@@
    ..@...
    ..@...
    ..@...
    ..@...

u+2545:
uni2545:
    ..@...
    ..@...
    ..@...
    ..@...
    @@@...
    @@@@@@
    ..@@..
    ..@@..
    ..@@..
    ..@@..

u+2546:
uni2546:
    ..@...
    ..@...
    ..@...
    ..@...
    ..@@@@
    @@@@@@
    ..@@..
    ..@@..
    ..@@..
    ..@@..

u+2547:
uni2547:
    ..@@..
    ..@@..
    ..@@..
    ..@@..
    @@@@@@
    @@@@@@
    ..@...
    ..@...
    ..@...
    ..@...

u+2548:
uni2548:
    ..@...
    ..@...
    ..@...
    ..@...
    @@@@@@
    @@@@@@
    ..@@..
    ..@@..
    ..@@..
    ..@@..

u+2549:
uni2549:
    ..@@..
    ..@@..
    ..@@..
    ..@@..
    @@@@..
    @@@@@@
    ..@@..
    ..@@..
    ..@@..
    ..@@..

u+254a:
uni254A:
    ..@@..
    ..@@..
    ..@@..
    ..@@..
    ..@@@@
    @@@@@@
    ..@@..
    ..@@..
    ..@@..
    ..@@..

u+254b:
uni254B:
    ..@@..
    ..@@..
    ..@@..
    ..@@..
    @@@@@@
    @@@@@@
    ..@@..
    ..@@..
    ..@@..
    ..@@..

u+254c:
uni254C:
    ......
    ......
    ......
    ......
    ......
    @@.@@.
    ......
    ......
    ......
    ......

u+254d:
uni254D:
    ......
    ......
    ......
    ......
    @@.@@.
    @@.@@.
    ......
    ......
    ......
    ......

u+254e:
uni254E:
    ..@...
    ..@...
    ..@...
    ..@...
    ......
    ..@...
    ..@...
    ..@...
    ..@...
    ......

u+254f:
uni254F:
    ..@@..
    ..@@..
    ..@@..
    ..@@..
    ......
    ..@@..
    ..@@..
    ..@@..
    ..@@..
    ......

u+2550:
SF430000:
    ......
    ......
    ......
    ......
    @@@@@@
    ......
    @@@@@@
    ......
    ......
    ......

u+2551:
SF240000:
    .@.@..
    .@.@..
    .@.@..
    .@.@..
    .@.@..
    .@.@..
    .@.@..
    .@.@..
    .@.@..
    .@.@..

u+2552:
SF510000:
    ......
    ......
    ......
    ......
    ..@@@@
    ..@...
    ..@@@@
    ..@...
    ..@...
    ..@...

u+2553:
SF520000:
    ......
    ......
    ......
    ......
    ......
    .@@@@@
    .@.@..
    .@.@..
    .@.@..
    .@.@..

u+2554:
SF390000:
    ......
    ......
    ......
    ......
    .@@@@@
    .@....
    .@.@@@
    .@.@..
    .@.@..
    .@.@..

u+2555:
SF220000:
    ......
    ......
    ......
    ......
    @@@...
    ..@...
    @@@...
    ..@...
    ..@...
    ..@...

u+2556:
SF210000:
    ......
    ......
    ......
    ......
    ......
    @@@@..
    .@.@..
    .@.@..
    .@.@..
    .@.@..

u+2557:
SF250000:
    ......
    ......
    ......
    ......
    @@@@..
    ...@..
    @@.@..
    .@.@..
    .@.@..
    .@.@..

u+2558:
SF500000:
    ..@...
    ..@...
    ..@...
    ..@...
    ..@@@@
    ..@...
    ..@@@@
    ......
    ......
    ......

u+2559:
SF490000:
    .@.@..
    .@.@..
    .@.@..
    .@.@..
    .@.@..
    .@@@@@
    ......
    ......
    ......
    ......

u+255a:
SF380000:
    .@.@..
    .@.@..
    .@.@..
    .@.@..
    .@.@@@
    .@....
    .@@@@@
    ......
    ......
    ......

u+255b:
SF280000:
    ..@...
    ..@...
    ..@...
    ..@...
    @@@...
    ..@...
    @@@...
    ......
    ......
    ......

u+255c:
SF270000:
    .@.@..
    .@.@..
    .@.@..
    .@.@..
    .@.@..
    @@@@..
    ......
    ......
    ......
    ......

u+255d:
SF260000:
    .@.@..
    .@.@..
    .@.@..
    .@.@..
    @@.@..
    ...@..
    @@@@..
    ......
    ......
    ......

u+255e:
SF360000:
    ..@...
    ..@...
    ..@...
    ..@...
    ..@@@@
    ..@...
    ..@@@@
    ..@...
    ..@...
    ..@...

u+255f:
SF370000:
    .@.@..
    .@.@..
    .@.@..
    .@.@..
    .@.@..
    .@.@@@
    .@.@..
    .@.@..
    .@.@..
    .@.@..

u+2560:
SF420000:
    .@.@..
    .@.@..
    .@.@..
    .@.@..
    .@.@@@
    .@....
    .@.@@@
    .@.@..
    .@.@..
    .@.@..

u+2561:
SF190000:
    ..@...
    ..@...
    ..@...
    ..@...
    @@@...
    ..@...
    @@@...
    ..@...
    ..@...
    ..@...

u+2562:
SF200000:
    .@.@..
    .@.@..
    .@.@..
    .@.@..
    .@.@..
    @@.@..
    .@.@..
    .@.@..
    .@.@..
    .@.@..

u+2563:
SF230000:
    .@.@..
    .@.@..
    .@.@..
    .@.@..
    @@.@..
    ...@..
    @@.@..
    .@.@..
    .@.@..
    .@.@..

u+2564:
SF470000:
    ......
    ......
    ......
    ......
    @@@@@@
    ......
    @@@@@@
    ..@...
    ..@...
    ..@...

u+2565:
SF480000:
    ......
    ......
    ......
    ......
    ......
    @@@@@@
    .@.@..
    .@.@..
    .@.@..
    .@.@..

u+2566:
SF410000:
    ......
    ......
    ......
    ......
    @@@@@@
    ......
    @@.@@@
    .@.@..
    .@.@..
    .@.@..

u+2567:
SF450000:
    ..@...
    ..@...
    ..@...
    ..@...
    @@@@@@
    ......
    @@@@@@
    ......
    ......
    ......

u+2568:
SF460000:
    .@.@..
    .@.@..
    .@.@..
    .@.@..
    .@.@..
    @@@@@@
    ......
    ......
    ......
    ......

u+2569:
SF400000:
    .@.@..
    .@.@..
    .@.@..
    .@.@..
    @@.@@@
    ......
    @@@@@@
    ......
    ......
    ......

u+256a:
SF540000:
    ..@...
    ..@...
    ..@...
    ..@...
    @@@@@@
    ..@...
    @@@@@@
    ..@...
    ..@...
    ..@...

u+256b:
SF530000:
    .@.@..
    .@.@..
    .@.@..
    .@.@..
    .@.@..
    @@@@@@
    .@.@..
    .@.@..
    .@.@..
    .@.@..

u+256c:
SF440000:
    .@.@..
    .@.@..
    .@.@..
    .@.@..
    @@.@@@
    ......
    @@.@@@
    .@.@..
    .@.@..
    .@.@..

u+256d:
uni256D:
    ......
    ......
    ......
    ......
    ......
    ....@@
    ...@..
    ..@...
    ..@...
    ..@...

u+256e:
uni256E:
    ......
    ......
    ......
    ......
    ......
    @.....
    .@....
    ..@...
    ..@...
    ..@...

u+256f:
uni256F:
    ..@...
    ..@...
    ..@...
    ..@...
    .@....
    @.....
    ......
    ......
    ......
    ......

u+2570:
uni2570:
    ..@...
    ..@...
    ..@...
    ..@...
    ...@..
    ....@@
    ......
    ......
    ......
    ......

u+2571:
uni2571:
    .....@
    .....@
    ....@.
    ...@..
    ...@..
    ..@...
    ..@...
    .@....
    @.....
    @.....

u+2572:
uni2572:
    @.....
    @.....
    .@....
    ..@...
    ..@...
    ...@..
    ...@..
    ....@.
    .....@
    .....@

u+2573:
uni2573:
    @....@
    @....@
    .@..@.
    ..@@..
    ..@@..
    ..@@..
    ..@@..
    .@..@.
    @....@
    @....@

u+2574:
uni2574:
    ......
    ......
    ......
    ......
    ......
    @@@...
    ......
    ......
    ......
    ......

u+2575:
uni2575:
    ..@...
    ..@...
    ..@...
    ..@...
    ..@...
    ......
    ......
    ......
    ......
    ......

u+2576:
uni2576:
    ......
    ......
    ......
    ......
    ......
    ...@@@
    ......
    ......
    ......
    ......

u+2577:
uni2577:
    ......
    ......
    ......
    ......
    ......
    ..@...
    ..@...
    ..@...
    ..@...
    ..@...

u+2578:
uni2578:
    ......
    ......
    ......
    ......
    @@@...
    @@@...
    ......
    ......
    ......
    ......

u+2579:
uni2579:
    ..@@..
    ..@@..
    ..@@..
    ..@@..
    ..@@..
    ......
    ......
    ......
    ......
    ......

u+257a:
uni257A:
    ......
    ......
    ......
    ......
    ...@@@
    ...@@@
    ......
    ......
    ......
    ......

u+257b:
uni257B:
    ......
    ......
    ......
    ......
    ......
    ..@@..
    ..@@..
    ..@@..
    ..@@..
    ..@@..

u+257c:
uni257C:
    ......
    ......
    ......
    ......
    ...@@@
    @@@@@@
    ......
    ......
    ......
    ......

u+257d:
uni257D:
    ..@...
    ..@...
    ..@...
    ..@...
    ..@...
    ..@@..
    ..@@..
    ..@@..
    ..@@..
    ..@@..

u+257e:
uni257E:
    ......
    ......
    ......
    ......
    @@@...
    @@@@@@
    ......
    ......
    ......
    ......

u+257f:
uni257F:
    ..@@..
    ..@@..
    ..@@..
    ..@@..
    ..@@..
    ..@...
    ..@...
    ..@...
    ..@...
    ..@...

u+2580:
upblock:
    @@@@@@
    @@@@@@
    @@@@@@
    @@@@@@
    @@@@@@
    ......
    ......
    ......
    ......
    ......

u+2581:
uni2581:
    ......
    ......
    ......
    ......
    ......
    ......
    ......
    ......
    ......
    @@@@@@

u+2582:
uni2582:
    ......
    ......
    ......
    ......
    ......
    ......
    ......
    ......
    @@@@@@
    @@@@@@

u+2583:
uni2583:
    ......
    ......
    ......
    ......
    ......
    ......
    @@@@@@
    @@@@@@
    @@@@@@
    @@@@@@

u+2584:
dnblock:
    ......
    ......
    ......
    ......
    ......
    @@@@@@
    @@@@@@
    @@@@@@
    @@@@@@
    @@@@@@

u+2585:
uni2585:
    ......
    ......
    ......
    ......
    @@@@@@
    @@@@@@
    @@@@@@
    @@@@@@
    @@@@@@
    @@@@@@

u+2586:
uni2586:
    ......
    ......
    @@@@@@
    @@@@@@
    @@@@@@
    @@@@@@
    @@@@@@
    @@@@@@
    @@@@@@
    @@@@@@

u+2587:
uni2587:
    ......
    @@@@@@
    @@@@@@
    @@@@@@
    @@@@@@
    @@@@@@
    @@@@@@
    @@@@@@
    @@@@@@
    @@@@@@

u+2588:
block:
    @@@@@@
    @@@@@@
    @@@@@@
    @@@@@@
    @@@@@@
    @@@@@@
    @@@@@@
    @@@@@@
    @@@@@@
    @@@@@@

u+2589:
uni2589:
    @@@@@.
    @@@@@.
    @@@@@.
    @@@@@.
    @@@@@.
    @@@@@.
    @@@@@.
    @@@@@.
    @@@@@.
    @@@@@.

u+258a:
uni258A:
    @@@@..
    @@@@..
    @@@@..
    @@@@..
    @@@@..
    @@@@..
    @@@@..
    @@@@..
    @@@@..
    @@@@..

u+258b:
uni258B:
    @@@@..
    @@@@..
    @@@@..
    @@@@..
    @@@@..
    @@@@..
    @@@@..
    @@@@..
    @@@@..
    @@@@..

u+258c:
lfblock:
    @@@...
    @@@...
    @@@...
    @@@...
    @@@...
    @@@...
    @@@...
    @@@...
    @@@...
    @@@...

u+258d:
uni258D:
    @@....
    @@....
    @@....
    @@....
    @@....
    @@....
    @@....
    @@....
    @@....
    @@....

u+258e:
uni258E:
    @@....
    @@....
    @@....
    @@....
    @@....
    @@....
    @@....
    @@....
    @@....
    @@....

u+258f:
uni258F:
    @.....
    @.....
    @.....
    @.....
    @.....
    @.....
    @.....
    @.....
    @.....
    @.....

u+2590:
rtblock:
    ...@@@
    ...@@@
    ...@@@
    ...@@@
    ...@@@
    ...@@@
    ...@@@
    ...@@@
    ...@@@
    ...@@@

u+2591:
ltshade:
    @.@.@.
    ......
    .@.@.@
    ......
    @.@.@.
    ......
    .@.@.@
    ......
    @.@.@.
    ......

u+2592:
shade:
    @.@.@.
    .@.@.@
    @.@.@.
    .@.@.@
    @.@.@.
    .@.@.@
    @.@.@.
    .@.@.@
    @.@.@.
    .@.@.@

u+2593:
dkshade:
    @.@.@.
    @@@@@@
    .@.@.@
    @@@@@@
    @.@.@.
    @@@@@@
    .@.@.@
    @@@@@@
    @.@.@.
    @@@@@@

u+2594:
uni2594:
    @@@@@@
    ......
    ......
    ......
    ......
    ......
    ......
    ......
    ......
    ......

u+2595:
uni2595:
    .....@
    .....@
    .....@
    .....@
    .....@
    .....@
    .....@
    .....@
    .....@
    .....@

u+2596:
uni2596:
    ......
    ......
    ......
    ......
    ......
    @@@...
    @@@...
    @@@...
    @@@...
    @@@...

u+2597:
uni2597:
    ......
    ......
    ......
    ......
    ......
    ...@@@
    ...@@@
    ...@@@
    ...@@@
    ...@@@

u+2598:
uni2598:
    @@@...
    @@@...
    @@@...
    @@@...
    @@@...
    ......
    ......
    ......
    ......
    ......

u+2599:
uni2599:
    @@@...
    @@@...
    @@@...
    @@@...
    @@@...
    @@@@@@
    @@@@@@
    @@@@@@
    @@@@@@
    @@@@@@

u+259a:
uni259A:
    @@@...
    @@@...
    @@@...
    @@@...
    @@@...
    ...@@@
    ...@@@
    ...@@@
    ...@@@
    ...@@@

u+259b:
uni259B:
    @@@@@@
    @@@@@@
    @@@@@@
    @@@@@@
    @@@@@@
    @@@...
    @@@...
    @@@...
    @@@...
    @@@...

u+259c:
uni259C:
    @@@@@@
    @@@@@@
    @@@@@@
    @@@@@@
    @@@@@@
    ...@@@
    ...@@@
    ...@@@
    ...@@@
    ...@@@

u+259d:
uni259D:
    ...@@@
    ...@@@
    ...@@@
    ...@@@
    ...@@@
    ......
    ......
    ......
    ......
    ......

u+259e:
uni259E:
    ...@@@
    ...@@@
    ...@@@
    ...@@@
    ...@@@
    @@@...
    @@@...
    @@@...
    @@@...
    @@@...

u+259f:
uni259F:
    ...@@@
    ...@@@
    ...@@@
    ...@@@
    ...@@@
    @@@@@@
    @@@@@@
    @@@@@@
    @@@@@@
    @@@@@@

u+25a0:
filledbox:
    ......
    ......
    ......
    @@@@@.
    @@@@@.
    @@@@@.
    @@@@@.
    @@@@@.
    ......
    ......

u+25a1:
H22073:
    ......
    ......
    ......
    @@@@@.
    @...@.
    @...@.
    @...@.
    @@@@@.
    ......
    ......

u+25aa:
H18543:
    ......
    ......
    ......
    ......
    .@@@@.
    .@@@@.
    .@@@@.
    .@@@@.
    ......
    ......

u+25ab:
H18551:
    ......
    ......
    ......
    ......
    .@@@@.
    .@..@.
    .@..@.
    .@@@@.
    ......
    ......

u+25ac:
filledrect:
    ......
    ......
    ......
    ......
    @@@@@@
    @@@@@@
    @@@@@@
    @@@@@@
    ......
    ......

u+25ae:
uni25AE:
    ......
    ......
    ......
    .@@@@.
    .@@@@.
    .@@@@.
    .@@@@.
    .@@@@.
    .@@@@.
    ......

u+25b2:
triagup:
    ......
    ......
    ..@...
    ..@...
    .@@@..
    .@@@..
    @@@@@.
    @@@@@.
    ......
    ......

u+25b3:
uni25B3:
    ......
    ......
    ..@...
    ..@...
    .@.@..
    .@.@..
    @...@.
    @@@@@.
    ......
    ......

u+25ba:
triagrt:
    ......
    ......
    ......
    @@....
    @@@@..
    @@@@@@
    @@@@..
    @@....
    ......
    ......

u+25bb:
uni25BB:
    ......
    ......
    ......
    @@....
    @.@@..
    @...@@
    @.@@..
    @@....
    ......
    ......

u+25bc:
triagdn:
    ......
    ......
    @@@@@.
    @@@@@.
    .@@@..
    .@@@..
    ..@...
    ..@...
    ......
    ......

u+25bd:
uni25BD:
    ......
    ......
    @@@@@.
    @...@.
    .@.@..
    .@.@..
    ..@...
    ..@...
    ......
    ......

u+25c4:
triaglf:
    ......
    ......
    ......
    ....@@
    ..@@@@
    @@@@@@
    ..@@@@
    ....@@
    ......
    ......

u+25c5:
uni25C5:
    ......
    ......
    ......
    ....@@
    ..@@.@
    @@...@
    ..@@.@
    ....@@
    ......
    ......

u+25c6:
uni25C6:
    ......
    ......
    ..@...
    .@@@..
    @@@@@.
    .@@@..
    ..@...
    ......
    ......
    ......

u+25ca:
lozenge:
    ......
    ..@...
    .@.@..
    .@.@..
    @...@.
    .@.@..
    .@.@..
    ..@...
    ......
    ......

u+25cb:
circle:
    ......
    ......
    ......
    .@@@..
    @...@.
    @...@.
    @...@.
    .@@@..
    ......
    ......

u+25cc:
uni25CC:
    ......
    ......
    ......
    .@@@..
    @@@@@.
    @@@@@.
    @@@@@.
    .@@@..
    ......
    ......

u+25cf:
H18533:
    ......
    ......
    ......
    .@@@..
    @@@@@.
    @@@@@.
    @@@@@.
    .@@@..
    ......
    ......

u+25d8:
invbullet:
    @@@@@@
    @@@@@@
    @@@@@@
    @@..@@
    @....@
    @....@
    @@..@@
    @@@@@@
    @@@@@@
    @@@@@@

u+25d9:
invcircle:
    @@@@@@
    @@@@@@
    @@@@@@
    @@..@@
    @.@@.@
    @.@@.@
    @@..@@
    @@@@@@
    @@@@@@
    @@@@@@

u+25e6:
openbullet:
    ......
    ......
    ......
    ..@@..
    .@..@.
    .@..@.
    ..@@..
    ......
    ......
    ......

u+2600:
uni2600:
    ......
    ...@..
    .@.@.@
    ......
    @.@@..
    ..@@.@
    ......
    @.@.@.
    ..@...
    ......

u+263a:
smileface:
    ......
    ......
    .@@@@.
    @....@
    @@..@@
    @....@
    @.@@.@
    @....@
    .@@@@.
    ......

u+263b:
invsmileface:
    ......
    .@@@..
    @@@@@.
    @.@.@.
    @@@@@.
    @.@.@.
    @@.@@.
    .@@@..
    ......
    ......

u+263c:
sun:
    ......
    ...@..
    .@.@.@
    ......
    @.@@..
    ..@@.@
    ......
    @.@.@.
    ..@...
    ......

u+263f:
uni263F:
    ......
    @...@.
    .@@@..
    @...@.
    @...@.
    @...@.
    .@@@..
    ..@...
    .@@@..
    ..@...

u+2640:
female:
    ......
    ......
    .@@@..
    @...@.
    @...@.
    @...@.
    .@@@..
    ..@...
    .@@@..
    ..@...

u+2641:
uni2641:
    ..@...
    .@@@..
    ..@...
    .@@@..
    @...@.
    @...@.
    @...@.
    .@@@..
    ......
    ......

u+2642:
male:
    ......
    ...@@@
    ....@@
    .@@@.@
    @...@.
    @...@.
    @...@.
    .@@@..
    ......
    ......

u+2660:
spade:
    ......
    ..@...
    ..@...
    .@@@..
    @@@@@.
    @@@@@.
    ..@...
    .@@@..
    ......
    ......

u+2661:
uni2661:
    ......
    ......
    .@.@..
    @.@.@.
    @.@.@.
    @...@.
    .@.@..
    ..@...
    ......
    ......

u+2662:
uni2662:
    ..@...
    .@.@..
    .@.@..
    @...@.
    @...@.
    .@.@..
    .@.@..
    ..@...
    ......
    ......

u+2663:
club:
    ......
    .@@@..
    ..@...
    @.@.@.
    @@@@@.
    @.@.@.
    ..@...
    .@@@..
    ......
    ......

u+2664:
uni2664:
    ......
    ..@...
    ..@...
    .@.@..
    @...@.
    @@.@@.
    ..@...
    .@@@..
    ......
    ......

u+2665:
heart:
    ......
    ......
    .@.@..
    @@@@@.
    @@@@@.
    @@@@@.
    .@@@..
    ..@...
    ......
    ......

u+2666:
diamond:
    ..@...
    .@@@..
    .@@@..
    @@@@@.
    @@@@@.
    .@@@..
    .@@@..
    ..@...
    ......
    ......

u+266a:
musicalnote:
    ......
    ......
    ..@@..
    ..@.@.
    ..@...
    .@@...
    @@@...
    .@@...
    ......
    ......

u+266b:
musicalnotedbl:
    ......
    .@@...
    .@.@..
    .@..@.
    .@..@.
    @@..@.
    @@.@@.
    ...@@.
    ......
    ......

u+266c:
uni266C:
    ......
    .@@...
    .@.@..
    .@@.@.
    .@.@@.
    @@..@.
    @@.@@.
    ...@@.
    ......
    ......

u+266d:
uni266D:
    ......
    .@....
    .@....
    .@.@..
    .@@.@.
    .@..@.
    .@.@..
    .@@...
    ......
    ......

u+266e:
uni266E:
    ......
    .@....
    .@..@.
    .@.@@.
    .@@.@.
    .@.@@.
    .@@.@.
    .@..@.
    ....@.
    ......

u+266f:
uni266F:
    ......
    ...@..
    .@.@@.
    .@@@..
    @@.@..
    .@.@@.
    .@@@..
    @@.@..
    .@....
    ......

u+27e8:
uni27E8:
    ......
    ...@..
    ..@...
    ..@...
    .@....
    ..@...
    ..@...
    ...@..
    ......
    ......

u+27e9:
uni27E9:
    ......
    .@....
    ..@...
    ..@...
    ...@..
    ..@...
    ..@...
    .@....
    ......
    ......

u+2800:
uni2800:
    ......
    ......
    ......
    ......
    ......
    ......
    ......
    ......
    ......
    ......

u+2801:
uni2801:
    ......
    .@....
    ......
    ......
    ......
    ......
    ......
    ......
    ......
    ......

u+2802:
uni2802:
    ......
    ......
    ......
    .@....
    ......
    ......
    ......
    ......
    ......
    ......

u+2803:
uni2803:
    ......
    .@....
    ......
    .@....
    ......
    ......
    ......
    ......
    ......
    ......

u+2804:
uni2804:
    ......
    ......
    ......
    ......
    ......
    .@....
    ......
    ......
    ......
    ......

u+2805:
uni2805:
    ......
    .@....
    ......
    ......
    ......
    .@....
    ......
    ......
    ......
    ......

u+2806:
uni2806:
    ......
    ......
    ......
    .@....
    ......
    .@....
    ......
    ......
    ......
    ......

u+2807:
uni2807:
    ......
    .@....
    ......
    .@....
    ......
    .@....
    ......
    ......
    ......
    ......

u+2808:
uni2808:
    ......
    ...@..
    ......
    ......
    ......
    ......
    ......
    ......
    ......
    ......

u+2809:
uni2809:
    ......
    .@.@..
    ......
    ......
    ......
    ......
    ......
    ......
    ......
    ......

u+280a:
uni280A:
    ......
    ...@..
    ......
    .@....
    ......
    ......
    ......
    ......
    ......
    ......

u+280b:
uni280B:
    ......
    .@.@..
    ......
    .@....
    ......
    ......
    ......
    ......
    ......
    ......

u+280c:
uni280C:
    ......
    ...@..
    ......
    ......
    ......
    .@....
    ......
    ......
    ......
    ......

u+280d:
uni280D:
    ......
    .@.@..
    ......
    ......
    ......
    .@....
    ......
    ......
    ......
    ......

u+280e:
uni280E:
    ......
    ...@..
    ......
    .@....
    ......
    .@....
    ......
    ......
    ......
    ......

u+280f:
uni280F:
    ......
    .@.@..
    ......
    .@....
    ......
    .@....
    ......
    ......
    ......
    ......

u+2810:
uni2810:
    ......
    ......
    ......
    ...@..
    ......
    ......
    ......
    ......
    ......
    ......

u+2811:
uni2811:
    ......
    .@....
    ......
    ...@..
    ......
    ......
    ......
    ......
    ......
    ......

u+2812:
uni2812:
    ......
    ......
    ......
    .@.@..
    ......
    ......
    ......
    ......
    ......
    ......

u+2813:
uni2813:
    ......
    .@....
    ......
    .@.@..
    ......
    ......
    ......
    ......
    ......
    ......

u+2814:
uni2814:
    ......
    ......
    ......
    ...@..
    ......
    .@....
    ......
    ......
    ......
    ......

u+2815:
uni2815:
    ......
    .@....
    ......
    ...@..
    ......
    .@....
    ......
    ......
    ......
    ......

u+2816:
uni2816:
    ......
    ......
    ......
    .@.@..
    ......
    .@....
    ......
    ......
    ......
    ......

u+2817:
uni2817:
    ......
    .@....
    ......
    .@.@..
    ......
    .@....
    ......
    ......
    ......
    ......

u+2818:
uni2818:
    ......
    ...@..
    ......
    ...@..
    ......
    ......
    ......
    ......
    ......
    ......

u+2819:
uni2819:
    ......
    .@.@..
    ......
    ...@..
    ......
    ......
    ......
    ......
    ......
    ......

u+281a:
uni281A:
    ......
    ...@..
    ......
    .@.@..
    ......
    ......
    ......
    ......
    ......
    ......

u+281b:
uni281B:
    ......
    .@.@..
    ......
    .@.@..
    ......
    ......
    ......
    ......
    ......
    ......

u+281c:
uni281C:
    ......
    ...@..
    ......
    ...@..
    ......
    .@....
    ......
    ......
    ......
    ......

u+281d:
uni281D:
    ......
    .@.@..
    ......
    ...@..
    ......
    .@....
    ......
    ......
    ......
    ......

u+281e:
uni281E:
    ......
    ...@..
    ......
    .@.@..
    ......
    .@....
    ......
    ......
    ......
    ......

u+281f:
uni281F:
    ......
    .@.@..
    ......
    .@.@..
    ......
    .@....
    ......
    ......
    ......
    ......

u+2820:
uni2820:
    ......
    ......
    ......
    ......
    ......
    ...@..
    ......
    ......
    ......
    ......

u+2821:
uni2821:
    ......
    .@....
    ......
    ......
    ......
    ...@..
    ......
    ......
    ......
    ......

u+2822:
uni2822:
    ......
    ......
    ......
    .@....
    ......
    ...@..
    ......
    ......
    ......
    ......

u+2823:
uni2823:
    ......
    .@....
    ......
    .@....
    ......
    ...@..
    ......
    ......
    ......
    ......

u+2824:
uni2824:
    ......
    ......
    ......
    ......
    ......
    .@.@..
    ......
    ......
    ......
    ......

u+2825:
uni2825:
    ......
    .@....
    ......
    ......
    ......
    .@.@..
    ......
    ......
    ......
    ......

u+2826:
uni2826:
    ......
    ......
    ......
    .@....
    ......
    .@.@..
    ......
    ......
    ......
    ......

u+2827:
uni2827:
    ......
    .@....
    ......
    .@....
    ......
    .@.@..
    ......
    ......
    ......
    ......

u+2828:
uni2828:
    ......
    ...@..
    ......
    ......
    ......
    ...@..
    ......
    ......
    ......
    ......

u+2829:
uni2829:
    ......
    .@.@..
    ......
    ......
    ......
    ...@..
    ......
    ......
    ......
    ......

u+282a:
uni282A:
    ......
    ...@..
    ......
    .@....
    ......
    ...@..
    ......
    ......
    ......
    ......

u+282b:
uni282B:
    ......
    .@.@..
    ......
    .@....
    ......
    ...@..
    ......
    ......
    ......
    ......

u+282c:
uni282C:
    ......
    ...@..
    ......
    ......
    ......
    .@.@..
    ......
    ......
    ......
    ......

u+282d:
uni282D:
    ......
    .@.@..
    ......
    ......
    ......
    .@.@..
    ......
    ......
    ......
    ......

u+282e:
uni282E:
    ......
    ...@..
    ......
    .@....
    ......
    .@.@..
    ......
    ......
    ......
    ......

u+282f:
uni282F:
    ......
    .@.@..
    ......
    .@....
    ......
    .@.@..
    ......
    ......
    ......
    ......

u+2830:
uni2830:
    ......
    ......
    ......
    ...@..
    ......
    ...@..
    ......
    ......
    ......
    ......

u+2831:
uni2831:
    ......
    .@....
    ......
    ...@..
    ......
    ...@..
    ......
    ......
    ......
    ......

u+2832:
uni2832:
    ......
    ......
    ......
    .@.@..
    ......
    ...@..
    ......
    ......
    ......
    ......

u+2833:
uni2833:
    ......
    .@....
    ......
    .@.@..
    ......
    ...@..
    ......
    ......
    ......
    ......

u+2834:
uni2834:
    ......
    ......
    ......
    ...@..
    ......
    .@.@..
    ......
    ......
    ......
    ......

u+2835:
uni2835:
    ......
    .@....
    ......
    ...@..
    ......
    .@.@..
    ......
    ......
    ......
    ......

u+2836:
uni2836:
    ......
    ......
    ......
    .@.@..
    ......
    .@.@..
    ......
    ......
    ......
    ......

u+2837:
uni2837:
    ......
    .@....
    ......
    .@.@..
    ......
    .@.@..
    ......
    ......
    ......
    ......

u+2838:
uni2838:
    ......
    ...@..
    ......
    ...@..
    ......
    ...@..
    ......
    ......
    ......
    ......

u+2839:
uni2839:
    ......
    .@.@..
    ......
    ...@..
    ......
    ...@..
    ......
    ......
    ......
    ......

u+283a:
uni283A:
    ......
    ...@..
    ......
    .@.@..
    ......
    ...@..
    ......
    ......
    ......
    ......

u+283b:
uni283B:
    ......
    .@.@..
    ......
    .@.@..
    ......
    ...@..
    ......
    ......
    ......
    ......

u+283c:
uni283C:
    ......
    ...@..
    ......
    ...@..
    ......
    .@.@..
    ......
    ......
    ......
    ......

u+283d:
uni283D:
    ......
    .@.@..
    ......
    ...@..
    ......
    .@.@..
    ......
    ......
    ......
    ......

u+283e:
uni283E:
    ......
    ...@..
    ......
    .@.@..
    ......
    .@.@..
    ......
    ......
    ......
    ......

u+283f:
uni283F:
    ......
    .@.@..
    ......
    .@.@..
    ......
    .@.@..
    ......
    ......
    ......
    ......

u+2840:
uni2840:
    ......
    ......
    ......
    ......
    ......
    ......
    ......
    .@....
    ......
    ......

u+2841:
uni2841:
    ......
    .@....
    ......
    ......
    ......
    ......
    ......
    .@....
    ......
    ......

u+2842:
uni2842:
    ......
    ......
    ......
    .@....
    ......
    ......
    ......
    .@....
    ......
    ......

u+2843:
uni2843:
    ......
    .@....
    ......
    .@....
    ......
    ......
    ......
    .@....
    ......
    ......

u+2844:
uni2844:
    ......
    ......
    ......
    ......
    ......
    .@....
    ......
    .@....
    ......
    ......

u+2845:
uni2845:
    ......
    .@....
    ......
    ......
    ......
    .@....
    ......
    .@....
    ......
    ......

u+2846:
uni2846:
    ......
    ......
    ......
    .@....
    ......
    .@....
    ......
    .@....
    ......
    ......

u+2847:
uni2847:
    ......
    .@....
    ......
    .@....
    ......
    .@....
    ......
    .@....
    ......
    ......

u+2848:
uni2848:
    ......
    ...@..
    ......
    ......
    ......
    ......
    ......
    .@....
    ......
    ......

u+2849:
uni2849:
    ......
    .@.@..
    ......
    ......
    ......
    ......
    ......
    .@....
    ......
    ......

u+284a:
uni284A:
    ......
    ...@..
    ......
    .@....
    ......
    ......
    ......
    .@....
    ......
    ......

u+284b:
uni284B:
    ......
    .@.@..
    ......
    .@....
    ......
    ......
    ......
    .@....
    ......
    ......

u+284c:
uni284C:
    ......
    ...@..
    ......
    ......
    ......
    .@....
    ......
    .@....
    ......
    ......

u+284d:
uni284D:
    ......
    .@.@..
    ......
    ......
    ......
    .@....
    ......
    .@....
    ......
    ......

u+284e:
uni284E:
    ......
    ...@..
    ......
    .@....
    ......
    .@....
    ......
    .@....
    ......
    ......

u+284f:
uni284F:
    ......
    .@.@..
    ......
    .@....
    ......
    .@....
    ......
    .@....
    ......
    ......

u+2850:
uni2850:
    ......
    ......
    ......
    ...@..
    ......
    ......
    ......
    .@....
    ......
    ......

u+2851:
uni2851:
    ......
    .@....
    ......
    ...@..
    ......
    ......
    ......
    .@....
    ......
    ......

u+2852:
uni2852:
    ......
    ......
    ......
    .@.@..
    ......
    ......
    ......
    .@....
    ......
    ......

u+2853:
uni2853:
    ......
    .@....
    ......
    .@.@..
    ......
    ......
    ......
    .@....
    ......
    ......

u+2854:
uni2854:
    ......
    ......
    ......
    ...@..
    ......
    .@....
    ......
    .@....
    ......
    ......

u+2855:
uni2855:
    ......
    .@....
    ......
    ...@..
    ......
    .@....
    ......
    .@....
    ......
    ......

u+2856:
uni2856:
    ......
    ......
    ......
    .@.@..
    ......
    .@....
    ......
    .@....
    ......
    ......

u+2857:
uni2857:
    ......
    .@....
    ......
    .@.@..
    ......
    .@....
    ......
    .@....
    ......
    ......

u+2858:
uni2858:
    ......
    ...@..
    ......
    ...@..
    ......
    ......
    ......
    .@....
    ......
    ......

u+2859:
uni2859:
    ......
    .@.@..
    ......
    ...@..
    ......
    ......
    ......
    .@....
    ......
    ......

u+285a:
uni285A:
    ......
    ...@..
    ......
    .@.@..
    ......
    ......
    ......
    .@....
    ......
    ......

u+285b:
uni285B:
    ......
    .@.@..
    ......
    .@.@..
    ......
    ......
    ......
    .@....
    ......
    ......

u+285c:
uni285C:
    ......
    ...@..
    ......
    ...@..
    ......
    .@....
    ......
    .@....
    ......
    ......

u+285d:
uni285D:
    ......
    .@.@..
    ......
    ...@..
    ......
    .@....
    ......
    .@....
    ......
    ......

u+285e:
uni285E:
    ......
    ...@..
    ......
    .@.@..
    ......
    .@....
    ......
    .@....
    ......
    ......

u+285f:
uni285F:
    ......
    .@.@..
    ......
    .@.@..
    ......
    .@....
    ......
    .@....
    ......
    ......

u+2860:
uni2860:
    ......
    ......
    ......
    ......
    ......
    ...@..
    ......
    .@....
    ......
    ......

u+2861:
uni2861:
    ......
    .@....
    ......
    ......
    ......
    ...@..
    ......
    .@....
    ......
    ......

u+2862:
uni2862:
    ......
    ......
    ......
    .@....
    ......
    ...@..
    ......
    .@....
    ......
    ......

u+2863:
uni2863:
    ......
    .@....
    ......
    .@....
    ......
    ...@..
    ......
    .@....
    ......
    ......

u+2864:
uni2864:
    ......
    ......
    ......
    ......
    ......
    .@.@..
    ......
    .@....
    ......
    ......

u+2865:
uni2865:
    ......
    .@....
    ......
    ......
    ......
    .@.@..
    ......
    .@....
    ......
    ......

u+2866:
uni2866:
    ......
    ......
    ......
    .@....
    ......
    .@.@..
    ......
    .@....
    ......
    ......

u+2867:
uni2867:
    ......
    .@....
    ......
    .@....
    ......
    .@.@..
    ......
    .@....
    ......
    ......

u+2868:
uni2868:
    ......
    ...@..
    ......
    ......
    ......
    ...@..
    ......
    .@....
    ......
    ......

u+2869:
uni2869:
    ......
    .@.@..
    ......
    ......
    ......
    ...@..
    ......
    .@....
    ......
    ......

u+286a:
uni286A:
    ......
    ...@..
    ......
    .@....
    ......
    ...@..
    ......
    .@....
    ......
    ......

u+286b:
uni286B:
    ......
    .@.@..
    ......
    .@....
    ......
    ...@..
    ......
    .@....
    ......
    ......

u+286c:
uni286C:
    ......
    ...@..
    ......
    ......
    ......
    .@.@..
    ......
    .@....
    ......
    ......

u+286d:
uni286D:
    ......
    .@.@..
    ......
    ......
    ......
    .@.@..
    ......
    .@....
    ......
    ......

u+286e:
uni286E:
    ......
    ...@..
    ......
    .@....
    ......
    .@.@..
    ......
    .@....
    ......
    ......

u+286f:
uni286F:
    ......
    .@.@..
    ......
    .@....
    ......
    .@.@..
    ......
    .@....
    ......
    ......

u+2870:
uni2870:
    ......
    ......
    ......
    ...@..
    ......
    ...@..
    ......
    .@....
    ......
    ......

u+2871:
uni2871:
    ......
    .@....
    ......
    ...@..
    ......
    ...@..
    ......
    .@....
    ......
    ......

u+2872:
uni2872:
    ......
    ......
    ......
    .@.@..
    ......
    ...@..
    ......
    .@....
    ......
    ......

u+2873:
uni2873:
    ......
    .@....
    ......
    .@.@..
    ......
    ...@..
    ......
    .@....
    ......
    ......

u+2874:
uni2874:
    ......
    ......
    ......
    ...@..
    ......
    .@.@..
    ......
    .@....
    ......
    ......

u+2875:
uni2875:
    ......
    .@....
    ......
    ...@..
    ......
    .@.@..
    ......
    .@....
    ......
    ......

u+2876:
uni2876:
    ......
    ......
    ......
    .@.@..
    ......
    .@.@..
    ......
    .@....
    ......
    ......

u+2877:
uni2877:
    ......
    .@....
    ......
    .@.@..
    ......
    .@.@..
    ......
    .@....
    ......
    ......

u+2878:
uni2878:
    ......
    ...@..
    ......
    ...@..
    ......
    ...@..
    ......
    .@....
    ......
    ......

u+2879:
uni2879:
    ......
    .@.@..
    ......
    ...@..
    ......
    ...@..
    ......
    .@....
    ......
    ......

u+287a:
uni287A:
    ......
    ...@..
    ......
    .@.@..
    ......
    ...@..
    ......
    .@....
    ......
    ......

u+287b:
uni287B:
    ......
    .@.@..
    ......
    .@.@..
    ......
    ...@..
    ......
    .@....
    ......
    ......

u+287c:
uni287C:
    ......
    ...@..
    ......
    ...@..
    ......
    .@.@..
    ......
    .@....
    ......
    ......

u+287d:
uni287D:
    ......
    .@.@..
    ......
    ...@..
    ......
    .@.@..
    ......
    .@....
    ......
    ......

u+287e:
uni287E:
    ......
    ...@..
    ......
    .@.@..
    ......
    .@.@..
    ......
    .@....
    ......
    ......

u+287f:
uni287F:
    ......
    .@.@..
    ......
    .@.@..
    ......
    .@.@..
    ......
    .@....
    ......
    ......

u+2880:
uni2880:
    ......
    ......
    ......
    ......
    ......
    ......
    ......
    ...@..
    ......
    ......

u+2881:
uni2881:
    ......
    .@....
    ......
    ......
    ......
    ......
    ......
    ...@..
    ......
    ......

u+2882:
uni2882:
    ......
    ......
    ......
    .@....
    ......
    ......
    ......
    ...@..
    ......
    ......

u+2883:
uni2883:
    ......
    .@....
    ......
    .@....
    ......
    ......
    ......
    ...@..
    ......
    ......

u+2884:
uni2884:
    ......
    ......
    ......
    ......
    ......
    .@....
    ......
    ...@..
    ......
    ......

u+2885:
uni2885:
    ......
    .@....
    ......
    ......
    ......
    .@....
    ......
    ...@..
    ......
    ......

u+2886:
uni2886:
    ......
    ......
    ......
    .@....
    ......
    .@....
    ......
    ...@..
    ......
    ......

u+2887:
uni2887:
    ......
    .@....
    ......
    .@....
    ......
    .@....
    ......
    ...@..
    ......
    ......

u+2888:
uni2888:
    ......
    ...@..
    ......
    ......
    ......
    ......
    ......
    ...@..
    ......
    ......

u+2889:
uni2889:
    ......
    .@.@..
    ......
    ......
    ......
    ......
    ......
    ...@..
    ......
    ......

u+288a:
uni288A:
    ......
    ...@..
    ......
    .@....
    ......
    ......
    ......
    ...@..
    ......
    ......

u+288b:
uni288B:
    ......
    .@.@..
    ......
    .@....
    ......
    ......
    ......
    ...@..
    ......
    ......

u+288c:
uni288C:
    ......
    ...@..
    ......
    ......
    ......
    .@....
    ......
    ...@..
    ......
    ......

u+288d:
uni288D:
    ......
    .@.@..
    ......
    ......
    ......
    .@....
    ......
    ...@..
    ......
    ......

u+288e:
uni288E:
    ......
    ...@..
    ......
    .@....
    ......
    .@....
    ......
    ...@..
    ......
    ......

u+288f:
uni288F:
    ......
    .@.@..
    ......
    .@....
    ......
    .@....
    ......
    ...@..
    ......
    ......

u+2890:
uni2890:
    ......
    ......
    ......
    ...@..
    ......
    ......
    ......
    ...@..
    ......
    ......

u+2891:
uni2891:
    ......
    .@....
    ......
    ...@..
    ......
    ......
    ......
    ...@..
    ......
    ......

u+2892:
uni2892:
    ......
    ......
    ......
    .@.@..
    ......
    ......
    ......
    ...@..
    ......
    ......

u+2893:
uni2893:
    ......
    .@....
    ......
    .@.@..
    ......
    ......
    ......
    ...@..
    ......
    ......

u+2894:
uni2894:
    ......
    ......
    ......
    ...@..
    ......
    .@....
    ......
    ...@..
    ......
    ......

u+2895:
uni2895:
    ......
    .@....
    ......
    ...@..
    ......
    .@....
    ......
    ...@..
    ......
    ......

